<?xml version="1.0" encoding="utf-8"?>
<!-- Generator: Adobe Illustrator 23.0.1, SVG Export Plug-In . SVG Version: 6.00 Build 0)  -->
<svg version="1.1" id="Calque_1" xmlns="http://www.w3.org/2000/svg" xmlns:xlink="http://www.w3.org/1999/xlink" x="0px" y="0px"
	 viewBox="0 0 495 514" enable-background="new 0 0 495 514" xml:space="preserve">
<line fill="none" stroke="#000000" stroke-width="0.5" stroke-miterlimit="10" x1="45.86" y1="280.42" x2="45.86" y2="172.27"/>
<line fill="none" stroke="#000000" stroke-width="0.5" stroke-miterlimit="10" x1="444.87" y1="166.82" x2="444.86" y2="143.93"/>
<rect x="407.56" y="21.54" fill="#FFFFFF" stroke="#999999" stroke-width="0.5" stroke-miterlimit="10" width="74.6" height="48.43"/>
<rect x="407.56" y="21.54" fill="#EAEAEA" stroke="#999999" stroke-width="0.5" stroke-miterlimit="10" width="74.6" height="14.11"/>
<text transform="matrix(1 0 0 1 426.0758 32.3121)" fill="#1D1D1B" font-family="'ArialMT'" font-size="8.6616px">Catégorie</text>
<path fill="#FFFFFF" stroke="#999999" stroke-width="0.5" stroke-miterlimit="10" d="M470.38,118.42
	c0,14.09-11.42,25.52-25.52,25.52c-14.09,0-25.52-11.42-25.52-25.52c0-14.09,11.42-25.51,25.52-25.52
	C458.96,92.9,470.38,104.33,470.38,118.42z"/>
<line fill="none" stroke="#999999" stroke-width="0.5" stroke-miterlimit="10" x1="419.35" y1="118.42" x2="470.38" y2="118.42"/>
<text transform="matrix(1 0 0 1 424.4521 112.8464)" fill="#1D1D1B" font-family="'ArialMT'" font-size="8.6616px">appartenir</text>
<line fill="none" stroke="#000000" stroke-width="0.5" stroke-miterlimit="10" x1="382.51" y1="305.15" x2="415.99" y2="305.15"/>
<line fill="none" stroke="#000000" stroke-width="0.5" stroke-miterlimit="10" x1="357" y1="279.64" x2="357" y2="206.65"/>
<line fill="none" stroke="#000000" stroke-width="0.5" stroke-miterlimit="10" x1="375.02" y1="287.13" x2="411.66" y2="219.01"/>
<line fill="none" stroke="#000000" stroke-width="0.5" stroke-miterlimit="10" x1="281.57" y1="364.05" x2="355.85" y2="305.54"/>
<line fill="none" stroke="#000000" stroke-width="0.5" stroke-miterlimit="10" x1="281.57" y1="305.54" x2="331.48" y2="305.15"/>
<line fill="none" stroke="#000000" stroke-width="0.5" stroke-miterlimit="10" x1="206.97" y1="393.27" x2="145.93" y2="393.27"/>
<rect x="206.97" y="357" fill="#FFFFFF" stroke="#999999" stroke-width="0.5" stroke-miterlimit="10" width="74.6" height="81.96"/>
<rect x="206.97" y="357" fill="#EAEAEA" stroke="#999999" stroke-width="0.5" stroke-miterlimit="10" width="74.6" height="14.11"/>
<text transform="matrix(1 0 0 1 214.9028 367.7631)" fill="#1D1D1B" font-family="'ArialMT'" font-size="8.6616px">Galerie Images</text>
<path fill="#FFFFFF" stroke="#999999" stroke-width="0.5" stroke-miterlimit="10" d="M171.45,393.27
	c0,14.09-11.42,25.52-25.52,25.52c-14.09,0-25.52-11.42-25.52-25.52c0-14.09,11.42-25.51,25.52-25.51
	C160.02,367.76,171.45,379.18,171.45,393.27z"/>
<line fill="none" stroke="#999999" stroke-width="0.5" stroke-miterlimit="10" x1="120.42" y1="393.27" x2="171.45" y2="393.27"/>
<text transform="matrix(1 0 0 1 131.5357 387.818)" fill="#1D1D1B" font-family="'ArialMT'" font-size="8.6616px">ajouter</text>
<line fill="none" stroke="#000000" stroke-width="0.5" stroke-miterlimit="10" x1="355.85" y1="305.54" x2="281.57" y2="242.01"/>
<line fill="none" stroke="#000000" stroke-width="0.5" stroke-miterlimit="10" x1="206.97" y1="219.49" x2="145.93" y2="219.49"/>
<line fill="none" stroke="#000000" stroke-width="0.5" stroke-miterlimit="10" x1="147.09" y1="220.54" x2="86.04" y2="159.61"/>
<rect x="206.97" y="164.28" fill="#FFFFFF" stroke="#999999" stroke-width="0.5" stroke-miterlimit="10" width="74.6" height="91.58"/>
<rect x="206.97" y="164.28" fill="#EAEAEA" stroke="#999999" stroke-width="0.5" stroke-miterlimit="10" width="74.6" height="14.11"/>
<text transform="matrix(1 0 0 1 220.1958 175.0452)" fill="#1D1D1B" font-family="'ArialMT'" font-size="8.6616px">Evénements</text>
<text transform="matrix(1 0 0 1 211.519 186.7952)" fill="#1D1D1B" font-family="'ArialMT'" font-size="7px">id</text>
<text transform="matrix(1 0 0 1 211.519 195.1952)" fill="#1D1D1B" font-family="'ArialMT'" font-size="7px">nom</text>
<text transform="matrix(1 0 0 1 211.519 203.5952)" fill="#1D1D1B" font-family="'ArialMT'" font-size="7px">slug</text>
<text transform="matrix(1 0 0 1 211.519 211.9952)" fill="#1D1D1B" font-family="'ArialMT'" font-size="7px">img</text>
<text transform="matrix(1 0 0 1 211.519 220.3952)" fill="#1D1D1B" font-family="'ArialMT'" font-size="7px">description</text>
<text transform="matrix(1 0 0 1 211.519 228.7952)" fill="#1D1D1B" font-family="'ArialMT'" font-size="7px">date_debut</text>
<text transform="matrix(1 0 0 1 211.519 237.1952)" fill="#1D1D1B" font-family="'ArialMT'" font-size="7px">date_fin</text>
<text transform="matrix(1 0 0 1 211.519 245.5952)" fill="#1D1D1B" font-family="'ArialMT'" font-size="7px">nbre_place_max</text>
<rect x="206.97" y="280.42" fill="#FFFFFF" stroke="#999999" stroke-width="0.5" stroke-miterlimit="10" width="74.6" height="50.24"/>
<rect x="206.97" y="280.42" fill="#EAEAEA" stroke="#999999" stroke-width="0.5" stroke-miterlimit="10" width="74.6" height="14.11"/>
<text transform="matrix(1 0 0 1 235.3623 291.1875)" fill="#1D1D1B" font-family="'ArialMT'" font-size="8.6616px">Role</text>
<rect x="12.8" y="280.97" fill="#FFFFFF" stroke="#999999" stroke-width="0.5" stroke-miterlimit="10" width="74.6" height="49.58"/>
<rect x="12.8" y="280.97" fill="#EAEAEA" stroke="#999999" stroke-width="0.5" stroke-miterlimit="10" width="74.6" height="14.11"/>
<text transform="matrix(1 0 0 1 40.2339 291.7305)" fill="#1D1D1B" font-family="'ArialMT'" font-size="8.6616px">Profil</text>
<rect x="307.54" y="162.64" fill="#FFFFFF" stroke="#999999" stroke-width="0.5" stroke-miterlimit="10" width="74.6" height="56.58"/>
<rect x="307.54" y="162.64" fill="#EAEAEA" stroke="#999999" stroke-width="0.5" stroke-miterlimit="10" width="74.6" height="14.11"/>
<text transform="matrix(1 0 0 1 333.7725 173.406)" fill="#1D1D1B" font-family="'ArialMT'" font-size="8.6616px">Slider</text>
<rect x="407.56" y="162.64" fill="#FFFFFF" stroke="#999999" stroke-width="0.5" stroke-miterlimit="10" width="74.6" height="56.58"/>
<rect x="407.56" y="162.64" fill="#EAEAEA" stroke="#999999" stroke-width="0.5" stroke-miterlimit="10" width="74.6" height="14.11"/>
<text transform="matrix(1 0 0 1 425.3662 173.4055)" fill="#1D1D1B" font-family="'ArialMT'" font-size="8.6616px">Prestation</text>
<rect x="415.56" y="284.99" fill="#FFFFFF" stroke="#999999" stroke-width="0.5" stroke-miterlimit="10" width="74.6" height="40.33"/>
<rect x="415.56" y="284.99" fill="#EAEAEA" stroke="#999999" stroke-width="0.5" stroke-miterlimit="10" width="74.6" height="14.11"/>
<text transform="matrix(1 0 0 1 432.4082 295.75)" fill="#1D1D1B" font-family="'ArialMT'" font-size="8.6616px">Newsletter</text>
<rect x="12.8" y="32.19" fill="#FFFFFF" stroke="#999999" stroke-width="0.5" stroke-miterlimit="10" width="74.6" height="140.08"/>
<rect x="12.8" y="32.19" fill="#EAEAEA" stroke="#999999" stroke-width="0.5" stroke-miterlimit="10" width="74.6" height="14.11"/>
<text transform="matrix(1 0 0 1 30.847 42.958)" fill="#1D1D1B" font-family="'ArialMT'" font-size="8.6616px">Utilisateur</text>
<path fill="#FFFFFF" stroke="#999999" stroke-width="0.5" stroke-miterlimit="10" d="M173.85,307.21
	c0,14.09-11.42,25.52-25.52,25.52c-14.09,0-25.52-11.42-25.52-25.52c0-14.09,11.42-25.51,25.52-25.51
	C162.43,281.7,173.85,293.12,173.85,307.21z"/>
<line fill="none" stroke="#999999" stroke-width="0.5" stroke-miterlimit="10" x1="122.82" y1="307.21" x2="173.85" y2="307.21"/>
<text transform="matrix(1 0 0 1 130.9624 301.7549)" fill="#1D1D1B" font-family="'ArialMT'" font-size="8.6616px">posseder</text>
<text transform="matrix(1 0 0 1 185.8056 301.7549)" fill="#1D1D1B" font-family="'ArialMT'" font-size="8.6616px">0,n</text>
<text transform="matrix(1 0 0 1 54.5883 389.2701)" fill="#1D1D1B" font-family="'ArialMT'" font-size="8.6616px">0,n</text>
<text transform="matrix(1 0 0 1 111.2342 179.387)" fill="#1D1D1B" font-family="'ArialMT'" font-size="8.6616px">0,n</text>
<text transform="matrix(1 0 0 1 182.4957 215.6917)" fill="#1D1D1B" font-family="'ArialMT'" font-size="8.6616px">0,n</text>
<text transform="matrix(1 0 0 1 185.8052 389.2701)" fill="#1D1D1B" font-family="'ArialMT'" font-size="8.6616px">0,n</text>
<text transform="matrix(1 0 0 1 314.9163 347.9308)" fill="#1D1D1B" font-family="'ArialMT'" font-size="8.6616px">1,n</text>
<text transform="matrix(1 0 0 1 309.8244 264.5699)" fill="#1D1D1B" font-family="'ArialMT'" font-size="8.6616px">1,n</text>
<text transform="matrix(1 0 0 1 302.9518 301.8362)" fill="#1D1D1B" font-family="'ArialMT'" font-size="8.6616px">1,1</text>
<text transform="matrix(1 0 0 1 390.55 301.8361)" fill="#1D1D1B" font-family="'ArialMT'" font-size="8.6616px">1,n</text>
<text transform="matrix(1 0 0 1 395.8401 258.935)" fill="#1D1D1B" font-family="'ArialMT'" font-size="8.6616px">1,n</text>
<text transform="matrix(1 0 0 1 431.0974 156.7436)" fill="#1D1D1B" font-family="'ArialMT'" font-size="8.6616px">1,1</text>
<line fill="none" stroke="#000000" stroke-width="0.5" stroke-miterlimit="10" x1="444.87" y1="92.86" x2="444.86" y2="69.97"/>
<text transform="matrix(1 0 0 1 431.0974 82.788)" fill="#1D1D1B" font-family="'ArialMT'" font-size="8.6616px">0,n</text>
<text transform="matrix(1 0 0 1 361.0974 250.1703)" fill="#1D1D1B" font-family="'ArialMT'" font-size="8.6616px">1,n</text>
<text transform="matrix(1 0 0 1 99.0908 300.332)" fill="#1D1D1B" font-family="'ArialMT'" font-size="8.6616px">0,n</text>
<text transform="matrix(1 0 0 1 46.7935 188.7174)" fill="#1D1D1B" font-family="'ArialMT'" font-size="8.6616px">1,1</text>
<text transform="matrix(1.0036 0 0 1 46.772 267.651)" fill="#1D1D1B" font-family="'ArialMT'" font-size="8.6616px">0,n</text>
<line fill="none" stroke="#000000" stroke-width="0.5" stroke-miterlimit="10" x1="87.4" y1="307.21" x2="122.82" y2="307.21"/>
<line fill="none" stroke="#000000" stroke-width="0.5" stroke-miterlimit="10" x1="173.85" y1="307.21" x2="206.97" y2="307.21"/>
<path fill="#FFFFFF" stroke="#999999" stroke-width="0.5" stroke-miterlimit="10" d="M382.51,305.15
	c0,14.09-11.42,25.51-25.52,25.52c-14.09,0-25.51-11.43-25.51-25.52s11.42-25.51,25.51-25.52
	C371.09,279.64,382.51,291.06,382.51,305.15z"/>
<line fill="none" stroke="#999999" stroke-width="0.5" stroke-miterlimit="10" x1="331.48" y1="305.15" x2="382.51" y2="305.15"/>
<text transform="matrix(1 0 0 1 345.7344 299.5801)" fill="#1D1D1B" font-family="'ArialMT'" font-size="8.6616px">gérer</text>
<path fill="#FFFFFF" stroke="#999999" stroke-width="0.5" stroke-miterlimit="10" d="M71.38,226.62c0,14.09-11.42,25.52-25.51,25.52
	s-25.52-11.42-25.52-25.52c0-14.09,11.42-25.51,25.52-25.51C59.96,201.1,71.38,212.53,71.38,226.62z"/>
<line fill="none" stroke="#999999" stroke-width="0.5" stroke-miterlimit="10" x1="20.35" y1="226.62" x2="71.38" y2="226.62"/>
<text transform="matrix(1 0 0 1 35.3254 221.1577)" fill="#1D1D1B" font-family="'ArialMT'" font-size="8.6616px">avoir</text>
<path fill="#FFFFFF" stroke="#999999" stroke-width="0.5" stroke-miterlimit="10" d="M171.84,219.49
	c0,14.09-11.42,25.51-25.52,25.51c-14.09,0-25.52-11.42-25.52-25.51s11.42-25.52,25.52-25.52
	C160.41,193.97,171.84,205.4,171.84,219.49z"/>
<line fill="none" stroke="#999999" stroke-width="0.5" stroke-miterlimit="10" x1="120.81" y1="219.49" x2="171.84" y2="219.49"/>
<text transform="matrix(1 0 0 1 131.2202 214.0293)" fill="#1D1D1B" font-family="'ArialMT'" font-size="8.6616px">inscrire</text>
<text transform="matrix(1 0 0 1 17.8841 56.0195)" fill="#1D1D1B" font-family="'ArialMT'" font-size="7px">id</text>
<text transform="matrix(1 0 0 1 17.8841 64.4195)" fill="#1D1D1B" font-family="'ArialMT'" font-size="7px">pseudo</text>
<text transform="matrix(1 0 0 1 17.8841 72.8195)" fill="#1D1D1B" font-family="'ArialMT'" font-size="7px">pwd</text>
<text transform="matrix(1 0 0 1 17.8841 81.2195)" fill="#1D1D1B" font-family="'ArialMT'" font-size="7px">date_inscription</text>
<text transform="matrix(1 0 0 1 17.8841 89.6195)" fill="#1D1D1B" font-family="'ArialMT'" font-size="7px">nom</text>
<text transform="matrix(1 0 0 1 17.8841 98.0195)" fill="#1D1D1B" font-family="'ArialMT'" font-size="7px">prenom</text>
<text transform="matrix(1 0 0 1 17.8841 106.4195)" fill="#1D1D1B" font-family="'ArialMT'" font-size="7px">age</text>
<text transform="matrix(1 0 0 1 17.8841 114.8195)" fill="#1D1D1B" font-family="'ArialMT'" font-size="7px">sexe</text>
<text transform="matrix(1 0 0 1 17.8841 123.2195)" fill="#1D1D1B" font-family="'ArialMT'" font-size="7px">email</text>
<text transform="matrix(1 0 0 1 17.8841 131.6195)" fill="#1D1D1B" font-family="'ArialMT'" font-size="7px">tel_fixe</text>
<text transform="matrix(1 0 0 1 17.8841 140.0195)" fill="#1D1D1B" font-family="'ArialMT'" font-size="7px">tel_mobile</text>
<text transform="matrix(1 0 0 1 17.8841 148.4195)" fill="#1D1D1B" font-family="'ArialMT'" font-size="7px">adresse</text>
<text transform="matrix(1 0 0 1 17.8841 156.8195)" fill="#1D1D1B" font-family="'ArialMT'" font-size="7px">cp</text>
<text transform="matrix(1 0 0 1 17.8841 165.2195)" fill="#1D1D1B" font-family="'ArialMT'" font-size="7px">ville</text>
<text transform="matrix(1 0 0 1 211.519 304.249)" fill="#1D1D1B" font-family="'ArialMT'" font-size="7px">id</text>
<text transform="matrix(1 0 0 1 211.519 312.649)" fill="#1D1D1B" font-family="'ArialMT'" font-size="7px">libelle</text>
<text transform="matrix(1 0 0 1 211.519 321.049)" fill="#1D1D1B" font-family="'ArialMT'" font-size="7px">description</text>
<text transform="matrix(1 0 0 1 211.519 380.8705)" fill="#1D1D1B" font-family="'ArialMT'" font-size="7px">id</text>
<text transform="matrix(1 0 0 1 211.519 389.2705)" fill="#1D1D1B" font-family="'ArialMT'" font-size="7px">libelle</text>
<text transform="matrix(1 0 0 1 211.519 397.6705)" fill="#1D1D1B" font-family="'ArialMT'" font-size="7px">slug</text>
<text transform="matrix(1 0 0 1 211.519 406.0705)" fill="#1D1D1B" font-family="'ArialMT'" font-size="7px">src</text>
<text transform="matrix(1 0 0 1 211.519 414.4705)" fill="#1D1D1B" font-family="'ArialMT'" font-size="7px">description</text>
<text transform="matrix(1 0 0 1 211.519 422.8705)" fill="#1D1D1B" font-family="'ArialMT'" font-size="7px">auteur</text>
<text transform="matrix(1 0 0 1 211.519 431.2705)" fill="#1D1D1B" font-family="'ArialMT'" font-size="7px">date_publication</text>
<text transform="matrix(1 0 0 1 16.519 304.792)" fill="#1D1D1B" font-family="'ArialMT'" font-size="7px">id</text>
<text transform="matrix(1 0 0 1 16.519 313.192)" fill="#1D1D1B" font-family="'ArialMT'" font-size="7px">libelle</text>
<text transform="matrix(1 0 0 1 16.519 321.592)" fill="#1D1D1B" font-family="'ArialMT'" font-size="7px">description</text>
<text transform="matrix(1 0 0 1 311.019 187.0671)" fill="#1D1D1B" font-family="'ArialMT'" font-size="7px">id</text>
<text transform="matrix(1 0 0 1 311.019 195.4671)" fill="#1D1D1B" font-family="'ArialMT'" font-size="7px">bg_img</text>
<text transform="matrix(1 0 0 1 311.019 203.8671)" fill="#1D1D1B" font-family="'ArialMT'" font-size="7px">banner_text</text>
<text transform="matrix(1 0 0 1 409.879 43.7633)" fill="#1D1D1B" font-family="'ArialMT'" font-size="7px">id</text>
<text transform="matrix(1 0 0 1 409.879 52.1633)" fill="#1D1D1B" font-family="'ArialMT'" font-size="7px">libelle</text>
<text transform="matrix(1 0 0 1 409.879 60.5633)" fill="#1D1D1B" font-family="'ArialMT'" font-size="7px">description</text>
<text transform="matrix(1 0 0 1 411.6636 187.0671)" fill="#1D1D1B" font-family="'ArialMT'" font-size="7px">id</text>
<text transform="matrix(1 0 0 1 411.6636 195.4671)" fill="#1D1D1B" font-family="'ArialMT'" font-size="7px">nom</text>
<text transform="matrix(1 0 0 1 411.6636 203.8671)" fill="#1D1D1B" font-family="'ArialMT'" font-size="7px">description</text>
<text transform="matrix(1 0 0 1 411.6636 212.2671)" fill="#1D1D1B" font-family="'ArialMT'" font-size="7px">tarif</text>
<text transform="matrix(1 0 0 1 419.6636 308.5366)" fill="#1D1D1B" font-family="'ArialMT'" font-size="7px">id</text>
<text transform="matrix(1 0 0 1 419.6636 316.9366)" fill="#1D1D1B" font-family="'ArialMT'" font-size="7px">mail</text>
<polyline fill="none" stroke="#000000" stroke-width="0.5" stroke-miterlimit="10" points="12.8,150.36 7.45,150.36 7.45,393.27 
	120.53,393.27 "/>
</svg>
