<?xml version="1.0" standalone="no"?>
<!DOCTYPE svg PUBLIC "-//W3C//DTD SVG 1.1//EN"
"http://www.w3.org/Graphics/SVG/1.1/DTD/svg11.dtd">

<svg width="1080" height="585" view_box="0 0 1080 585"
xmlns="http://www.w3.org/2000/svg"
xmlns:link="http://www.w3.org/1999/xlink">\n\n<desc>Généré par Mocodo 2.3.7 le Tue, 07 Jan 2020 04:42:44</desc>

<rect id="frame" x="0" y="0" width="1080" height="585" fill="#ffffff" stroke="none" stroke-width="0"/>

<!-- Association ADMINISTRER -->
<line x1="188" y1="424" x2="330" y2="424" stroke="#878787" stroke-width="2"/>
<text x="252" y="441.0" fill="#b2182b" font-family="Verdana" font-size="12">1,N</text>
<line x1="474" y1="424" x2="330" y2="424" stroke="#878787" stroke-width="2"/>
<text x="386" y="441.0" fill="#b2182b" font-family="Verdana" font-size="12">1,N</text>
<g id="association-ADMINISTRER">
	<path d="M 367 399 a 14 14 90 0 1 14 14 V 424 h -102 V 413 a 14 14 90 0 1 14 -14" fill="#bababa" stroke="#bababa" stroke-width="0"/>
	<path d="M 381 424.0 v 11 a 14 14 90 0 1 -14 14 H 293 a 14 14 90 0 1 -14 -14 V 424.0 H 102" fill="#e0e0e0" stroke="#e0e0e0" stroke-width="0"/>
	<rect x="279" y="399" width="102" height="50" fill="none" rx="14" stroke="#878787" stroke-width="2"/>
	<line x1="279" y1="424" x2="381" y2="424" stroke="#878787" stroke-width="1"/>
	<text x="286" y="416.7" fill="#000000" font-family="Verdana" font-size="12">ADMINISTRER</text>
	<text x="286" y="441.8" fill="#000000" font-family="Verdana" font-size="12">événement</text>
</g>

<!-- Association GERER-PRESTATION -->
<line x1="474" y1="424" x2="637" y2="424" stroke="#878787" stroke-width="2"/>
<text x="540" y="441.0" fill="#b2182b" font-family="Verdana" font-size="12">1,N</text>
<line x1="784" y1="424" x2="637" y2="424" stroke="#878787" stroke-width="2"/>
<text x="712" y="441.0" fill="#b2182b" font-family="Verdana" font-size="12">1,N</text>
<g id="association-GERER-PRESTATION">
	<path d="M 693 399 a 14 14 90 0 1 14 14 V 424 h -140 V 413 a 14 14 90 0 1 14 -14" fill="#bababa" stroke="#bababa" stroke-width="0"/>
	<path d="M 707 424.0 v 11 a 14 14 90 0 1 -14 14 H 581 a 14 14 90 0 1 -14 -14 V 424.0 H 140" fill="#e0e0e0" stroke="#e0e0e0" stroke-width="0"/>
	<rect x="567" y="399" width="140" height="50" fill="none" rx="14" stroke="#878787" stroke-width="2"/>
	<line x1="567" y1="424" x2="707" y2="424" stroke="#878787" stroke-width="1"/>
	<text x="574" y="416.7" fill="#000000" font-family="Verdana" font-size="12">GERER-PRESTATION</text>
	<text x="574" y="441.8" fill="#000000" font-family="Verdana" font-size="12">prestation</text>
</g>

<!-- Association AJOUTER -->
<line x1="330" y1="145" x2="474" y2="145" stroke="#878787" stroke-width="2"/>
<text x="389" y="137.0" fill="#b2182b" font-family="Verdana" font-size="12">1,N</text>
<line x1="637" y1="145" x2="474" y2="145" stroke="#878787" stroke-width="2"/>
<text x="571" y="162.0" fill="#b2182b" font-family="Verdana" font-size="12">1,N</text>
<g id="association-AJOUTER">
	<path d="M 495 120 a 14 14 90 0 1 14 14 V 145 h -70 V 134 a 14 14 90 0 1 14 -14" fill="#bababa" stroke="#bababa" stroke-width="0"/>
	<path d="M 509 145.0 v 11 a 14 14 90 0 1 -14 14 H 453 a 14 14 90 0 1 -14 -14 V 145.0 H 70" fill="#e0e0e0" stroke="#e0e0e0" stroke-width="0"/>
	<rect x="439" y="120" width="70" height="50" fill="none" rx="14" stroke="#878787" stroke-width="2"/>
	<line x1="439" y1="145" x2="509" y2="145" stroke="#878787" stroke-width="1"/>
	<text x="446" y="137.7" fill="#000000" font-family="Verdana" font-size="12">AJOUTER</text>
	<text x="446" y="162.8" fill="#000000" font-family="Verdana" font-size="12">galerie</text>
</g>

<!-- Association PEUT -->
<line x1="330" y1="145" x2="474" y2="306" stroke="#878787" stroke-width="2"/>
<text x="389" y="203.889492075" fill="#b2182b" font-family="Verdana" font-size="12">1,N</text>
<line x1="474" y1="424" x2="474" y2="306" stroke="#878787" stroke-width="2"/>
<text x="447.0" y="357" fill="#b2182b" font-family="Verdana" font-size="12">1,N</text>
<g id="association-PEUT">
	<path d="M 483 281 a 14 14 90 0 1 14 14 V 306 h -46 V 295 a 14 14 90 0 1 14 -14" fill="#bababa" stroke="#bababa" stroke-width="0"/>
	<path d="M 497 306.0 v 11 a 14 14 90 0 1 -14 14 H 465 a 14 14 90 0 1 -14 -14 V 306.0 H 46" fill="#e0e0e0" stroke="#e0e0e0" stroke-width="0"/>
	<rect x="451" y="281" width="46" height="50" fill="none" rx="14" stroke="#878787" stroke-width="2"/>
	<line x1="451" y1="306" x2="497" y2="306" stroke="#878787" stroke-width="1"/>
	<text x="458" y="298.7" fill="#000000" font-family="Verdana" font-size="12">PEUT</text>
	<text x="458" y="323.8" fill="#000000" font-family="Verdana" font-size="12">droit</text>
</g>

<!-- Association GERER-SLIDER -->
<line x1="474" y1="424" x2="915" y2="424" stroke="#878787" stroke-width="2"/>
<text x="540" y="441.0" fill="#b2182b" font-family="Verdana" font-size="12">1,N</text>
<line x1="1036" y1="424" x2="915" y2="424" stroke="#878787" stroke-width="2"/>
<text x="974" y="441.0" fill="#b2182b" font-family="Verdana" font-size="12">1,N</text>
<g id="association-GERER-SLIDER">
	<path d="M 955 399 a 14 14 90 0 1 14 14 V 424 h -108 V 413 a 14 14 90 0 1 14 -14" fill="#bababa" stroke="#bababa" stroke-width="0"/>
	<path d="M 969 424.0 v 11 a 14 14 90 0 1 -14 14 H 875 a 14 14 90 0 1 -14 -14 V 424.0 H 108" fill="#e0e0e0" stroke="#e0e0e0" stroke-width="0"/>
	<rect x="861" y="399" width="108" height="50" fill="none" rx="14" stroke="#878787" stroke-width="2"/>
	<line x1="861" y1="424" x2="969" y2="424" stroke="#878787" stroke-width="1"/>
	<text x="868" y="416.7" fill="#000000" font-family="Verdana" font-size="12">GERER-SLIDER</text>
	<text x="868" y="441.8" fill="#000000" font-family="Verdana" font-size="12">slider</text>
</g>

<!-- Association SOUSCRIRE -->
<line x1="330" y1="145" x2="53" y2="424" stroke="#878787" stroke-width="2"/>
<text x="249" y="198.424921051" fill="#b2182b" font-family="Verdana" font-size="12">1,N</text>
<line x1="188" y1="424" x2="53" y2="424" stroke="#878787" stroke-width="2"/>
<text x="102" y="441.0" fill="#b2182b" font-family="Verdana" font-size="12">1,N</text>
<g id="association-SOUSCRIRE">
	<path d="M 83 399 a 14 14 90 0 1 14 14 V 424 h -88 V 413 a 14 14 90 0 1 14 -14" fill="#bababa" stroke="#bababa" stroke-width="0"/>
	<path d="M 97 424.0 v 11 a 14 14 90 0 1 -14 14 H 23 a 14 14 90 0 1 -14 -14 V 424.0 H 88" fill="#e0e0e0" stroke="#e0e0e0" stroke-width="0"/>
	<rect x="9" y="399" width="88" height="50" fill="none" rx="14" stroke="#878787" stroke-width="2"/>
	<line x1="9" y1="424" x2="97" y2="424" stroke="#878787" stroke-width="1"/>
	<text x="16" y="416.7" fill="#000000" font-family="Verdana" font-size="12">SOUSCRIRE</text>
	<text x="16" y="441.8" fill="#000000" font-family="Verdana" font-size="12">événement</text>
</g>

<!-- Association NEWSLETTER -->
<line x1="474" y1="424" x2="474" y2="542" stroke="#878787" stroke-width="2"/>
<text x="479.0" y="500" fill="#b2182b" font-family="Verdana" font-size="12">1,N</text>
<g id="association-NEWSLETTER">
	<path d="M 509 508 a 14 14 90 0 1 14 14 V 533 h -98 V 522 a 14 14 90 0 1 14 -14" fill="#bababa" stroke="#bababa" stroke-width="0"/>
	<path d="M 523 533.0 v 29 a 14 14 90 0 1 -14 14 H 439 a 14 14 90 0 1 -14 -14 V 533.0 H 98" fill="#e0e0e0" stroke="#e0e0e0" stroke-width="0"/>
	<rect x="425" y="508" width="98" height="68" fill="none" rx="14" stroke="#878787" stroke-width="2"/>
	<line x1="425" y1="533" x2="523" y2="533" stroke="#878787" stroke-width="1"/>
	<text x="432" y="525.7" fill="#000000" font-family="Verdana" font-size="12">NEWSLETTER</text>
	<text x="432" y="550.8" fill="#000000" font-family="Verdana" font-size="12">id</text>
	<text x="432" y="567.8" fill="#000000" font-family="Verdana" font-size="12">mail</text>
</g>

<!-- Association GERER -->
<line x1="637" y1="145" x2="784" y2="145" stroke="#878787" stroke-width="2"/>
<text x="681" y="162.0" fill="#b2182b" font-family="Verdana" font-size="12">1,N</text>
<path d="M474 424 C 446.581952118 394.876243094 549.915285451 301.876243094 784 145" fill="none" stroke="#878787" stroke-width="2"/>
<text x="521.454583291" y="357" fill="#b2182b" font-family="Verdana" font-size="12">1,N</text>
<g id="association-GERER">
	<path d="M 798 120 a 14 14 90 0 1 14 14 V 145 h -56 V 134 a 14 14 90 0 1 14 -14" fill="#bababa" stroke="#bababa" stroke-width="0"/>
	<path d="M 812 145.0 v 11 a 14 14 90 0 1 -14 14 H 770 a 14 14 90 0 1 -14 -14 V 145.0 H 56" fill="#e0e0e0" stroke="#e0e0e0" stroke-width="0"/>
	<rect x="756" y="120" width="56" height="50" fill="none" rx="14" stroke="#878787" stroke-width="2"/>
	<line x1="756" y1="145" x2="812" y2="145" stroke="#878787" stroke-width="1"/>
	<text x="763" y="137.7" fill="#000000" font-family="Verdana" font-size="12">GERER</text>
	<text x="763" y="162.8" fill="#000000" font-family="Verdana" font-size="12">droit</text>
</g>

<!-- Entity UTILISATEUR -->
<g id="entity-UTILISATEUR">
	<g id="frame-UTILISATEUR">
		<rect x="276" y="9" width="108" height="25" fill="#f4a582" stroke="#f4a582" stroke-width="0"/>
		<rect x="276" y="34.0" width="108" height="247" fill="#fddbc7" stroke="#fddbc7" stroke-width="0"/>
		<rect x="276" y="9" width="108" height="272" fill="none" stroke="#d6604d" stroke-width="2"/>
		<line x1="276" y1="34" x2="384" y2="34" stroke="#d6604d" stroke-width="1"/>
	</g>
	<text x="288" y="26.7" fill="#000000" font-family="Verdana" font-size="12">UTILISATEUR</text>
	<text x="281" y="51.7" fill="#000000" font-family="Verdana" font-size="12">id</text>
	<line x1="281" y1="54" x2="293" y2="54" stroke="#000000" stroke-width="1"/>
	<text x="281" y="68.7" fill="#000000" font-family="Verdana" font-size="12">pseudo</text>
	<text x="281" y="85.7" fill="#000000" font-family="Verdana" font-size="12">mdp</text>
	<text x="281" y="102.7" fill="#000000" font-family="Verdana" font-size="12">date_inscription</text>
	<text x="281" y="119.7" fill="#000000" font-family="Verdana" font-size="12">nom</text>
	<text x="281" y="136.7" fill="#000000" font-family="Verdana" font-size="12">prenom</text>
	<text x="281" y="153.8" fill="#000000" font-family="Verdana" font-size="12">age</text>
	<text x="281" y="170.8" fill="#000000" font-family="Verdana" font-size="12">sexe</text>
	<text x="281" y="187.8" fill="#000000" font-family="Verdana" font-size="12">email</text>
	<text x="281" y="204.8" fill="#000000" font-family="Verdana" font-size="12">tel_fixe</text>
	<text x="281" y="221.8" fill="#000000" font-family="Verdana" font-size="12">tel_mobile</text>
	<text x="281" y="238.8" fill="#000000" font-family="Verdana" font-size="12">adresse</text>
	<text x="281" y="255.8" fill="#000000" font-family="Verdana" font-size="12">cp</text>
	<text x="281" y="272.8" fill="#000000" font-family="Verdana" font-size="12">ville</text>
</g>

<!-- Entity GALERIE -->
<g id="entity-GALERIE">
	<g id="frame-GALERIE">
		<rect x="598" y="69" width="78" height="25" fill="#f4a582" stroke="#f4a582" stroke-width="0"/>
		<rect x="598" y="94.0" width="78" height="127" fill="#fddbc7" stroke="#fddbc7" stroke-width="0"/>
		<rect x="598" y="69" width="78" height="152" fill="none" stroke="#d6604d" stroke-width="2"/>
		<line x1="598" y1="94" x2="676" y2="94" stroke="#d6604d" stroke-width="1"/>
	</g>
	<text x="610" y="86.7" fill="#000000" font-family="Verdana" font-size="12">GALERIE</text>
	<text x="603" y="111.7" fill="#000000" font-family="Verdana" font-size="12">id</text>
	<line x1="603" y1="114" x2="615" y2="114" stroke="#000000" stroke-width="1"/>
	<text x="603" y="128.7" fill="#000000" font-family="Verdana" font-size="12">libelle</text>
	<text x="603" y="145.8" fill="#000000" font-family="Verdana" font-size="12">slug</text>
	<text x="603" y="162.8" fill="#000000" font-family="Verdana" font-size="12">src</text>
	<text x="603" y="179.8" fill="#000000" font-family="Verdana" font-size="12">description</text>
	<text x="603" y="196.8" fill="#000000" font-family="Verdana" font-size="12">auteur</text>
	<text x="603" y="213.8" fill="#000000" font-family="Verdana" font-size="12">date_publi</text>
</g>

<!-- Entity EVENEMENT -->
<g id="entity-EVENEMENT">
	<g id="frame-EVENEMENT">
		<rect x="129" y="331" width="118" height="25" fill="#f4a582" stroke="#f4a582" stroke-width="0"/>
		<rect x="129" y="356.0" width="118" height="161" fill="#fddbc7" stroke="#fddbc7" stroke-width="0"/>
		<rect x="129" y="331" width="118" height="186" fill="none" stroke="#d6604d" stroke-width="2"/>
		<line x1="129" y1="356" x2="247" y2="356" stroke="#d6604d" stroke-width="1"/>
	</g>
	<text x="150" y="348.7" fill="#000000" font-family="Verdana" font-size="12">EVENEMENT</text>
	<text x="134" y="373.7" fill="#000000" font-family="Verdana" font-size="12">id</text>
	<line x1="134" y1="376" x2="146" y2="376" stroke="#000000" stroke-width="1"/>
	<text x="134" y="390.7" fill="#000000" font-family="Verdana" font-size="12">nom</text>
	<text x="134" y="407.7" fill="#000000" font-family="Verdana" font-size="12">slug</text>
	<text x="134" y="424.8" fill="#000000" font-family="Verdana" font-size="12">image</text>
	<text x="134" y="441.8" fill="#000000" font-family="Verdana" font-size="12">description</text>
	<text x="134" y="458.8" fill="#000000" font-family="Verdana" font-size="12">date_debut</text>
	<text x="134" y="475.8" fill="#000000" font-family="Verdana" font-size="12">date_fin</text>
	<text x="134" y="492.8" fill="#000000" font-family="Verdana" font-size="12">nbre_place_max</text>
	<text x="134" y="509.8" fill="#000000" font-family="Verdana" font-size="12">nbre_place_dispo</text>
</g>

<!-- Entity ADMINISTRATEUR -->
<g id="entity-ADMINISTRATEUR">
	<g id="frame-ADMINISTRATEUR">
		<rect x="413" y="365" width="122" height="25" fill="#f4a582" stroke="#f4a582" stroke-width="0"/>
		<rect x="413" y="390.0" width="122" height="93" fill="#fddbc7" stroke="#fddbc7" stroke-width="0"/>
		<rect x="413" y="365" width="122" height="118" fill="none" stroke="#d6604d" stroke-width="2"/>
		<line x1="413" y1="390" x2="535" y2="390" stroke="#d6604d" stroke-width="1"/>
	</g>
	<text x="418" y="382.7" fill="#000000" font-family="Verdana" font-size="12">ADMINISTRATEUR</text>
	<text x="418" y="407.7" fill="#000000" font-family="Verdana" font-size="12">id</text>
	<line x1="418" y1="410" x2="430" y2="410" stroke="#000000" stroke-width="1"/>
	<text x="418" y="424.8" fill="#000000" font-family="Verdana" font-size="12">libelle</text>
	<text x="418" y="441.8" fill="#000000" font-family="Verdana" font-size="12">administer</text>
	<text x="418" y="458.8" fill="#000000" font-family="Verdana" font-size="12">publier</text>
	<text x="418" y="475.8" fill="#000000" font-family="Verdana" font-size="12">moderer</text>
</g>

<!-- Entity SLIDER -->
<g id="entity-SLIDER">
	<g id="frame-SLIDER">
		<rect x="1001" y="382" width="70" height="25" fill="#f4a582" stroke="#f4a582" stroke-width="0"/>
		<rect x="1001" y="407.0" width="70" height="59" fill="#fddbc7" stroke="#fddbc7" stroke-width="0"/>
		<rect x="1001" y="382" width="70" height="84" fill="none" stroke="#d6604d" stroke-width="2"/>
		<line x1="1001" y1="407" x2="1071" y2="407" stroke="#d6604d" stroke-width="1"/>
	</g>
	<text x="1013" y="399.7" fill="#000000" font-family="Verdana" font-size="12">SLIDER</text>
	<text x="1006" y="424.8" fill="#000000" font-family="Verdana" font-size="12">id</text>
	<line x1="1006" y1="427" x2="1018" y2="427" stroke="#000000" stroke-width="1"/>
	<text x="1006" y="441.8" fill="#000000" font-family="Verdana" font-size="12">bg_image</text>
	<text x="1006" y="458.8" fill="#000000" font-family="Verdana" font-size="12">text</text>
</g>

<!-- Entity PRESTATION -->
<g id="entity-PRESTATION">
	<g id="frame-PRESTATION">
		<rect x="739" y="365" width="90" height="25" fill="#f4a582" stroke="#f4a582" stroke-width="0"/>
		<rect x="739" y="390.0" width="90" height="93" fill="#fddbc7" stroke="#fddbc7" stroke-width="0"/>
		<rect x="739" y="365" width="90" height="118" fill="none" stroke="#d6604d" stroke-width="2"/>
		<line x1="739" y1="390" x2="829" y2="390" stroke="#d6604d" stroke-width="1"/>
	</g>
	<text x="744" y="382.7" fill="#000000" font-family="Verdana" font-size="12">PRESTATION</text>
	<text x="744" y="407.7" fill="#000000" font-family="Verdana" font-size="12">id</text>
	<line x1="744" y1="410" x2="756" y2="410" stroke="#000000" stroke-width="1"/>
	<text x="744" y="424.8" fill="#000000" font-family="Verdana" font-size="12">nom</text>
	<text x="744" y="441.8" fill="#000000" font-family="Verdana" font-size="12">type</text>
	<text x="744" y="458.8" fill="#000000" font-family="Verdana" font-size="12">description</text>
	<text x="744" y="475.8" fill="#000000" font-family="Verdana" font-size="12">tarif</text>
</g>
</svg>