<?xml version="1.0" standalone="no"?>
<!DOCTYPE svg PUBLIC "-//W3C//DTD SVG 1.1//EN"
"http://www.w3.org/Graphics/SVG/1.1/DTD/svg11.dtd">

<svg width="652" height="786" view_box="0 0 652 786"
xmlns="http://www.w3.org/2000/svg"
xmlns:link="http://www.w3.org/1999/xlink">\n\n<desc>Généré par Mocodo 2.3.7 le Wed, 08 Jan 2020 05:26:56</desc>

<rect id="frame" x="0" y="0" width="652" height="786" fill="#f7f7f7" stroke="none" stroke-width="0"/>

<!-- Association ADMINISTRER -->
<line x1="282" y1="252" x2="282" y2="143" stroke="#4393c3" stroke-width="2"/>
<text x="287.0" y="227" fill="#b2182b" font-family="Verdana" font-size="12">1,N</text>
<line x1="282" y1="51" x2="282" y2="143" stroke="#4393c3" stroke-width="2"/>
<text x="287.0" y="110" fill="#b2182b" font-family="Verdana" font-size="12">0,N</text>
<line x1="154" y1="143" x2="282" y2="143" stroke="#4393c3" stroke-width="2"/>
<text x="204" y="160.0" fill="#b2182b" font-family="Verdana" font-size="12">0,N</text>
<line x1="414" y1="143" x2="282" y2="143" stroke="#4393c3" stroke-width="2"/>
<text x="340" y="160.0" fill="#b2182b" font-family="Verdana" font-size="12">0,N</text>
<g id="association-ADMINISTRER">
	<path d="M 319 118 a 14 14 90 0 1 14 14 V 143 h -102 V 132 a 14 14 90 0 1 14 -14" fill="#92c5de" stroke="#92c5de" stroke-width="0"/>
	<path d="M 333 143.0 v 11 a 14 14 90 0 1 -14 14 H 245 a 14 14 90 0 1 -14 -14 V 143.0 H 102" fill="#d1e5f0" stroke="#d1e5f0" stroke-width="0"/>
	<rect x="231" y="118" width="102" height="50" fill="none" rx="14" stroke="#4393c3" stroke-width="2"/>
	<line x1="231" y1="143" x2="333" y2="143" stroke="#4393c3" stroke-width="1"/>
	<text x="238" y="135.7" fill="#000000" font-family="Verdana" font-size="12">ADMINISTRER</text>
</g>

<!-- Association PUBLIER -->
<line x1="282" y1="252" x2="43" y2="143" stroke="#4393c3" stroke-width="2"/>
<text x="227" y="252.658523611" fill="#b2182b" font-family="Verdana" font-size="12">0,N</text>
<line x1="414" y1="684" x2="43" y2="143" stroke="#4393c3" stroke-width="2"/>
<text x="329" y="609.726413157" fill="#b2182b" font-family="Verdana" font-size="12">1,1</text>
<g id="association-PUBLIER">
	<path d="M 63 118 a 14 14 90 0 1 14 14 V 143 h -68 V 132 a 14 14 90 0 1 14 -14" fill="#92c5de" stroke="#92c5de" stroke-width="0"/>
	<path d="M 77 143.0 v 11 a 14 14 90 0 1 -14 14 H 23 a 14 14 90 0 1 -14 -14 V 143.0 H 68" fill="#d1e5f0" stroke="#d1e5f0" stroke-width="0"/>
	<rect x="9" y="118" width="68" height="50" fill="none" rx="14" stroke="#4393c3" stroke-width="2"/>
	<line x1="9" y1="143" x2="77" y2="143" stroke="#4393c3" stroke-width="1"/>
	<text x="16" y="135.7" fill="#000000" font-family="Verdana" font-size="12">PUBLIER</text>
</g>

<!-- Association MODERER -->
<line x1="282" y1="252" x2="154" y2="252" stroke="#4393c3" stroke-width="2"/>
<text x="227" y="269.0" fill="#b2182b" font-family="Verdana" font-size="12">0,N</text>
<line x1="154" y1="684" x2="154" y2="252" stroke="#4393c3" stroke-width="2"/>
<text x="127.0" y="600" fill="#b2182b" font-family="Verdana" font-size="12">1,N</text>
<g id="association-MODERER">
	<path d="M 178 227 a 14 14 90 0 1 14 14 V 252 h -76 V 241 a 14 14 90 0 1 14 -14" fill="#92c5de" stroke="#92c5de" stroke-width="0"/>
	<path d="M 192 252.0 v 11 a 14 14 90 0 1 -14 14 H 130 a 14 14 90 0 1 -14 -14 V 252.0 H 76" fill="#d1e5f0" stroke="#d1e5f0" stroke-width="0"/>
	<rect x="116" y="227" width="76" height="50" fill="none" rx="14" stroke="#4393c3" stroke-width="2"/>
	<line x1="116" y1="252" x2="192" y2="252" stroke="#4393c3" stroke-width="1"/>
	<text x="123" y="244.7" fill="#000000" font-family="Verdana" font-size="12">MODERER</text>
</g>

<!-- Association POSSEDE -->
<line x1="621" y1="143" x2="530" y2="143" stroke="#4393c3" stroke-width="2"/>
<text x="572" y="160.0" fill="#b2182b" font-family="Verdana" font-size="12">0,N</text>
<line x1="282" y1="252" x2="530" y2="143" stroke="#4393c3" stroke-width="2"/>
<text x="315" y="253.250754813" fill="#b2182b" font-family="Verdana" font-size="12">0,N</text>
<g id="association-POSSEDE">
	<path d="M 553 118 a 14 14 90 0 1 14 14 V 143 h -74 V 132 a 14 14 90 0 1 14 -14" fill="#92c5de" stroke="#92c5de" stroke-width="0"/>
	<path d="M 567 143.0 v 11 a 14 14 90 0 1 -14 14 H 507 a 14 14 90 0 1 -14 -14 V 143.0 H 74" fill="#d1e5f0" stroke="#d1e5f0" stroke-width="0"/>
	<rect x="493" y="118" width="74" height="50" fill="none" rx="14" stroke="#4393c3" stroke-width="2"/>
	<line x1="493" y1="143" x2="567" y2="143" stroke="#4393c3" stroke-width="1"/>
	<text x="500" y="135.7" fill="#000000" font-family="Verdana" font-size="12">POSSEDE</text>
</g>

<!-- Association AJOUTER -->
<line x1="282" y1="252" x2="414" y2="252" stroke="#4393c3" stroke-width="2"/>
<text x="315" y="269.0" fill="#b2182b" font-family="Verdana" font-size="12">1,N</text>
<line x1="154" y1="684" x2="414" y2="252" stroke="#4393c3" stroke-width="2"/>
<text x="198" y="631.541131667" fill="#b2182b" font-family="Verdana" font-size="12">0,N</text>
<g id="association-AJOUTER">
	<path d="M 435 227 a 14 14 90 0 1 14 14 V 252 h -70 V 241 a 14 14 90 0 1 14 -14" fill="#92c5de" stroke="#92c5de" stroke-width="0"/>
	<path d="M 449 252.0 v 11 a 14 14 90 0 1 -14 14 H 393 a 14 14 90 0 1 -14 -14 V 252.0 H 70" fill="#d1e5f0" stroke="#d1e5f0" stroke-width="0"/>
	<rect x="379" y="227" width="70" height="50" fill="none" rx="14" stroke="#4393c3" stroke-width="2"/>
	<line x1="379" y1="252" x2="449" y2="252" stroke="#4393c3" stroke-width="1"/>
	<text x="386" y="244.7" fill="#000000" font-family="Verdana" font-size="12">AJOUTER</text>
	<text x="386" y="269.8" fill="#000000" font-family="Verdana" font-size="12">galerie</text>
</g>

<!-- Association AVOIR -->
<line x1="282" y1="252" x2="414" y2="430" stroke="#4393c3" stroke-width="2"/>
<text x="273.209956234" y="286" fill="#b2182b" font-family="Verdana" font-size="12">0,N</text>
<line x1="282" y1="430" x2="414" y2="430" stroke="#4393c3" stroke-width="2"/>
<text x="341" y="447.0" fill="#b2182b" font-family="Verdana" font-size="12">1,1</text>
<g id="association-AVOIR">
	<path d="M 427 405 a 14 14 90 0 1 14 14 V 430 h -54 V 419 a 14 14 90 0 1 14 -14" fill="#92c5de" stroke="#92c5de" stroke-width="0"/>
	<path d="M 441 430.0 v 11 a 14 14 90 0 1 -14 14 H 401 a 14 14 90 0 1 -14 -14 V 430.0 H 54" fill="#d1e5f0" stroke="#d1e5f0" stroke-width="0"/>
	<rect x="387" y="405" width="54" height="50" fill="none" rx="14" stroke="#4393c3" stroke-width="2"/>
	<line x1="387" y1="430" x2="441" y2="430" stroke="#4393c3" stroke-width="1"/>
	<text x="394" y="422.7" fill="#000000" font-family="Verdana" font-size="12">AVOIR</text>
	<text x="394" y="447.8" fill="#000000" font-family="Verdana" font-size="12">droit</text>
</g>

<!-- Association INSCRIRE -->
<line x1="282" y1="252" x2="282" y2="684" stroke="#4393c3" stroke-width="2"/>
<text x="255.0" y="286" fill="#b2182b" font-family="Verdana" font-size="12">0,N</text>
<line x1="414" y1="684" x2="282" y2="684" stroke="#4393c3" stroke-width="2"/>
<text x="328" y="701.0" fill="#b2182b" font-family="Verdana" font-size="12">0,N</text>
<g id="association-INSCRIRE">
	<path d="M 309 659 a 14 14 90 0 1 14 14 V 684 h -82 V 673 a 14 14 90 0 1 14 -14" fill="#92c5de" stroke="#92c5de" stroke-width="0"/>
	<path d="M 323 684.0 v 11 a 14 14 90 0 1 -14 14 H 255 a 14 14 90 0 1 -14 -14 V 684.0 H 82" fill="#d1e5f0" stroke="#d1e5f0" stroke-width="0"/>
	<rect x="241" y="659" width="82" height="50" fill="none" rx="14" stroke="#4393c3" stroke-width="2"/>
	<line x1="241" y1="684" x2="323" y2="684" stroke="#4393c3" stroke-width="1"/>
	<text x="251" y="676.7" fill="#000000" font-family="Verdana" font-size="12">INSCRIRE</text>
	<text x="248" y="701.8" fill="#000000" font-family="Verdana" font-size="12">événement</text>
</g>

<!-- Entity UTILISATEUR -->
<g id="entity-UTILISATEUR">
	<g id="frame-UTILISATEUR">
		<rect x="228" y="294" width="108" height="25" fill="#f4a582" stroke="#f4a582" stroke-width="0"/>
		<rect x="228" y="319.0" width="108" height="247" fill="#fddbc7" stroke="#fddbc7" stroke-width="0"/>
		<rect x="228" y="294" width="108" height="272" fill="none" stroke="#d6604d" stroke-width="2"/>
		<line x1="228" y1="319" x2="336" y2="319" stroke="#d6604d" stroke-width="1"/>
	</g>
	<text x="240" y="311.7" fill="#000000" font-family="Verdana" font-size="12">UTILISATEUR</text>
	<text x="233" y="336.7" fill="#000000" font-family="Verdana" font-size="12">id</text>
	<line x1="233" y1="339" x2="245" y2="339" stroke="#000000" stroke-width="1"/>
	<text x="233" y="353.7" fill="#000000" font-family="Verdana" font-size="12">pseudo</text>
	<text x="233" y="370.7" fill="#000000" font-family="Verdana" font-size="12">mdp</text>
	<text x="233" y="387.7" fill="#000000" font-family="Verdana" font-size="12">date_inscription</text>
	<text x="233" y="404.7" fill="#000000" font-family="Verdana" font-size="12">nom</text>
	<text x="233" y="421.7" fill="#000000" font-family="Verdana" font-size="12">prenom</text>
	<text x="233" y="438.8" fill="#000000" font-family="Verdana" font-size="12">age</text>
	<text x="233" y="455.8" fill="#000000" font-family="Verdana" font-size="12">sexe</text>
	<text x="233" y="472.8" fill="#000000" font-family="Verdana" font-size="12">email</text>
	<text x="233" y="489.8" fill="#000000" font-family="Verdana" font-size="12">tel_fixe</text>
	<text x="233" y="506.8" fill="#000000" font-family="Verdana" font-size="12">tel_mobile</text>
	<text x="233" y="523.8" fill="#000000" font-family="Verdana" font-size="12">adresse</text>
	<text x="233" y="540.8" fill="#000000" font-family="Verdana" font-size="12">cp</text>
	<text x="233" y="557.8" fill="#000000" font-family="Verdana" font-size="12">ville</text>
</g>

<!-- Entity GALERIE -->
<g id="entity-GALERIE">
	<g id="frame-GALERIE">
		<rect x="115" y="608" width="78" height="25" fill="#f4a582" stroke="#f4a582" stroke-width="0"/>
		<rect x="115" y="633.0" width="78" height="127" fill="#fddbc7" stroke="#fddbc7" stroke-width="0"/>
		<rect x="115" y="608" width="78" height="152" fill="none" stroke="#d6604d" stroke-width="2"/>
		<line x1="115" y1="633" x2="193" y2="633" stroke="#d6604d" stroke-width="1"/>
	</g>
	<text x="127" y="625.7" fill="#000000" font-family="Verdana" font-size="12">GALERIE</text>
	<text x="120" y="650.7" fill="#000000" font-family="Verdana" font-size="12">id</text>
	<line x1="120" y1="653" x2="132" y2="653" stroke="#000000" stroke-width="1"/>
	<text x="120" y="667.7" fill="#000000" font-family="Verdana" font-size="12">libelle</text>
	<text x="120" y="684.8" fill="#000000" font-family="Verdana" font-size="12">slug</text>
	<text x="120" y="701.8" fill="#000000" font-family="Verdana" font-size="12">src</text>
	<text x="120" y="718.8" fill="#000000" font-family="Verdana" font-size="12">description</text>
	<text x="120" y="735.8" fill="#000000" font-family="Verdana" font-size="12">auteur</text>
	<text x="120" y="752.8" fill="#000000" font-family="Verdana" font-size="12">date_publi</text>
</g>

<!-- Entity EVENEMENT -->
<g id="entity-EVENEMENT">
	<g id="frame-EVENEMENT">
		<rect x="355" y="591" width="118" height="25" fill="#f4a582" stroke="#f4a582" stroke-width="0"/>
		<rect x="355" y="616.0" width="118" height="161" fill="#fddbc7" stroke="#fddbc7" stroke-width="0"/>
		<rect x="355" y="591" width="118" height="186" fill="none" stroke="#d6604d" stroke-width="2"/>
		<line x1="355" y1="616" x2="473" y2="616" stroke="#d6604d" stroke-width="1"/>
	</g>
	<text x="376" y="608.7" fill="#000000" font-family="Verdana" font-size="12">EVENEMENT</text>
	<text x="360" y="633.7" fill="#000000" font-family="Verdana" font-size="12">id</text>
	<line x1="360" y1="636" x2="372" y2="636" stroke="#000000" stroke-width="1"/>
	<text x="360" y="650.7" fill="#000000" font-family="Verdana" font-size="12">nom</text>
	<text x="360" y="667.7" fill="#000000" font-family="Verdana" font-size="12">slug</text>
	<text x="360" y="684.8" fill="#000000" font-family="Verdana" font-size="12">image</text>
	<text x="360" y="701.8" fill="#000000" font-family="Verdana" font-size="12">description</text>
	<text x="360" y="718.8" fill="#000000" font-family="Verdana" font-size="12">date_debut</text>
	<text x="360" y="735.8" fill="#000000" font-family="Verdana" font-size="12">date_fin</text>
	<text x="360" y="752.8" fill="#000000" font-family="Verdana" font-size="12">nbre_place_max</text>
	<text x="360" y="769.8" fill="#000000" font-family="Verdana" font-size="12">nbre_place_dispo</text>
</g>

<!-- Entity PROFIL -->
<g id="entity-PROFIL">
	<g id="frame-PROFIL">
		<rect x="254" y="235" width="56" height="25" fill="#f4a582" stroke="#f4a582" stroke-width="0"/>
		<rect x="254" y="260.0" width="56" height="9" fill="#fddbc7" stroke="#fddbc7" stroke-width="0"/>
		<rect x="254" y="235" width="56" height="34" fill="none" stroke="#d6604d" stroke-width="2"/>
		<line x1="254" y1="260" x2="310" y2="260" stroke="#d6604d" stroke-width="1"/>
	</g>
	<text x="259" y="252.8" fill="#000000" font-family="Verdana" font-size="12">PROFIL</text>
</g>

<!-- Entity SLIDER -->
<g id="entity-SLIDER">
	<g id="frame-SLIDER">
		<rect x="247" y="9" width="70" height="25" fill="#f4a582" stroke="#f4a582" stroke-width="0"/>
		<rect x="247" y="34.0" width="70" height="59" fill="#fddbc7" stroke="#fddbc7" stroke-width="0"/>
		<rect x="247" y="9" width="70" height="84" fill="none" stroke="#d6604d" stroke-width="2"/>
		<line x1="247" y1="34" x2="317" y2="34" stroke="#d6604d" stroke-width="1"/>
	</g>
	<text x="259" y="26.7" fill="#000000" font-family="Verdana" font-size="12">SLIDER</text>
	<text x="252" y="51.8" fill="#000000" font-family="Verdana" font-size="12">id</text>
	<line x1="252" y1="54" x2="264" y2="54" stroke="#000000" stroke-width="1"/>
	<text x="252" y="68.8" fill="#000000" font-family="Verdana" font-size="12">bg_image</text>
	<text x="252" y="85.8" fill="#000000" font-family="Verdana" font-size="12">text</text>
</g>

<!-- Entity ROLE -->
<g id="entity-ROLE">
	<g id="frame-ROLE">
		<rect x="599" y="126" width="44" height="25" fill="#f4a582" stroke="#f4a582" stroke-width="0"/>
		<rect x="599" y="151.0" width="44" height="9" fill="#fddbc7" stroke="#fddbc7" stroke-width="0"/>
		<rect x="599" y="126" width="44" height="34" fill="none" stroke="#d6604d" stroke-width="2"/>
		<line x1="599" y1="151" x2="643" y2="151" stroke="#d6604d" stroke-width="1"/>
	</g>
	<text x="604" y="143.8" fill="#000000" font-family="Verdana" font-size="12">ROLE</text>
</g>

<!-- Entity NEWSLETTER -->
<g id="entity-NEWSLETTER">
	<g id="frame-NEWSLETTER">
		<rect x="367" y="109" width="94" height="25" fill="#f4a582" stroke="#f4a582" stroke-width="0"/>
		<rect x="367" y="134.0" width="94" height="43" fill="#fddbc7" stroke="#fddbc7" stroke-width="0"/>
		<rect x="367" y="109" width="94" height="68" fill="none" stroke="#d6604d" stroke-width="2"/>
		<line x1="367" y1="134" x2="461" y2="134" stroke="#d6604d" stroke-width="1"/>
	</g>
	<text x="372" y="126.7" fill="#000000" font-family="Verdana" font-size="12">NEWSLETTER</text>
	<text x="372" y="151.8" fill="#000000" font-family="Verdana" font-size="12">id</text>
	<line x1="372" y1="154" x2="384" y2="154" stroke="#000000" stroke-width="1"/>
	<text x="372" y="168.8" fill="#000000" font-family="Verdana" font-size="12">mail</text>
</g>

<!-- Entity PRESTATION -->
<g id="entity-PRESTATION">
	<g id="frame-PRESTATION">
		<rect x="109" y="84" width="90" height="25" fill="#f4a582" stroke="#f4a582" stroke-width="0"/>
		<rect x="109" y="109.0" width="90" height="93" fill="#fddbc7" stroke="#fddbc7" stroke-width="0"/>
		<rect x="109" y="84" width="90" height="118" fill="none" stroke="#d6604d" stroke-width="2"/>
		<line x1="109" y1="109" x2="199" y2="109" stroke="#d6604d" stroke-width="1"/>
	</g>
	<text x="114" y="101.7" fill="#000000" font-family="Verdana" font-size="12">PRESTATION</text>
	<text x="114" y="126.7" fill="#000000" font-family="Verdana" font-size="12">id</text>
	<line x1="114" y1="129" x2="126" y2="129" stroke="#000000" stroke-width="1"/>
	<text x="114" y="143.8" fill="#000000" font-family="Verdana" font-size="12">nom</text>
	<text x="114" y="160.8" fill="#000000" font-family="Verdana" font-size="12">type</text>
	<text x="114" y="177.8" fill="#000000" font-family="Verdana" font-size="12">description</text>
	<text x="114" y="194.8" fill="#000000" font-family="Verdana" font-size="12">tarif</text>
</g>
</svg>