<?xml version="1.0" encoding="utf-8"?>
<!-- Generator: Adobe Illustrator 16.0.0, SVG Export Plug-In . SVG Version: 6.00 Build 0)  -->
<!DOCTYPE svg PUBLIC "-//W3C//DTD SVG 1.1//EN" "http://www.w3.org/Graphics/SVG/1.1/DTD/svg11.dtd">
<svg version="1.1" id="Calque_1" xmlns="http://www.w3.org/2000/svg" xmlns:xlink="http://www.w3.org/1999/xlink" x="0px" y="0px"
	 width="595.275px" height="442.445px" viewBox="-13.304 -175.279 595.275 442.445"
	 enable-background="new -13.304 -175.279 595.275 442.445" xml:space="preserve">
<line fill="none" stroke="#000000" stroke-width="0.5" stroke-miterlimit="10" x1="291.516" y1="93.597" x2="291.51" y2="-52.402"/>
<line fill="none" stroke="#000000" stroke-width="0.5" stroke-miterlimit="10" x1="40.381" y1="196.128" x2="40.369" y2="158.695"/>
<rect x="-5.167" y="6.119" fill="#FFFFFF" stroke="#999999" stroke-width="0.5" stroke-miterlimit="10" width="91.071" height="62.287"/>
<rect x="-5.167" y="6.119" fill="#EAEAEA" stroke="#999999" stroke-width="0.5" stroke-miterlimit="10" width="91.071" height="17.226"/>
<text transform="matrix(1 0 0 1 17.4363 19.2681)" fill="#1D1D1B" font-family="'ArialMT'" font-size="10.5741">Catégories</text>
<line fill="none" stroke="#000000" stroke-width="0.5" stroke-miterlimit="10" x1="251.151" y1="-138.984" x2="85.942" y2="-138.984"/>
<rect x="-5.13" y="-168.852" fill="#FFFFFF" stroke="#999999" stroke-width="0.5" stroke-miterlimit="10" width="91.072" height="120.667"/>
<rect x="-5.13" y="-168.852" fill="#EAEAEA" stroke="#999999" stroke-width="0.5" stroke-miterlimit="10" width="91.072" height="17.226"/>
<text transform="matrix(1 0 0 1 4.554 -155.7134)" fill="#1D1D1B" font-family="'ArialMT'" font-size="10.5741">Galerie_Images</text>
<line fill="none" stroke="#000000" stroke-width="0.5" stroke-miterlimit="10" x1="488.194" y1="19.216" x2="413.676" y2="19.216"/>
<line fill="none" stroke="#000000" stroke-width="0.5" stroke-miterlimit="10" x1="415.092" y1="20.497" x2="340.563" y2="-53.886"/>
<line fill="none" stroke="#000000" stroke-width="0.5" stroke-miterlimit="10" x1="384.722" y1="-79.088" x2="342.222" y2="-79.088"/>
<line fill="none" stroke="#000000" stroke-width="0.5" stroke-miterlimit="10" x1="510.8" y1="10.424" x2="415.401" y2="-79.088"/>
<rect x="488.194" y="-48.186" fill="#FFFFFF" stroke="#999999" stroke-width="0.5" stroke-miterlimit="10" width="91.071" height="121.352"/>
<rect x="488.194" y="-48.186" fill="#EAEAEA" stroke="#999999" stroke-width="0.5" stroke-miterlimit="10" width="91.071" height="17.226"/>
<text transform="matrix(1 0 0 1 504.3386 -35.0449)" fill="#1D1D1B" font-family="'ArialMT'" font-size="10.5741">Evénements</text>
<g>
	
		<text transform="matrix(1 0 0 1 493.7468 -20.7007)" fill="#1D1D1B" font-family="'ArialMT'" font-size="8.5456" text-decoration=" underline">id</text>
</g>
<text transform="matrix(1 0 0 1 493.7468 -10.4463)" fill="#1D1D1B" font-family="'ArialMT'" font-size="8.5456">nom</text>
<text transform="matrix(1 0 0 1 493.7468 -0.1914)" fill="#1D1D1B" font-family="'ArialMT'" font-size="8.5456">slug</text>
<text transform="matrix(1 0 0 1 493.7468 10.064)" fill="#1D1D1B" font-family="'ArialMT'" font-size="8.5456">img</text>
<text transform="matrix(1 0 0 1 493.7468 20.3188)" enable-background="new    "><tspan x="0" y="0" fill="#1D1D1B" font-family="'ArialMT'" font-size="8.5456">description</tspan><tspan x="0" y="10.255" fill="#1D1D1B" font-family="'ArialMT'" font-size="8.5456">date_publication</tspan></text>
<text transform="matrix(1 0 0 1 493.7468 42.4941)" fill="#1D1D1B" font-family="'ArialMT'" font-size="8.5456">date_debut</text>
<text transform="matrix(1 0 0 1 493.7468 52.749)" fill="#1D1D1B" font-family="'ArialMT'" font-size="8.5456">date_fin</text>
<text transform="matrix(1 0 0 1 493.7468 63.0039)" fill="#1D1D1B" font-family="'ArialMT'" font-size="8.5456">nbre_place_max</text>
<rect x="488.194" y="93.597" fill="#FFFFFF" stroke="#999999" stroke-width="0.5" stroke-miterlimit="10" width="91.071" height="68.875"/>
<rect x="488.194" y="93.597" fill="#EAEAEA" stroke="#999999" stroke-width="0.5" stroke-miterlimit="10" width="91.071" height="17.228"/>
<text transform="matrix(1 0 0 1 504.9353 106.7402)" fill="#1D1D1B" font-family="'ArialMT'" font-size="10.5741">Permissions</text>
<rect x="251.151" y="94.27" fill="#FFFFFF" stroke="#999999" stroke-width="0.5" stroke-miterlimit="10" width="91.072" height="68.189"/>
<rect x="251.151" y="94.27" fill="#EAEAEA" stroke="#999999" stroke-width="0.5" stroke-miterlimit="10" width="91.072" height="17.226"/>
<text transform="matrix(1 0 0 1 284.6418 107.4033)" fill="#1D1D1B" font-family="'ArialMT'" font-size="10.5741">Profils</text>
<rect x="125.4" y="190.2" fill="#FFFFFF" stroke="#999999" stroke-width="0.5" stroke-miterlimit="10" width="91.07" height="69.445"/>
<rect x="125.4" y="190.2" fill="#EAEAEA" stroke="#999999" stroke-width="0.5" stroke-miterlimit="10" width="91.07" height="17.225"/>
<text transform="matrix(1 0 0 1 157.4246 203.3408)" fill="#1D1D1B" font-family="'ArialMT'" font-size="10.5741">Slides</text>
<rect x="-5.167" y="191.025" fill="#FFFFFF" stroke="#999999" stroke-width="0.5" stroke-miterlimit="10" width="91.071" height="69.073"/>
<rect x="-5.167" y="191.025" fill="#EAEAEA" stroke="#999999" stroke-width="0.5" stroke-miterlimit="10" width="91.071" height="17.226"/>
<text transform="matrix(1 0 0 1 16.5696 204.1636)" fill="#1D1D1B" font-family="'ArialMT'" font-size="10.5741">Prestations</text>
<rect x="124.827" y="5.667" fill="#FFFFFF" stroke="#999999" stroke-width="0.5" stroke-miterlimit="10" width="91.071" height="62.285"/>
<rect x="124.827" y="5.667" fill="#EAEAEA" stroke="#999999" stroke-width="0.5" stroke-miterlimit="10" width="91.071" height="17.227"/>
<text transform="matrix(1 0 0 1 130.637 18.8003)" fill="#1D1D1B" font-family="'ArialMT'" font-size="8.4329">Abonnes_Newsletter</text>
<rect x="251.151" y="-170.096" fill="#FFFFFF" stroke="#999999" stroke-width="0.5" stroke-miterlimit="10" width="91.072" height="130.523"/>
<rect x="251.151" y="-170.096" fill="#EAEAEA" stroke="#999999" stroke-width="0.5" stroke-miterlimit="10" width="91.072" height="17.225"/>
<text transform="matrix(1 0 0 1 273.1824 -156.9517)" fill="#1D1D1B" font-family="'ArialMT'" font-size="10.5741">Utilisateurs</text>
<text transform="matrix(1 0 0 1 459.1931 119.6416)" fill="#1D1D1B" font-family="'ArialMT'" font-size="10.5741">1,n</text>
<text transform="matrix(1 0 0 1 218.8914 -145.6406)" fill="#1D1D1B" font-family="'ArialMT'" font-size="10.5741">0,n</text>
<text transform="matrix(1 0 0 1 354.9812 -16.6943)" fill="#1D1D1B" font-family="'ArialMT'" font-size="10.5741">0,n</text>
<text transform="matrix(1 0 0 1 356.0349 -83.9995)" fill="#1D1D1B" font-family="'ArialMT'" font-size="10.5741">0,n</text>
<text transform="matrix(1 0 0 1 457.7751 -44.2939)" fill="#1D1D1B" font-family="'ArialMT'" font-size="10.5741">1,1</text>
<text transform="matrix(1 0 0 1 457.2615 14.5757)" fill="#1D1D1B" font-family="'ArialMT'" font-size="10.5741">0,n</text>
<text transform="matrix(1 0 0 1 99.1189 -145.6406)" fill="#1D1D1B" font-family="'ArialMT'" font-size="10.5741">1,1</text>
<line fill="none" stroke="#000000" stroke-width="0.5" stroke-miterlimit="10" x1="251.151" y1="-65.542" x2="85.942" y2="-65.542"/>
<line fill="none" stroke="#999999" stroke-width="0.5" stroke-miterlimit="10" x1="134.467" y1="-65.542" x2="196.764" y2="-65.542"/>
<text transform="matrix(1 0 0 1 218.8914 -72.1987)" fill="#1D1D1B" font-family="'ArialMT'" font-size="10.5741">0,n</text>
<text transform="matrix(1 0 0 1 100.6194 -72.1987)" fill="#1D1D1B" font-family="'ArialMT'" font-size="10.5741">1,n</text>
<text transform="matrix(1 0 0 1 23.5662 176.4458)" fill="#1D1D1B" font-family="'ArialMT'" font-size="10.5741">1,1</text>
<line fill="none" stroke="#000000" stroke-width="0.5" stroke-miterlimit="10" x1="40.381" y1="96.351" x2="40.369" y2="68.406"/>
<text transform="matrix(1 0 0 1 23.5662 87.2148)" fill="#1D1D1B" font-family="'ArialMT'" font-size="10.5741">0,n</text>
<text transform="matrix(1 0 0 1 358.6033 117.9053)" fill="#1D1D1B" font-family="'ArialMT'" font-size="10.5741">0,n</text>
<text transform="matrix(1 0 0 1 273.196 -16.354)" fill="#1D1D1B" font-family="'ArialMT'" font-size="10.5741">1,1</text>
<text transform="matrix(1.0036 0 0 1 273.1697 82.2251)" fill="#1D1D1B" font-family="'ArialMT'" font-size="10.5741">1,n</text>
<line fill="none" stroke="#000000" stroke-width="0.5" stroke-miterlimit="10" x1="342.222" y1="126.305" x2="385.464" y2="126.305"/>
<line fill="none" stroke="#000000" stroke-width="0.5" stroke-miterlimit="10" x1="447.761" y1="126.305" x2="488.194" y2="126.305"/>
<line fill="none" stroke="#999999" stroke-width="0.5" stroke-miterlimit="10" x1="384.735" y1="-79.088" x2="447.032" y2="-79.088"/>
<text transform="matrix(1 0 0 1 257.3572 -141.0063)" fill="#1D1D1B" font-family="'ArialMT'" font-size="8.5456" text-decoration=" underline">id</text>
<text transform="matrix(1 0 0 1 257.3572 -130.7515)" fill="#1D1D1B" font-family="'ArialMT'" font-size="8.5456">pseudo</text>
<text transform="matrix(1 0 0 1 257.3572 -120.4961)" fill="#1D1D1B" font-family="'ArialMT'" font-size="8.5456">pwd</text>
<text transform="matrix(1 0 0 1 257.3572 -110.2437)" fill="#1D1D1B" font-family="'ArialMT'" font-size="8.5456">date_inscription</text>
<text transform="matrix(1 0 0 1 257.3572 -99.9873)" fill="#1D1D1B" font-family="'ArialMT'" font-size="8.5456">nom</text>
<text transform="matrix(1 0 0 1 257.3572 -89.7324)" fill="#1D1D1B" font-family="'ArialMT'" font-size="8.5456">prenom</text>
<text transform="matrix(1 0 0 1 257.3572 -79.4785)" fill="#1D1D1B" font-family="'ArialMT'" font-size="8.5456">age</text>
<text transform="matrix(1 0 0 1 257.3572 -68.5508)" fill="#1D1D1B" font-family="'ArialMT'" font-size="8.5456">email</text>
<text transform="matrix(1 0 0 1 257.3572 -58.2949)" enable-background="new    "><tspan x="0" y="0" fill="#1D1D1B" font-family="'ArialMT'" font-size="8.5456">tel</tspan><tspan x="0" y="10.255" fill="#1D1D1B" font-family="'ArialMT'" font-size="8.5456">niveau</tspan></text>
<g>
	
		<text transform="matrix(1 0 0 1 493.7468 122.6865)" fill="#1D1D1B" font-family="'ArialMT'" font-size="8.5456" text-decoration=" underline">id</text>
</g>
<text transform="matrix(1 0 0 1 493.7468 132.9419)" fill="#1D1D1B" font-family="'ArialMT'" font-size="8.5456">libelle</text>
<text transform="matrix(1 0 0 1 493.7468 143.1958)" fill="#1D1D1B" font-family="'ArialMT'" font-size="8.5456">description</text>
<g>
	
		<text transform="matrix(1 0 0 1 0.4226 -139.7124)" fill="#1D1D1B" font-family="'ArialMT'" font-size="8.5456" text-decoration=" underline">id</text>
</g>
<text transform="matrix(1 0 0 1 0.4226 -129.4575)" fill="#1D1D1B" font-family="'ArialMT'" font-size="8.5456">libelle</text>
<text transform="matrix(1 0 0 1 0.4226 -119.2021)" fill="#1D1D1B" font-family="'ArialMT'" font-size="8.5456">slug</text>
<text transform="matrix(1 0 0 1 0.4226 -108.9497)" fill="#1D1D1B" font-family="'ArialMT'" font-size="8.5456">src</text>
<text transform="matrix(1 0 0 1 0.4226 -98.6934)" fill="#1D1D1B" font-family="'ArialMT'" font-size="8.5456">description</text>
<text transform="matrix(1 0 0 1 0.4226 -88.439)" fill="#1D1D1B" font-family="'ArialMT'" font-size="8.5456">auteur</text>
<text transform="matrix(1 0 0 1 0.4226 -78.1846)" enable-background="new    "><tspan x="0" y="0" fill="#1D1D1B" font-family="'ArialMT'" font-size="8.5456">date_publication</tspan><tspan x="0" y="10.255" fill="#1D1D1B" font-family="'ArialMT'" font-size="8.5456">validation</tspan></text>
<g>
	
		<text transform="matrix(1 0 0 1 255.6912 123.3496)" fill="#1D1D1B" font-family="'ArialMT'" font-size="8.5456" text-decoration=" underline">id</text>
</g>
<text transform="matrix(1 0 0 1 255.6912 133.6045)" fill="#1D1D1B" font-family="'ArialMT'" font-size="8.5456">libelle</text>
<text transform="matrix(1 0 0 1 255.6912 143.8584)" fill="#1D1D1B" font-family="'ArialMT'" font-size="8.5456">description</text>
<g>
	
		<text transform="matrix(1 0 0 1 129.6472 220.0186)" fill="#1D1D1B" font-family="'ArialMT'" font-size="8.5456" text-decoration=" underline">id</text>
</g>
<text transform="matrix(1 0 0 1 129.6472 230.2725)" fill="#1D1D1B" font-family="'ArialMT'" font-size="8.5456">bg_img</text>
<text transform="matrix(1 0 0 1 129.6472 240.5273)" fill="#1D1D1B" font-family="'ArialMT'" font-size="8.5456">banner_text</text>
<g>
	
		<text transform="matrix(1 0 0 1 -2.3367 33.2476)" fill="#1D1D1B" font-family="'ArialMT'" font-size="8.5456" text-decoration=" underline">id</text>
</g>
<text transform="matrix(1 0 0 1 -2.3367 43.5024)" fill="#1D1D1B" font-family="'ArialMT'" font-size="8.5456">libelle</text>
<text transform="matrix(1 0 0 1 -2.3367 53.7583)" fill="#1D1D1B" font-family="'ArialMT'" font-size="8.5456">description</text>
<g>
	
		<text transform="matrix(1 0 0 1 -0.1584 220.8428)" fill="#1D1D1B" font-family="'ArialMT'" font-size="8.5456" text-decoration=" underline">id</text>
</g>
<text transform="matrix(1 0 0 1 -0.1584 231.0967)" fill="#1D1D1B" font-family="'ArialMT'" font-size="8.5456">nom</text>
<text transform="matrix(1 0 0 1 -0.1584 241.3516)" fill="#1D1D1B" font-family="'ArialMT'" font-size="8.5456">description</text>
<text transform="matrix(1 0 0 1 -0.1584 251.6055)" fill="#1D1D1B" font-family="'ArialMT'" font-size="8.5456">tarif</text>
<g>
	
		<text transform="matrix(1 0 0 1 129.8367 34.4102)" fill="#1D1D1B" font-family="'ArialMT'" font-size="8.5456" text-decoration=" underline">id</text>
</g>
<text transform="matrix(1 0 0 1 129.8367 44.665)" fill="#1D1D1B" font-family="'ArialMT'" font-size="8.5456">mail</text>
<rect x="124.827" y="93.894" fill="#FFFFFF" stroke="#999999" stroke-width="0.5" stroke-miterlimit="10" width="91.071" height="68.578"/>
<rect x="124.827" y="93.894" fill="#EAEAEA" stroke="#999999" stroke-width="0.5" stroke-miterlimit="10" width="91.071" height="17.228"/>
<text transform="matrix(1 0 0 1 130.637 107.0273)" fill="#1D1D1B" font-family="'ArialMT'" font-size="8.4329">Newsletters</text>
<g>
	
		<text transform="matrix(1 0 0 1 129.8367 122.6372)" fill="#1D1D1B" font-family="'ArialMT'" font-size="8.5456" text-decoration=" underline">id</text>
</g>
<text transform="matrix(1 0 0 1 129.8367 132.8921)" enable-background="new    "><tspan x="0" y="0" fill="#1D1D1B" font-family="'ArialMT'" font-size="8.5456">name</tspan><tspan x="0" y="10.255" fill="#1D1D1B" font-family="'ArialMT'" font-size="8.5456">slug</tspan><tspan x="0" y="20.509" fill="#1D1D1B" font-family="'ArialMT'" font-size="8.5456">content</tspan></text>
<path fill="#FFFFFF" stroke="#999999" stroke-width="0.5" stroke-miterlimit="10" d="M196.751-120.485
	c0,6.986-5.663,12.649-12.649,12.649h-36.999c-6.986,0-12.649-5.663-12.649-12.649v-36.999c0-6.986,5.663-12.649,12.649-12.649
	h36.999c6.986,0,12.649,5.663,12.649,12.649V-120.485z"/>
<line fill="none" stroke="#999999" stroke-width="0.5" stroke-miterlimit="10" x1="134.467" y1="-154.326" x2="196.764" y2="-154.326"/>
<text transform="matrix(1 0 0 1 149.4407 -158.1797)" fill="#1D1D1B" font-family="'ArialMT'" font-size="9.6911">Ajouter</text>
<path fill="#FFFFFF" stroke="#999999" stroke-width="0.5" stroke-miterlimit="10" d="M447.026-59.534
	c0,6.986-5.664,12.649-12.649,12.649h-36.999c-6.987,0-12.649-5.664-12.649-12.649v-36.999c0-6.986,5.662-12.649,12.649-12.649
	h36.999c6.985,0,12.649,5.663,12.649,12.649V-59.534z"/>
<line fill="none" stroke="#999999" stroke-width="0.5" stroke-miterlimit="10" x1="384.741" y1="-93.376" x2="447.039" y2="-93.376"/>
<g>
	<text transform="matrix(1 0 0 1 400.7947 -96.9834)" fill="#1D1D1B" font-family="'ArialMT'" font-size="9.6911">Publier</text>
</g>
<path fill="#FFFFFF" stroke="#999999" stroke-width="0.5" stroke-miterlimit="10" d="M447.026,144.804
	c0,6.986-5.664,12.649-12.649,12.649h-36.999c-6.987,0-12.649-5.663-12.649-12.649v-36.999c0-6.986,5.662-12.649,12.649-12.649
	h36.999c6.985,0,12.649,5.664,12.649,12.649V144.804z"/>
<line fill="none" stroke="#999999" stroke-width="0.5" stroke-miterlimit="10" x1="384.741" y1="110.962" x2="447.039" y2="110.962"/>
<g>
	<text transform="matrix(1 0 0 1 395.407 107.355)" fill="#1D1D1B" font-family="'ArialMT'" font-size="9.6911">Posseder</text>
</g>
<path fill="#FFFFFF" stroke="#999999" stroke-width="0.5" stroke-miterlimit="10" d="M322.653,52.802
	c0,6.986-5.663,12.649-12.648,12.649h-37c-6.986,0-12.649-5.663-12.649-12.649V15.803c0-6.986,5.663-12.649,12.649-12.649h37
	c6.985,0,12.648,5.663,12.648,12.649V52.802z"/>
<line fill="none" stroke="#999999" stroke-width="0.5" stroke-miterlimit="10" x1="260.369" y1="18.96" x2="322.666" y2="18.96"/>
<g>
	<text transform="matrix(1 0 0 1 280.4651 15.3525)" fill="#1D1D1B" font-family="'ArialMT'" font-size="9.6911">Avoir</text>
</g>
<path fill="#FFFFFF" stroke="#999999" stroke-width="0.5" stroke-miterlimit="10" d="M71.511,146.864
	c0,6.986-5.663,12.649-12.649,12.649H21.863c-6.987,0-12.649-5.664-12.649-12.649v-36.999c0-6.986,5.663-12.649,12.649-12.649
	h36.999c6.987,0,12.649,5.663,12.649,12.649V146.864z"/>
<line fill="none" stroke="#999999" stroke-width="0.5" stroke-miterlimit="10" x1="9.227" y1="113.022" x2="71.524" y2="113.022"/>
<g>
	<text transform="matrix(1 0 0 1 18.0061 109.4146)" fill="#1D1D1B" font-family="'ArialMT'" font-size="9.6911">Appartenir</text>
</g>
<path fill="#FFFFFF" stroke="#999999" stroke-width="0.5" stroke-miterlimit="10" d="M447.026,39.097
	c0,6.986-5.664,12.649-12.649,12.649h-36.999c-6.987,0-12.649-5.664-12.649-12.649V2.098c0-6.986,5.662-12.649,12.649-12.649h36.999
	c6.985,0,12.649,5.663,12.649,12.649V39.097z"/>
<line fill="none" stroke="#999999" stroke-width="0.5" stroke-miterlimit="10" x1="384.741" y1="5.255" x2="447.039" y2="5.255"/>
<path fill="#FFFFFF" stroke="#999999" stroke-width="0.5" stroke-miterlimit="10" d="M196.751-47.043
	c0,6.986-5.663,12.649-12.649,12.649h-36.999c-6.986,0-12.649-5.663-12.649-12.649v-36.999c0-6.986,5.663-12.649,12.649-12.649
	h36.999c6.986,0,12.649,5.663,12.649,12.649V-47.043z"/>
<line fill="none" stroke="#999999" stroke-width="0.5" stroke-miterlimit="10" x1="134.467" y1="-80.885" x2="196.764" y2="-80.885"/>
<g>
	<text transform="matrix(1 0 0 1 139.6038 -84.4922)" fill="#1D1D1B" font-family="'ArialMT'" font-size="9.6911">Commenter</text>
</g>
<g>
	<text transform="matrix(1 0 0 1 140.658 -70.1787)" fill="#1D1D1B" font-family="'ArialMT'" font-size="8.5456">time_stamp</text>
</g>
<g>
	<text transform="matrix(1 0 0 1 140.658 -61.0898)" fill="#1D1D1B" font-family="'ArialMT'" font-size="8.5456">text</text>
</g>
<text transform="matrix(1 0 0 1 399.2791 0.8633)" fill="#1D1D1B" font-family="'ArialMT'" font-size="10.5741">Inscrire</text>
<g>
	<text transform="matrix(1 0 0 1 393.6091 16.7808)"><tspan x="0" y="0" fill="#1D1D1B" font-family="'ArialMT'" font-size="8.5456">validation</tspan><tspan x="0" y="10.255" fill="#1D1D1B" font-family="'ArialMT'" font-size="8.5456">time_stamp</tspan></text>
</g>
</svg>
