<?xml version="1.0" standalone="no"?>
<!DOCTYPE svg PUBLIC "-//W3C//DTD SVG 1.1//EN"
"http://www.w3.org/Graphics/SVG/1.1/DTD/svg11.dtd">

<svg width="268" height="560" view_box="0 0 268 560"
xmlns="http://www.w3.org/2000/svg"
xmlns:link="http://www.w3.org/1999/xlink">\n\n<desc>Généré par Mocodo 2.3.7 le Fri, 03 Jan 2020 07:21:08</desc>

<rect id="frame" x="0" y="0" width="268" height="560" fill="#f5f5f5" stroke="none" stroke-width="0"/>

<!-- Association UTILISATEUR -->
<line x1="65" y1="289" x2="65" y2="111" stroke="#bf812d" stroke-width="2"/>
<text x="70.0" y="230" fill="#01665e" font-family="Verdana" font-size="12">1,1</text>
<g id="association-UTILISATEUR">
	<path d="M 107 9 a 14 14 90 0 1 14 14 V 34 h -112 V 23 a 14 14 90 0 1 14 -14" fill="#dfc27d" stroke="#dfc27d" stroke-width="0"/>
	<path d="M 121 34.0 v 165 a 14 14 90 0 1 -14 14 H 23 a 14 14 90 0 1 -14 -14 V 34.0 H 112" fill="#f6e8c3" stroke="#f6e8c3" stroke-width="0"/>
	<rect x="9" y="9" width="112" height="204" fill="none" rx="14" stroke="#bf812d" stroke-width="2"/>
	<line x1="9" y1="34" x2="121" y2="34" stroke="#bf812d" stroke-width="1"/>
	<text x="23" y="26.7" fill="#000000" font-family="Verdana" font-size="12">UTILISATEUR</text>
	<text x="16" y="51.7" fill="#000000" font-family="Verdana" font-size="12">id</text>
	<text x="16" y="68.7" fill="#000000" font-family="Verdana" font-size="12">pseudo</text>
	<text x="16" y="85.7" fill="#000000" font-family="Verdana" font-size="12">mdp</text>
	<text x="16" y="102.7" fill="#000000" font-family="Verdana" font-size="12">date_inscription</text>
	<text x="16" y="119.8" fill="#000000" font-family="Verdana" font-size="12">nom</text>
	<text x="16" y="136.8" fill="#000000" font-family="Verdana" font-size="12">prenom</text>
	<text x="16" y="153.8" fill="#000000" font-family="Verdana" font-size="12">age</text>
	<text x="16" y="170.8" fill="#000000" font-family="Verdana" font-size="12">sexe</text>
	<text x="16" y="187.8" fill="#000000" font-family="Verdana" font-size="12">email</text>
	<text x="16" y="204.8" fill="#000000" font-family="Verdana" font-size="12">tel</text>
</g>

<!-- Association EVENEMENT -->
<line x1="65" y1="289" x2="198" y2="458" stroke="#bf812d" stroke-width="2"/>
<text x="84.0234333174" y="357" fill="#01665e" font-family="Verdana" font-size="12">1,N</text>
<g id="association-EVENEMENT">
	<path d="M 245 365 a 14 14 90 0 1 14 14 V 390 h -122 V 379 a 14 14 90 0 1 14 -14" fill="#dfc27d" stroke="#dfc27d" stroke-width="0"/>
	<path d="M 259 390.0 v 147 a 14 14 90 0 1 -14 14 H 151 a 14 14 90 0 1 -14 -14 V 390.0 H 122" fill="#f6e8c3" stroke="#f6e8c3" stroke-width="0"/>
	<rect x="137" y="365" width="122" height="186" fill="none" rx="14" stroke="#bf812d" stroke-width="2"/>
	<line x1="137" y1="390" x2="259" y2="390" stroke="#bf812d" stroke-width="1"/>
	<text x="160" y="382.7" fill="#000000" font-family="Verdana" font-size="12">EVENEMENT</text>
	<text x="144" y="407.7" fill="#000000" font-family="Verdana" font-size="12">id</text>
	<text x="144" y="424.7" fill="#000000" font-family="Verdana" font-size="12">nom</text>
	<text x="144" y="441.7" fill="#000000" font-family="Verdana" font-size="12">slug</text>
	<text x="144" y="458.8" fill="#000000" font-family="Verdana" font-size="12">image</text>
	<text x="144" y="475.8" fill="#000000" font-family="Verdana" font-size="12">description</text>
	<text x="144" y="492.8" fill="#000000" font-family="Verdana" font-size="12">date_debut</text>
	<text x="144" y="509.8" fill="#000000" font-family="Verdana" font-size="12">date_fin</text>
	<text x="144" y="526.8" fill="#000000" font-family="Verdana" font-size="12">nbre_place_max</text>
	<text x="144" y="543.8" fill="#000000" font-family="Verdana" font-size="12">nbre_place_dispo</text>
</g>

<!-- Association DROITS -->
<line x1="65" y1="289" x2="65" y2="458" stroke="#bf812d" stroke-width="2"/>
<text x="38.0" y="357" fill="#01665e" font-family="Verdana" font-size="12">1,N</text>
<g id="association-DROITS">
	<path d="M 91 390 a 14 14 90 0 1 14 14 V 415 h -80 V 404 a 14 14 90 0 1 14 -14" fill="#dfc27d" stroke="#dfc27d" stroke-width="0"/>
	<path d="M 105 415.0 v 97 a 14 14 90 0 1 -14 14 H 39 a 14 14 90 0 1 -14 -14 V 415.0 H 80" fill="#f6e8c3" stroke="#f6e8c3" stroke-width="0"/>
	<rect x="25" y="390" width="80" height="136" fill="none" rx="14" stroke="#bf812d" stroke-width="2"/>
	<line x1="25" y1="415" x2="105" y2="415" stroke="#bf812d" stroke-width="1"/>
	<text x="40" y="407.7" fill="#000000" font-family="Verdana" font-size="12">DROITS</text>
	<text x="32" y="432.7" fill="#000000" font-family="Verdana" font-size="12">id</text>
	<text x="32" y="449.7" fill="#000000" font-family="Verdana" font-size="12">libele</text>
	<text x="32" y="466.8" fill="#000000" font-family="Verdana" font-size="12">administer</text>
	<text x="32" y="483.8" fill="#000000" font-family="Verdana" font-size="12">publier</text>
	<text x="32" y="500.8" fill="#000000" font-family="Verdana" font-size="12">moderer</text>
	<text x="32" y="517.8" fill="#000000" font-family="Verdana" font-size="12"></text>
</g>

<!-- Entity COMPTE -->
<g id="entity-COMPTE">
	<g id="frame-COMPTE">
		<rect x="13" y="238" width="104" height="25" fill="#80cdc1" stroke="#80cdc1" stroke-width="0"/>
		<rect x="13" y="263.0" width="104" height="77" fill="#c7eae5" stroke="#c7eae5" stroke-width="0"/>
		<rect x="13" y="238" width="104" height="102" fill="none" stroke="#35978f" stroke-width="2"/>
		<line x1="13" y1="263" x2="117" y2="263" stroke="#35978f" stroke-width="1"/>
	</g>
	<text x="39" y="255.7" fill="#000000" font-family="Verdana" font-size="12">COMPTE</text>
	<text x="18" y="280.7" fill="#000000" font-family="Verdana" font-size="12">identifiant</text>
	<line x1="18" y1="283" x2="80" y2="283" stroke="#000000" stroke-width="1"/>
	<text x="18" y="297.8" fill="#000000" font-family="Verdana" font-size="12">pseudo</text>
	<text x="18" y="314.8" fill="#000000" font-family="Verdana" font-size="12">mot de passe</text>
	<text x="18" y="331.8" fill="#000000" font-family="Verdana" font-size="12">date inscription</text>
</g>
</svg>