<?xml version="1.0" encoding="utf-8"?>
<!-- Generator: Adobe Illustrator 23.0.1, SVG Export Plug-In . SVG Version: 6.00 Build 0)  -->
<svg version="1.1" id="Calque_1" xmlns="http://www.w3.org/2000/svg" xmlns:xlink="http://www.w3.org/1999/xlink" x="0px" y="0px"
	 viewBox="0 0 595.3 442.5" style="enable-background:new 0 0 595.3 442.5;" xml:space="preserve">
<style type="text/css">
	.st0{fill:none;stroke:#000000;stroke-width:0.5;stroke-miterlimit:10;}
	.st1{fill:#FFFFFF;stroke:#999999;stroke-width:0.5;stroke-miterlimit:10;}
	.st2{fill:#EAEAEA;stroke:#999999;stroke-width:0.5;stroke-miterlimit:10;}
	.st3{fill:#1D1D1B;}
	.st4{font-family:'Consolas';}
	.st5{font-size:8.4329px;}
	.st6{font-size:8.5456px;}
	.st7{font-size:9px;}
	.st8{fill:none;stroke:#999999;stroke-width:0.5;stroke-miterlimit:10;}
	.st9{enable-background:new    ;}
</style>
<line class="st0" x1="302.1" y1="269.8" x2="302.1" y2="129.8"/>
<line class="st0" x1="51" y1="363.4" x2="51" y2="325.9"/>
<rect x="5.4" y="173.4" class="st1" width="91.1" height="62.3"/>
<rect x="5.4" y="173.4" class="st2" width="91.1" height="17.2"/>
<g>
	<text transform="matrix(1 0 0 1 27.7742 186.5088)" class="st3 st4 st5">Catégories</text>
</g>
<line class="st0" x1="261.7" y1="37.3" x2="96.5" y2="37.3"/>
<rect x="5.5" y="7.4" class="st1" width="91.1" height="120.7"/>
<rect x="5.5" y="7.4" class="st2" width="91.1" height="17.2"/>
<g>
	<text transform="matrix(1 0 0 1 18.5388 20.5273)" class="st3 st4 st5">Galerie d’mage</text>
</g>
<line class="st0" x1="498.8" y1="195.5" x2="424.3" y2="195.5"/>
<line class="st0" x1="425.7" y1="196.7" x2="351.1" y2="122.3"/>
<line class="st0" x1="395.3" y1="97.2" x2="352.8" y2="97.2"/>
<line class="st0" x1="521.4" y1="186.7" x2="426" y2="97.2"/>
<rect x="498.8" y="128.1" class="st1" width="91.1" height="130.4"/>
<rect x="498.8" y="128.1" class="st2" width="91.1" height="17.2"/>
<g>
	<text transform="matrix(1 0 0 1 521.1355 141.1953)" class="st3 st4 st5">Evénements</text>
</g>
<g>
	<text transform="matrix(1 0 0 1 504.3347 155.5391)" class="st3 st4 st6" style="text-decoration: underline;">id</text>
</g>
<text transform="matrix(1 0 0 1 504.3347 165.7939)" class="st3 st4 st6">name</text>
<text transform="matrix(1 0 0 1 504.3347 176.0488)" class="st3 st4 st6">slug</text>
<text transform="matrix(1 0 0 1 504.3347 186.3047)" class="st3 st4 st6">img</text>
<text transform="matrix(1 0 0 1 504.3347 196.5586)" class="st3 st4 st6">content</text>
<text transform="matrix(1 0 0 1 504.3347 206.8145)" class="st3 st4 st6">create_date</text>
<text transform="matrix(1 0 0 1 504.3347 218.7344)" class="st3 st4 st6">start_date</text>
<text transform="matrix(1 0 0 1 504.3347 228.9893)" class="st3 st4 st6">end_date</text>
<text transform="matrix(1 0 0 1 504.3347 239.2441)" class="st3 st4 st6">capacity</text>
<rect x="498.8" y="269.8" class="st1" width="91.1" height="68.9"/>
<rect x="498.8" y="269.8" class="st2" width="91.1" height="17.2"/>
<g>
	<text transform="matrix(1 0 0 1 518.8171 282.9805)" class="st3 st4 st5">Permissions</text>
</g>
<rect x="261.7" y="270.5" class="st1" width="91.1" height="68.2"/>
<rect x="261.7" y="270.5" class="st2" width="91.1" height="17.2"/>
<g>
	<text transform="matrix(1 0 0 1 291.0481 283.6436)" class="st3 st4 st5">Profils</text>
</g>
<rect x="136" y="357.4" class="st1" width="91.1" height="76"/>
<rect x="136" y="357.4" class="st2" width="91.1" height="17.2"/>
<g>
	<text transform="matrix(1 0 0 1 167.6135 370.5811)" class="st3 st4 st5">Slides</text>
</g>
<rect x="5.4" y="358.3" class="st1" width="91.1" height="75.2"/>
<rect x="5.4" y="358.3" class="st2" width="91.1" height="17.2"/>
<g>
	<text transform="matrix(1 0 0 1 25.4553 371.4043)" class="st3 st4 st5">Prestations</text>
</g>
<rect x="135.4" y="172.9" class="st1" width="91.1" height="62.3"/>
<rect x="135.4" y="172.9" class="st2" width="91.1" height="17.2"/>
<text transform="matrix(1 0 0 1 140.2253 186.041)" class="st3 st4 st5">Abonnés Newsletter</text>
<rect x="261.7" y="6.1" class="st1" width="91.1" height="136.5"/>
<rect x="261.7" y="6.1" class="st2" width="91.1" height="17.2"/>
<g>
	<text transform="matrix(1 0 0 1 279.4558 19.2881)" class="st3 st4 st5">Utilisateurs</text>
</g>
<text transform="matrix(1 0 0 1 469.781 295.8818)" class="st3 st4 st7">1,n</text>
<text transform="matrix(1 0 0 1 229.4797 30.5996)" class="st3 st4 st7">0,n</text>
<text transform="matrix(1 0 0 1 365.5691 159.5459)" class="st3 st4 st7">0,n</text>
<text transform="matrix(1 0 0 1 366.6228 92.2402)" class="st3 st4 st7">0,n</text>
<text transform="matrix(1 0 0 1 468.363 131.9463)" class="st3 st4 st7">1,1</text>
<text transform="matrix(1 0 0 1 467.8503 190.8164)" class="st3 st4 st7">0,n</text>
<text transform="matrix(1 0 0 1 109.7068 30.5996)" class="st3 st4 st7">1,1</text>
<line class="st0" x1="261.7" y1="110.7" x2="96.5" y2="110.7"/>
<line class="st8" x1="145.1" y1="110.7" x2="207.4" y2="110.7"/>
<text transform="matrix(1 0 0 1 229.4797 104.041)" class="st3 st4 st7">0,n</text>
<text transform="matrix(1 0 0 1 111.2078 104.041)" class="st3 st4 st7">1,n</text>
<text transform="matrix(1 0 0 1 34.1545 343.6855)" class="st3 st4 st7">1,1</text>
<line class="st0" x1="51" y1="263.6" x2="51" y2="235.6"/>
<text transform="matrix(1 0 0 1 34.1545 254.4551)" class="st3 st4 st7">0,n</text>
<text transform="matrix(1 0 0 1 369.1921 294.1455)" class="st3 st4 st7">0,n</text>
<text transform="matrix(1 0 0 1 283.7839 159.8867)" class="st3 st4 st7">1,1</text>
<text transform="matrix(1.0036 0 0 1 283.7578 258.465)" class="st3 st4 st7">1,n</text>
<line class="st0" x1="352.8" y1="302.5" x2="396" y2="302.5"/>
<line class="st0" x1="458.4" y1="302.5" x2="498.8" y2="302.5"/>
<line class="st8" x1="395.3" y1="97.2" x2="457.6" y2="97.2"/>
<text transform="matrix(1 0 0 1 267.9456 35.2344)" class="st3 st4 st6" style="text-decoration: underline;">id</text>
<text transform="matrix(1 0 0 1 267.9456 45.4883)" class="st3 st4 st6">pseudo</text>
<text transform="matrix(1 0 0 1 267.9456 55.7441)" class="st3 st4 st6">pwd</text>
<text transform="matrix(1 0 0 1 267.9456 65.9961)" class="st3 st4 st6">date_inscription</text>
<text transform="matrix(1 0 0 1 267.9456 76.2529)" class="st3 st4 st6">last_name</text>
<text transform="matrix(1 0 0 1 267.9456 86.5078)" class="st3 st4 st6">first_name</text>
<text transform="matrix(1 0 0 1 267.9456 96.7617)" class="st3 st4 st6">age</text>
<text transform="matrix(1 0 0 1 267.9456 107.0167)" class="st3 st4 st6">gender</text>
<text transform="matrix(1 0 0 1 267.9456 116.6895)" class="st3 st4 st6">email</text>
<text transform="matrix(1 0 0 1 267.9456 126.9453)" class="st3 st4 st6">tel</text>
<g>
	<text transform="matrix(1 0 0 1 504.3347 298.9268)" class="st3 st4 st6" style="text-decoration: underline;">id</text>
</g>
<text transform="matrix(1 0 0 1 504.3347 309.1816)" class="st3 st4 st6">libelle</text>
<text transform="matrix(1 0 0 1 504.3347 319.4355)" class="st3 st4 st6">description</text>
<g>
	<text transform="matrix(1 0 0 1 11.0105 36.5273)" class="st3 st4 st6" style="text-decoration: underline;">id</text>
</g>
<text transform="matrix(1 0 0 1 11.0105 46.7832)" class="st3 st4 st6">libelle</text>
<text transform="matrix(1 0 0 1 11.0105 57.0381)" class="st3 st4 st6">slug</text>
<text transform="matrix(1 0 0 1 11.0105 67.291)" class="st3 st4 st6">src</text>
<text transform="matrix(1 0 0 1 11.0105 77.5469)" class="st3 st4 st6">description</text>
<text transform="matrix(1 0 0 1 11.0105 87.8008)" class="st3 st4 st6">author</text>
<text transform="matrix(1 0 0 1 11.0105 98.0557)" class="st3 st4 st6">publi_date</text>
<text transform="matrix(1 0 0 1 11.0105 108.3105)" class="st3 st4 st6">validation</text>
<g>
	<text transform="matrix(1 0 0 1 266.2795 299.5898)" class="st3 st4 st6" style="text-decoration: underline;">id</text>
</g>
<text transform="matrix(1 0 0 1 266.2795 309.8447)" class="st3 st4 st6">libelle</text>
<text transform="matrix(1 0 0 1 266.2795 320.0986)" class="st3 st4 st6">description</text>
<g>
	<text transform="matrix(1 0 0 1 140.2351 387.2588)" class="st3 st4 st6" style="text-decoration: underline;">id</text>
</g>
<text transform="matrix(1 0 0 1 140.2351 408.5918)" class="st3 st4 st6">bg_img</text>
<text transform="matrix(1 0 0 1 140.2351 398.3369)" class="st3 st4 st6">libelle</text>
<text transform="matrix(1 0 0 1 140.2351 418.8457)" class="st3 st4 st6">banner_content</text>
<g>
	<text transform="matrix(1 0 0 1 8.2512 200.4883)" class="st3 st4 st6" style="text-decoration: underline;">id</text>
</g>
<text transform="matrix(1 0 0 1 8.2512 210.7422)" class="st3 st4 st6">slug</text>
<text transform="matrix(1 0 0 1 8.2512 220.998)" class="st3 st4 st6">name</text>
<text transform="matrix(1 0 0 1 8.2512 231.253)" class="st3 st4 st6">description</text>
<g>
	<text transform="matrix(1 0 0 1 10.4299 388.083)" class="st3 st4 st6" style="text-decoration: underline;">id</text>
</g>
<text transform="matrix(1 0 0 1 10.4299 398.3369)" class="st9"><tspan x="0" y="0" class="st3 st4 st6">name</tspan><tspan x="0" y="10.3" class="st3 st4 st6">slug</tspan></text>
<text transform="matrix(1 0 0 1 10.4299 418.8461)" class="st3 st4 st6">description</text>
<text transform="matrix(1 0 0 1 10.4299 429.1)" class="st3 st4 st6">tarif</text>
<g>
	<text transform="matrix(1 0 0 1 140.425 201.6504)" class="st3 st4 st6" style="text-decoration: underline;">id</text>
</g>
<text transform="matrix(1 0 0 1 140.425 211.9053)" class="st3 st4 st6">email</text>
<rect x="135.4" y="261.1" class="st1" width="91.1" height="68.6"/>
<rect x="135.4" y="261.1" class="st2" width="91.1" height="17.2"/>
<g>
	<text transform="matrix(1 0 0 1 155.4504 274.2676)" class="st3 st4 st5">Newsletters</text>
</g>
<g>
	<text transform="matrix(1 0 0 1 140.425 289.877)" class="st3 st4 st6" style="text-decoration: underline;">id</text>
</g>
<text transform="matrix(1 0 0 1 140.425 300.1328)" class="st3 st4 st6">name</text>
<text transform="matrix(1 0 0 1 140.425 310.3877)" class="st3 st4 st6">content</text>
<path class="st1" d="M207.3,55.8c0,7-5.7,12.6-12.6,12.6h-37c-7,0-12.6-5.7-12.6-12.7v-37c0-7,5.7-12.6,12.6-12.6h37
	c7,0,12.6,5.7,12.6,12.6V55.8L207.3,55.8z"/>
<line class="st8" x1="145.1" y1="21.9" x2="207.4" y2="21.9"/>
<g>
	<text transform="matrix(1 0 0 1 159.9099 18.0605)" class="st3 st4 st5">Ajouter</text>
</g>
<path class="st1" d="M457.6,116.7c0,7-5.7,12.7-12.6,12.7h-37c-7,0-12.6-5.7-12.6-12.7v-37c0-7,5.7-12.7,12.6-12.7h37
	c7,0,12.6,5.7,12.6,12.7V116.7z"/>
<line class="st8" x1="395.3" y1="82.9" x2="457.6" y2="82.9"/>
<g>
	<g>
		<text transform="matrix(1 0 0 1 410.1785 79.2568)" class="st3 st4 st5">Publier</text>
	</g>
</g>
<path class="st1" d="M457.6,321c0,7-5.7,12.6-12.6,12.6h-37c-7,0-12.6-5.7-12.6-12.6v-37c0-7,5.7-12.6,12.6-12.6h37
	c7,0,12.6,5.7,12.6,12.6V321z"/>
<line class="st8" x1="395.3" y1="287.2" x2="457.6" y2="287.2"/>
<g>
	<g>
		<text transform="matrix(1 0 0 1 407.8601 283.5957)" class="st3 st4 st5">Posseder</text>
	</g>
</g>
<path class="st1" d="M333.2,229c0,7-5.7,12.6-12.6,12.6h-37c-7,0-12.6-5.7-12.6-12.6v-37c0-7,5.7-12.6,12.6-12.6h37
	c7,0,12.6,5.7,12.6,12.6V229z"/>
<line class="st8" x1="271" y1="195.2" x2="333.3" y2="195.2"/>
<g>
	<g>
		<text transform="matrix(1 0 0 1 290.4485 191.5928)" class="st3 st4 st5">Avoir</text>
	</g>
</g>
<path class="st1" d="M82.1,314.1c0,7-5.7,12.6-12.7,12.6h-37c-7,0-12.6-5.7-12.6-12.6v-37c0-7,5.7-12.6,12.6-12.6h37
	c7,0,12.7,5.7,12.7,12.6V314.1z"/>
<line class="st8" x1="19.8" y1="280.3" x2="82.1" y2="280.3"/>
<g>
	<g>
		<text transform="matrix(1 0 0 1 27.7156 276.6553)" class="st3 st4 st5">Appartenir</text>
	</g>
</g>
<path class="st1" d="M457.6,215.3c0,7-5.7,12.6-12.6,12.6h-37c-7,0-12.6-5.7-12.6-12.6v-37c0-7,5.7-12.6,12.6-12.6h37
	c7,0,12.6,5.7,12.6,12.6V215.3z"/>
<line class="st8" x1="395.3" y1="181.5" x2="457.6" y2="181.5"/>
<path class="st1" d="M207.3,129.2c0,7-5.7,12.6-12.6,12.6h-37c-7,0-12.6-5.7-12.6-12.6v-37c0-7,5.7-12.7,12.6-12.7h37
	c7,0,12.6,5.7,12.6,12.7V129.2L207.3,129.2z"/>
<line class="st8" x1="145.1" y1="95.4" x2="207.4" y2="95.4"/>
<g>
	<g>
		<text transform="matrix(1 0 0 1 155.2678 91.748)" class="st3 st4 st5">Commenter</text>
	</g>
</g>
<g>
	<text transform="matrix(1 0 0 1 151.2463 122.4011)" class="st3 st4 st6">last_date</text>
</g>
<g>
	<text transform="matrix(1 0 0 1 151.2463 131.49)" class="st3 st4 st6">content</text>
</g>
<g>
	<text transform="matrix(1 0 0 1 151.2463 103.7661)" class="st3 st4 st6">id</text>
</g>
<g>
	<text transform="matrix(1 0 0 1 151.2463 112.855)" class="st3 st4 st6">date</text>
</g>
<g>
	<text transform="matrix(1 0 0 1 407.9197 177.1035)" class="st3 st4 st5">Inscrire</text>
</g>
<g>
	<text transform="matrix(1 0 0 1 403.197 193.0215)" class="st3 st4 st6">valid</text>
	<text transform="matrix(1 0 0 1 403.197 203.2764)" class="st3 st4 st6">date</text>
	<text transform="matrix(1 0 0 1 403.197 213.5264)" class="st3 st4 st6">valid_date</text>
</g>
</svg>
