<?xml version="1.0" encoding="utf-8"?>
<!-- Generator: Adobe Illustrator 16.0.0, SVG Export Plug-In . SVG Version: 6.00 Build 0)  -->
<!DOCTYPE svg PUBLIC "-//W3C//DTD SVG 1.1//EN" "http://www.w3.org/Graphics/SVG/1.1/DTD/svg11.dtd">
<svg version="1.1" id="Calque_1" xmlns="http://www.w3.org/2000/svg" xmlns:xlink="http://www.w3.org/1999/xlink" x="0px" y="0px"
	 width="55px" height="80px" viewBox="0 0 55 80" enable-background="new 0 0 55 80" xml:space="preserve">
<g>
	<path fill="#99C23B" d="M33.437,0.79h-0.005C21.145,8.63,10.923,19.334,3.726,31.947C8.589,18.658,17.917,7.469,29.925,0.154
		C29.012,0.057,28.086,0,27.151,0C17.87,0,9.773,5.023,5.498,12.476c0,0.006-0.004,0.006-0.004,0.008
		c-0.008,0.015-0.014,0.025-0.016,0.034c-1.044,1.811-1.851,3.771-2.399,5.838c-0.008,0.027-0.016,0.047-0.021,0.072
		C1.074,24.185,0,30.364,0,36.785c0,0.161,0,0.32,0.006,0.477c0,0.624,0.014,1.247,0.047,1.866c0.062,1.768,0.22,3.522,0.457,5.246
		c0.015,0.119,0.03,0.241,0.052,0.363c0.018-0.188,0.045-0.381,0.077-0.564c1.574-2.361,3.413-4.539,5.474-6.491
		c1.98-1.866,4.163-3.525,6.513-4.937c0.008-0.007,0.012-0.009,0.023-0.019c0.37-0.22,0.748-0.438,1.125-0.642
		c0.025-0.018,0.049-0.032,0.081-0.047c10.92-6.553,18.522-17.965,19.729-31.204c0.002-0.052,0.006-0.099,0.006-0.147
		C33.537,0.728,33.483,0.758,33.437,0.79z"/>
	<path fill="#049839" d="M43.612,10.159c-0.018,5.024-1.069,10.18-3.342,14.693c-1.388,2.765-3.431,5.063-5.048,7.688
		c-3.041,4.947-5.203,10.518-6.371,16.462c-0.582,2.951-0.888,5.998-0.888,9.121c0,7.694,1.973,14.989,5.359,21.877
		c-2.746-1.711-4.882-4.756-6.844-7.269c-2.16-2.763-4.076-5.715-5.724-8.804c-3.296-6.186-5.531-12.931-6.546-19.855
		c-0.294-2.006-0.488-4.03-0.567-6.057c-0.057-1.253-0.065-2.497-0.036-3.747c12.552-4.784,21.452-16.813,21.452-30.896
		c0-0.74-0.027-1.473-0.079-2.199c2.799,0.915,5.431,2.337,7.738,4.145c0.226,0.18,0.468,0.373,0.589,0.633
		c0.099,0.206,0.127,0.438,0.146,0.663C43.568,7.795,43.622,8.979,43.612,10.159z"/>
	<path fill="#086735" d="M55,29.758c0,0.256-0.044,0.498-0.127,0.718c-0.132,0.361-0.358,0.676-0.666,0.925
		c-0.225,0.188-0.406,0.494-0.607,0.711c-0.248,0.256-0.51,0.498-0.783,0.719c-0.15,0.118-0.309,0.236-0.396,0.405
		c-0.219,0.418,0.101,0.686,0.333,0.982c0.294,0.376,0.454,0.828,0.454,1.307c0,0.742-0.403,1.443-1.054,1.819
		c-0.124,0.075-0.258,0.13-0.393,0.178c0.058-0.02,0.174,0.008,0.234,0.018c0.085,0.014,0.164,0.035,0.243,0.061
		c0.164,0.057,0.312,0.137,0.447,0.245c0.255,0.207,0.431,0.501,0.498,0.819c0.062,0.315,0.008,0.646-0.145,0.931
		c-0.189,0.369-0.557,0.616-0.757,0.976c-0.224,0.388-0.348,0.821-0.356,1.263c0,0.025,0,0.045,0,0.066
		c0,0.264,0.036,0.511,0.104,0.744c0.063,0.131,0.112,0.265,0.156,0.408c-0.002,0.002,0,0.01,0.006,0.011
		c0.114,0.364,0.178,0.75,0.178,1.149c0,1.575-0.959,2.929-2.328,3.524c-0.364,0.163-0.755,0.268-1.171,0.31
		c-0.065,0.005-0.137,0.011-0.199,0.015c-0.968,0.084-1.929,0.121-2.897,0.138c-1.021,0.02-2.041-0.152-3.054-0.105
		c-0.923,0.04-1.831,0.289-2.658,0.692c-0.298,0.145-0.588,0.314-0.837,0.527c-0.475,0.414-0.826,0.992-1.12,1.531
		c-0.328,0.597-0.575,1.23-0.753,1.894c-0.394,1.504-0.614,3.071-0.642,4.692c-0.002,0.116-0.002,0.235-0.002,0.354
		c0,4.24,1.313,8.172,3.565,11.423c-0.558-0.808-1.646-1.48-2.329-2.218c-0.765-0.823-1.464-1.69-2.114-2.602
		c-1.304-1.838-2.359-3.848-3.122-5.958c-1.54-4.227-1.863-8.826-1.031-13.236c0.772-4.098,2.966-7.687,5.186-11.165
		c2.296-3.606,4.401-7.221,5.729-11.292c0.245-0.762,0.479-1.537,0.678-2.318c0.407-1.563,0.721-3.16,0.935-4.791
		c0.237-1.757,0.362-3.56,0.362-5.382c0-0.313-0.007-0.621-0.021-0.927c-0.014-0.74-0.059-1.476-0.134-2.216
		c-0.006-0.047-0.021-0.21-0.05-0.32c-0.012-0.059,0.191,0.202,0.224,0.249c0.045,0.067,0.087,0.136,0.13,0.208
		c0.083,0.145,0.181,0.283,0.277,0.423c0.194,0.3,0.385,0.601,0.573,0.908c0.368,0.612,0.721,1.234,1.049,1.871
		c0.33,0.633,0.631,1.28,0.909,1.941c0.227,0.543,0.434,1.088,0.623,1.642c0.843,2.464,1.343,5.042,1.467,7.638
		c0.01,0.128,0.016,0.259,0.016,0.39c1.712-0.285,3.236-1.117,4.386-2.299c-0.867,1.821-2.436,3.251-4.378,3.936
		c0.011,0.028,0,0.047,0,0.08c0.288,0.522,0.616,1.02,0.988,1.479c0.824,1.034,1.852,1.899,3.029,2.545
		c0.132,0.07,0.259,0.139,0.403,0.206C54.627,28.379,55,29.026,55,29.758z"/>
</g>
</svg>
