<?xml version="1.0" encoding="utf-8"?>
<!-- Generator: Adobe Illustrator 16.0.0, SVG Export Plug-In . SVG Version: 6.00 Build 0)  -->
<!DOCTYPE svg PUBLIC "-//W3C//DTD SVG 1.1//EN" "http://www.w3.org/Graphics/SVG/1.1/DTD/svg11.dtd">
<svg version="1.1" id="Calque_1" xmlns="http://www.w3.org/2000/svg" xmlns:xlink="http://www.w3.org/1999/xlink" x="0px" y="0px"
	 width="187.087px" height="130.748px" viewBox="0 0 187.087 130.748" enable-background="new 0 0 187.087 130.748"
	 xml:space="preserve">
<g>
	<g>
		<path d="M181.95,44.131c-13.878-28.075-48.272-43.933-89.669-44.13c-21.094-0.1-40.148,5.068-56.625,14.053
			C12.68,26.583,0,45.513,0,66.31c0,35.711,40.742,64.455,91.251,64.455c21.295,0,42.424-3.77,59.027-12.949
			c22.776-12.594,35.506-32.559,36.754-53.154C187.476,57.346,185.205,50.716,181.95,44.131z M183.827,69.269h-0.59
			c-2.09,17.91-15.854,34.324-37.473,44.654c-14.968,7.15-33.734,10.861-53.689,10.861c-51.153,0-88.503-25.971-88.503-57.5
			c0-1.169,0.059-2.344,0.161-3.522H1.867l1.167-4.146h1.26c3.406-18.352,18.739-36.7,42.411-44.783
			c14.065-4.803,30.463-7.931,48.047-7.931c51.014,0,88.796,26.243,88.764,57.657h1.272L183.827,69.269z"/>
		<path d="M3.034,59.616l-1.167,4.146h1.866c0.12-1.379,0.304-2.762,0.561-4.146H3.034z"/>
		<path d="M31.456,59.616H4.294C4.037,61,3.853,62.382,3.733,63.762h26.453L31.456,59.616z"/>
		<polygon points="64.889,58.998 41.513,58.998 47.28,41.492 68.184,41.492 69.008,38.3 48.412,38.3 53.355,21.617 74.465,21.617 
			75.907,17.601 49.648,17.601 35.54,63.632 63.962,63.632 		"/>
		<path d="M108.55,57.557c4.325,6.59,13.696,5.767,13.696,5.767c12.255-0.103,18.33-9.886,18.33-9.783c0,0,5.869-8.033,6.797-16.786
			c1.041-9.845-0.928-14.829-7.621-18.948s-17.608-0.721-20.184,1.545c0,0-3.089,1.441-7.517,6.693s-6.179,16.167-6.179,16.167
			S104.226,50.966,108.55,57.557z M111.743,40.256c0,0,1.807-7.647,4.84-11.945c3.708-5.252,7.105-8.238,14.623-8.341
			c0,0,10.504-0.824,11.122,9.783c0.617,10.606-4.84,19.772-4.84,19.772s-4.84,9.783-15.652,10.091
			c-9.573,0.274-10.607-6.693-10.607-6.693S109.889,47.979,111.743,40.256z"/>
		<polygon points="79.151,89.272 100.003,89.272 101.188,85.257 80.49,85.257 85.639,69.554 106.388,69.554 107.831,65.485 
			81.674,65.485 67.566,111.517 96.296,111.517 97.841,106.677 74.029,106.677 		"/>
		<path d="M183.523,64.813c-0.012,1.494-0.114,2.979-0.286,4.455h0.59l0.961-4.709h-1.272
			C183.515,64.645,183.524,64.728,183.523,64.813z"/>
		<path d="M183.515,64.559h-7.789l-1.27,4.709h8.78c0.172-1.477,0.274-2.961,0.286-4.455
			C183.524,64.728,183.515,64.645,183.515,64.559z"/>
		<polygon points="138.108,69.144 152.276,69.144 139.547,111.413 144.49,111.31 156.95,69.165 168.999,69.165 170.474,64.559 
			139.675,64.559 		"/>
		<path d="M129.352,65.485h-16.477l-14.005,46.031h4.585l6.537-22.191c0,0,7.26-0.207,12.614,0c5.355,0.205,3.772,6.023,3.772,6.023
			l-1.146,15.859h5.355c0,0-0.412-3.502,0.411-13.594c0.824-10.092-3.707-10.504-3.707-10.504s11.272-4.127,10.916-12.15
			C137.796,65.69,129.352,65.485,129.352,65.485z M133.032,78.472c-1.411,3.379-6.769,6.734-10.248,6.734h-11.553l4.786-15.652
			h12.512C128.529,69.554,136.561,70.017,133.032,78.472z"/>
		<path d="M62.314,100.806c0,0-2.266,7.518-11.946,7.416c-9.68-0.104-10.206-5.764-10.297-9.783
			c-0.103-4.531,0.824-9.063,0.824-9.063c2.163-8.238,4.84-10.916,4.84-10.916c2.06-3.707,4.586-6.188,7.573-8.125
			c3.343-2.172,7.05-1.76,7.05-1.76c11.431-0.309,8.959,9.783,8.959,9.783h5.046c1.133-11.123-8.135-12.977-13.696-12.977
			c-5.561,0-11.019,3.09-11.019,3.09C42.646,72.075,37.806,83.61,37.806,83.61s-4.017,9.268-1.854,19.564
			c1.935,9.213,14.417,9.166,14.417,9.166c14.623,0,17.712-11.535,17.712-11.535H62.314z"/>
		<path d="M70.553,54.57c1.934,9.212,14.417,9.165,14.417,9.165c14.622,0,17.712-11.533,17.712-11.533h-5.767
			c0,0-2.266,7.517-11.945,7.414c-9.68-0.103-10.207-5.763-10.298-9.783c-0.103-4.531,0.824-9.062,0.824-9.062
			c2.162-8.238,4.84-10.916,4.84-10.916c2.059-3.708,4.586-6.187,7.573-8.126c3.343-2.171,7.049-1.759,7.049-1.759
			c11.431-0.309,8.959,9.783,8.959,9.783h5.046c1.133-11.122-8.135-12.975-13.695-12.975c-5.561,0-11.019,3.089-11.019,3.089
			c-7.002,3.604-11.843,15.138-11.843,15.138S68.39,44.272,70.553,54.57z"/>
	</g>
	<path fill-rule="evenodd" clip-rule="evenodd" d="M172.927,118.835v-5.184h0.524c0.742,0,1.604-0.035,2.279,0.285
		c0.912,0.406,1.351,1.352,1.351,2.297c0,0.762-0.286,1.521-0.895,2.01c-0.642,0.559-1.436,0.592-2.229,0.592H172.927
		L172.927,118.835z M174.245,119.595c2.111,0.035,3.648-1.115,3.648-3.326c0-1.082-0.372-2.096-1.284-2.736
		c-0.86-0.625-1.874-0.643-2.904-0.643h-1.588v12.734h0.811v-6.029h0.406l4.154,6.029h0.928L174.245,119.595L174.245,119.595z"/>
	<path d="M174.562,128.735c-5.286,0-9.587-4.301-9.587-9.588s4.301-9.588,9.587-9.588s9.586,4.301,9.586,9.588
		S179.848,128.735,174.562,128.735z M174.562,110.384c-4.832,0-8.763,3.932-8.763,8.764s3.931,8.764,8.763,8.764
		c4.831,0,8.762-3.932,8.762-8.764S179.393,110.384,174.562,110.384z"/>
</g>
</svg>
