<?xml version="1.0" encoding="utf-8"?>
<!-- Generator: Adobe Illustrator 16.0.0, SVG Export Plug-In . SVG Version: 6.00 Build 0)  -->
<!DOCTYPE svg PUBLIC "-//W3C//DTD SVG 1.1//EN" "http://www.w3.org/Graphics/SVG/1.1/DTD/svg11.dtd">
<svg version="1.1" id="Layer_4" xmlns="http://www.w3.org/2000/svg" xmlns:xlink="http://www.w3.org/1999/xlink" x="0px" y="0px"
	 width="340.157px" height="340.157px" viewBox="0 0 340.157 340.157" enable-background="new 0 0 340.157 340.157"
	 xml:space="preserve">
<g>
	<g>
		<path fill="#222323" d="M51.65,190.952c1.841,10.604-7.715,13.606-16.049,15.001c-10.079,1.705-20.038,2.09-21.879-8.52
			c-1.84-10.604,7.673-13.551,17.729-15.397C39.776,180.597,49.775,180.156,51.65,190.952 M47.986,191.387
			c-1.079-6.194-7.837-6.617-15.914-5.166c-10.496,1.874-15.877,3.906-14.72,10.586c1.161,6.68,6.917,6.781,17.427,5.003
			C42.873,200.454,49.095,197.778,47.986,191.387z"/>
	</g>
	<path fill="#222323" d="M21.514,223.937l-1.547-3.777l34.1-13.969l3.594,8.774c2.925,7.137,2.925,12.449-5.033,15.442
		c-4.057,1.502-7.927,0.226-10.093-3.513l-0.093,0.04c1.397,4.579,0.435,6.25-3.888,8.655c-2.487,1.181-4.895,2.434-7.292,3.84
		c-0.584,0.395-1.97,1.281-1.598,2.196l-0.773,0.315l-1.807-4.415c1.846-1.711,5.925-3.806,8.201-4.737
		c3.411-1.399,5.759-3.952,3.936-8.406l-2.705-6.595L21.514,223.937 M39.926,216.388l2.442,5.962
		c0.771,1.751,3.055,6.55,8.972,4.015c5.83-2.49,4.085-7.137,3.043-9.684l-2.182-5.318L39.926,216.388z"/>
	<path fill="#222323" d="M45.741,268.625l-1.77-2.597l4.751-3.235l-0.054-0.079c-4.063,1.457-7.701-0.045-9.997-3.422
		c-6.168-9.051,2.38-15.882,9.525-20.749c7.108-4.845,16.493-9.396,22.497-0.582c3.952,5.811,2.445,11.716-3.297,15.505l-2.323-3.41
		c3.709-2.586,5.228-5.94,2.682-9.858c-4.413-6.741-12.103-1.62-17.3,1.914c-4.633,3.156-12.876,8.418-9.068,14.618
		c3.975,6.453,10.087,3.122,14.892-0.209l-4.619-6.787l3.046-2.072l6.917,10.152L45.741,268.625"/>
	<path fill="#222323" d="M83.226,254.606l3.831,3.811l-18.629,33.448l-3.207-3.19l5.429-9.57l-8.258-8.209l-9.403,5.617
		l-3.204-3.184L83.226,254.606 M83.031,258.569l-0.071-0.067l-17.274,10.474l6.899,6.854L83.031,258.569z"/>
	<path fill="#222323" d="M110.559,276.118l3.416,2.225l-20.117,30.878l-5.601-3.647l7.45-30.336c0.418-1.723,0.96-3.359,1.877-5.403
		l-0.082-0.057c-0.977,1.592-1.981,3.229-3,4.794l-16.043,24.616l-3.416-2.225l20.12-30.878l5.556,3.619l-7.701,30.991
		c-0.246,1.191-0.599,2.366-1.129,4.076l0.082,0.057c0.684-1.146,1.42-2.36,2.171-3.518L110.559,276.118"/>
	<polyline fill="#222323" points="104.179,314.049 119.288,280.438 123.009,282.108 107.899,315.72 104.179,314.049 	"/>
	<g>
		<path fill="#222323" d="M141.466,299.854c1.098-4.235,0.742-8.216-4.172-9.61c-6.812-1.925-9.649,7.741-10.974,12.422
			c-1.552,4.766-4.689,15.47,2.499,17.509c4.681,1.326,6.758-2.225,8.328-5.969c0.322-0.773,0.599-1.563,0.92-2.343l3.924,1.112
			c-0.293,0.684-0.508,1.439-0.804,2.123c-1.053,2.812-1.813,4.951-4.207,6.928c-2.569,2.032-5.429,2.75-8.833,1.79
			c-10.922-3.095-8.317-13.743-5.92-22.212c2.261-7.983,6.281-17.678,16.351-14.821c6.716,1.897,8.797,7.899,6.812,14.184
			L141.466,299.854"/>
		<path fill="#222323" d="M177.59,301.576c0.276-3.839-1.796-6.73-5.875-6.708c-5.948,0.023-6.569,3.755-6.561,6.606
			c0.011,2.558,1.146,4.122,3.509,4.997c1.968,0.733,3.891,1.462,5.855,2.19c6.989,2.574,8.276,5.025,8.294,9.892
			c0.028,6.979-4.331,11.072-11.405,11.101c-3.633,0.017-7.967-0.999-10.098-5.804c-0.791-1.818-0.754-4.766-0.81-6.73l4.076-0.018
			c-0.175,5.455,0.873,8.894,7.016,8.87c4.124-0.022,7.015-2.146,6.998-6.465c-0.022-5.606-2.281-5.646-6.019-7.058
			c-2.019-0.773-5.268-1.795-7.235-2.822c-3.498-1.751-4.393-4.698-4.407-8.334c-0.022-6.092,4.238-10.09,10.23-10.112
			c6.736-0.028,10.875,3.444,10.508,10.378L177.59,301.576"/>
	</g>
	<polyline fill="#222323" points="182.711,291.916 205.442,287.574 206.137,291.198 196.77,292.982 202.986,325.566 
		198.978,326.334 192.767,293.751 183.399,295.535 182.711,291.916 	"/>
	<path fill="#222323" d="M212.511,284.717l5.042-1.942l22.946,30.653l-4.224,1.626l-6.521-8.859l-10.868,4.195l1.298,10.875
		l-4.217,1.626L212.511,284.717 M216.051,286.513l-0.096,0.033l2.523,20.05l9.073-3.501L216.051,286.513z"/>
	<path fill="#222323" d="M243.266,268.519l3.421-2.214l20.032,30.93l-5.611,3.636l-24.686-19.14c-1.4-1.085-2.682-2.247-4.172-3.913
		l-0.085,0.057c1.062,1.535,2.14,3.122,3.156,4.686l15.973,24.663l-3.427,2.219l-20.027-30.936l5.567-3.602l25.182,19.631
		c0.988,0.712,1.92,1.514,3.264,2.688l0.085-0.051c-0.763-1.084-1.581-2.258-2.326-3.41L243.266,268.519"/>
	<path fill="#222323" d="M276.938,288.839l-26.351-25.77l7.075-7.232c8.04-8.221,15.814-2.817,22.11,3.749
		c6.222,6.499,11.727,14.358,4.76,21.489L276.938,288.839 M277.153,283.345l4.567-4.669c4.195-4.291,2.711-9.17-5.432-16.583
		c-6.21-5.669-11.038-8.74-15.645-4.031l-4.574,4.669L277.153,283.345z"/>
	<path fill="#222323" d="M271.959,238.531l2.947-4.528l36.553,11.4l-2.462,3.788l-10.484-3.354l-6.347,9.762l7.425,8.052
		l-2.467,3.788L271.959,238.531 M275.883,237.916l-0.057,0.079l13.788,14.771l5.302-8.153L275.883,237.916z"/>
	<path fill="#222323" d="M315.807,235.726l-1.53,3.783l-34.159-13.828l3.558-8.791c2.891-7.147,6.605-10.947,14.392-7.531
		c3.952,1.762,5.827,5.381,4.771,9.559l0.09,0.039c2.196-4.251,4.054-4.771,8.831-3.472c2.603,0.897,5.2,1.683,7.898,2.349
		c0.694,0.118,2.31,0.457,2.677-0.452l0.773,0.311l-1.784,4.416c-2.524-0.063-6.905-1.412-9.181-2.338
		c-3.416-1.378-6.889-1.197-8.695,3.27l-2.671,6.605L315.807,235.726 M297.36,228.262l2.417-5.969
		c0.672-1.795,2.389-6.82-3.613-9.146c-5.912-2.286-7.91,2.259-8.943,4.805l-2.157,5.33L297.36,228.262z"/>
	<path fill="#222323" d="M325.546,208.517l-36.287-6.408l1.756-9.971c1.999-11.32,11.467-11.247,20.371-9.379
		c8.802,1.858,17.785,5.24,16.052,15.064L325.546,208.517 M322.627,203.858l1.135-6.437c1.045-5.899-2.93-9.096-13.838-10.626
		c-8.322-1.174-14.048-0.982-15.194,5.5l-1.135,6.437L322.627,203.858z"/>
	<path fill="#222323" d="M29.035,123.938c-3.614-1.315-6.962-0.107-8.06,3.822c-1.598,5.725,1.83,7.346,4.573,8.114
		c2.462,0.683,4.28,0.022,5.768-2.016c1.239-1.694,2.465-3.343,3.698-5.037c4.387-6.019,7.097-6.595,11.781-5.279
		c6.722,1.875,9.474,7.182,7.574,13.997c-0.979,3.5-3.136,7.391-8.342,8.13c-1.965,0.265-4.788-0.57-6.696-1.05l1.098-3.93
		c5.2,1.654,8.789,1.581,10.44-4.331c1.112-3.975-0.144-7.334-4.308-8.498c-5.397-1.507-6.05,0.655-8.43,3.868
		c-1.296,1.733-3.162,4.579-4.686,6.194c-2.64,2.885-5.72,2.947-9.22,1.965c-5.869-1.637-8.554-6.826-6.942-12.602
		c1.81-6.482,6.281-9.52,12.848-7.278L29.035,123.938"/>
	<path fill="#222323" d="M29.396,96.447c4.946-9.559,14.369-6.177,21.853-2.247c9.054,4.743,17.215,10.457,12.269,20.016
		c-4.946,9.559-14.301,6.148-23.428,1.536C32.589,111.872,24.359,106.175,29.396,96.447 M32.58,98.31
		c-2.894,5.584,2.23,10.011,9.542,13.737c9.491,4.861,15.008,6.493,18.124,0.474c3.117-6.024-1.406-9.582-10.852-14.522
		C42.128,94.183,35.562,92.551,32.58,98.31z"/>
	<polyline fill="#222323" points="70.765,100.433 40.813,78.967 43.189,75.652 73.142,97.119 70.765,100.433 	"/>
	<polyline fill="#222323" points="77.108,91.659 50.405,66.263 53.217,63.31 77.247,86.166 87.61,75.269 90.281,77.804 
		77.108,91.659 	"/>
	<path fill="#222323" d="M89.804,33.295l4.684-2.693l27.37,26.768l-3.918,2.253l-7.806-7.752l-10.093,5.81l2.95,10.547l-3.916,2.259
		L89.804,33.295 M93.572,34.532l-0.084,0.045L99.052,54l8.432-4.856L93.572,34.532z"/>
	<g>
		<path fill="#222323" d="M131.068,25.921c-0.9-3.744-3.752-5.866-7.633-4.613c-5.658,1.829-5.119,5.578-4.243,8.288
			c0.788,2.434,2.346,3.58,4.861,3.698c2.095,0.096,4.147,0.209,6.245,0.311c7.438,0.333,9.409,2.275,10.905,6.905
			c2.143,6.634-0.765,11.863-7.495,14.036c-3.461,1.118-7.894,1.468-11.383-2.467c-1.307-1.485-2.165-4.308-2.817-6.166l3.882-1.253
			c1.488,5.251,3.529,8.209,9.373,6.318c3.924-1.265,6.033-4.167,4.706-8.283c-1.719-5.33-3.89-4.681-7.879-4.89
			c-2.157-0.13-5.561-0.113-7.749-0.491c-3.862-0.609-5.609-3.145-6.73-6.6c-1.869-5.798,0.974-10.903,6.679-12.743
			c6.403-2.072,11.402-0.023,13.158,6.696L131.068,25.921"/>
		<path fill="#222323" d="M161.797,20.727c-0.099-3.845-2.448-6.516-6.507-6.098c-5.914,0.616-6.163,4.393-5.869,7.233
			c0.263,2.535,1.55,3.986,3.983,4.624c2.033,0.531,4.012,1.067,6.042,1.592c7.21,1.875,8.734,4.189,9.234,9.028
			c0.717,6.939-3.215,11.444-10.25,12.173c-3.617,0.373-8.023-0.209-10.624-4.782c-0.968-1.728-1.222-4.664-1.471-6.612l4.057-0.417
			c0.364,5.443,1.742,8.757,7.854,8.125c4.104-0.423,6.772-2.823,6.326-7.125c-0.576-5.573-2.829-5.386-6.69-6.419
			c-2.083-0.576-5.417-1.271-7.476-2.095c-3.653-1.395-4.836-4.24-5.208-7.859c-0.626-6.058,3.215-10.457,9.178-11.072
			c6.694-0.694,11.16,2.354,11.479,9.288L161.797,20.727"/>
		<path fill="#222323" d="M188.526,11.038c10.699,1.141,10.97,11.151,10.027,19.553c-1.129,10.157-3.489,19.84-14.194,18.7
			c-10.699-1.141-10.931-11.095-9.943-21.269C175.309,19.615,177.629,9.881,188.526,11.038 M187.939,14.686
			c-6.251-0.667-8.515,5.714-9.334,13.878c-1.078,10.609-0.598,16.346,6.144,17.063c6.741,0.717,8.413-4.788,9.593-15.386
			C195.256,22.087,194.393,15.369,187.939,14.686z"/>
	</g>
	<path fill="#222323" d="M223.317,31.138c1.242-4.195,1.027-8.181-3.833-9.751c-6.736-2.162-9.915,7.396-11.4,12.026
		c-1.722,4.709-5.228,15.301,1.881,17.582c4.63,1.491,6.831-1.982,8.531-5.668c0.35-0.762,0.648-1.547,0.999-2.304l3.885,1.242
		c-0.322,0.677-0.56,1.423-0.881,2.095c-1.152,2.778-1.987,4.884-4.449,6.77c-2.637,1.942-5.522,2.563-8.887,1.479
		c-10.802-3.473-7.826-14.025-5.133-22.398c2.541-7.904,6.899-17.441,16.859-14.239c6.646,2.134,8.509,8.209,6.307,14.415
		L223.317,31.138"/>
	<polyline fill="#222323" points="223.831,59.516 240.222,26.514 243.875,28.327 227.484,61.328 223.831,59.516 	"/>
	<path fill="#222323" d="M261.321,38.721l4.404,3.133l-12.901,36.045l-3.688-2.62l3.789-10.333l-9.497-6.747l-8.351,7.086
		l-3.681-2.62L261.321,38.721 M261.773,42.662l-0.079-0.057l-15.323,13.161l7.927,5.641L261.773,42.662z"/>
	<polyline fill="#222323" points="278.367,51.696 294.357,68.425 291.692,70.966 285.108,64.078 261.135,87.001 258.318,84.048 
		282.285,61.13 275.702,54.242 278.367,51.696 	"/>
	<polyline fill="#222323" points="267.701,94.725 297.102,72.507 299.557,75.76 270.158,97.977 267.701,94.725 	"/>
	<path fill="#222323" d="M312.125,94.268c5.104,9.469-2.998,15.352-10.462,19.321c-9.017,4.805-18.339,8.328-23.448-1.14
		c-5.109-9.474,2.976-15.284,11.925-20.225C297.575,88.209,306.92,84.624,312.125,94.268 M308.789,95.843
		c-2.987-5.533-9.531-3.794-16.73,0.147c-9.355,5.104-13.821,8.74-10.603,14.702c3.224,5.968,8.706,4.24,18.112-0.779
		C306.818,106.063,311.865,101.551,308.789,95.843z"/>
	<path fill="#222323" d="M325.676,130.663l1.186,3.907l-35.276,10.666l-1.931-6.392l25.227-18.412
		c1.429-1.05,2.902-1.959,4.918-2.925l-0.028-0.096c-1.773,0.587-3.591,1.191-5.381,1.728l-28.124,8.509l-1.18-3.901l35.271-10.671
		l1.92,6.352l-25.843,18.75c-0.954,0.751-1.981,1.417-3.489,2.389l0.028,0.096c1.259-0.435,2.608-0.892,3.924-1.293L325.676,130.663
		"/>
	<path fill="#222323" d="M28.526,160.519c-1.361,0-2.462,1.107-2.462,2.467c0,1.361,1.101,2.462,2.462,2.462
		s2.464-1.101,2.464-2.462C30.991,161.626,29.887,160.519,28.526,160.519"/>
	<path fill="#222323" d="M312.922,160.519c-1.361,0-2.462,1.107-2.462,2.467c0,1.361,1.101,2.462,2.462,2.462
		c1.36,0,2.467-1.101,2.467-2.462C315.389,161.626,314.282,160.519,312.922,160.519"/>
	<path fill="#222323" d="M171.063,60.12c-60.566,0-109.836,49.271-109.836,109.834c0,60.56,49.271,109.834,109.836,109.834
		c60.561,0,109.834-49.274,109.834-109.834C280.896,109.391,231.623,60.12,171.063,60.12z M272.032,169.954
		c0,10.208-1.553,20.055-4.382,29.349c0.018-0.475,0.063-0.96,0.063-1.435c0-18.293-10.688-35.153-31.217-48.616
		c0,0-15.488-9.759-16.024-10.098c0.068-0.938,0.136-1.872,0.136-1.872c0.248-2.837,0.564-6.474,0.564-10.703
		c0-5.841-0.604-12.808-2.834-20.346c-3.473-11.767-9.633-21.111-16.634-26.364l0.067-0.074c-2.343-2.14-6.538-5.939-12.545-9.087
		C236.253,79.3,272.032,120.488,272.032,169.954z M243.479,213.926c-3.077-5.381-9.13-9.181-17.999-11.298
		c-17.486-4.167-35.887,5.753-57.19,17.237l-16.854,8.882c-17.325,8.723-41.804,14.77-60.038-5.985
		c-3.345-3.811-4.983-9.412-5.791-14.962c2.939,1.886,6.062,2.947,9.378,2.964c6.202,0.034,12.523-3.313,18.791-9.932
		c12.356-13.07,12.966-33.97,13.669-58.166l0.737-19.024c0.955-16.755,6.756-45.395,34.888-48.949
		c7.25-0.917,13.277,0.195,18.409,2.253c-3.845,1.621-6.77,4.102-8.703,7.416c-3.123,5.355-3.385,12.5-0.779,21.235
		c5.135,17.237,22.932,28.216,43.54,40.926l16.092,10.143c16.221,10.637,33.695,28.809,24.837,54.985
		c-1.417,4.201-5.104,8.39-10.88,12.534C245.879,220.441,245.23,216.986,243.479,213.926z M236.129,226.945
		c-2.281,7.396-17.074,10.548-32.296,6.883c-10.135-2.438-17.486-7.046-22.794-10.688c16.516-8.707,30.246-14.782,42.386-11.886
		c6.296,1.502,10.569,3.947,12.359,7.075C237.094,220.622,237.207,223.439,236.129,226.945z M85.228,191.33
		c0-6.934,4.593-16.679,12.359-24.857c7.165-7.541,14.821-11.603,20.625-14.378c-0.72,18.612-2.313,33.588-10.877,42.645
		c-4.449,4.697-8.707,7.177-12.306,7.159c-2.64-0.011-5.138-1.321-7.631-4.009C85.922,196.299,85.228,194.029,85.228,191.33z
		 M187.73,84.22c7.549-1.722,17.672,9.508,22.104,24.527c1.937,6.549,2.473,12.591,2.473,17.785c0,2.784-0.209,4.997-0.384,7.238
		c-15.73-9.915-27.875-18.776-31.432-30.706c-0.932-3.137-1.4-5.943-1.4-8.356c0-2.36,0.445-4.342,1.344-5.88
		C181.768,86.546,184.15,85.039,187.73,84.22z M142.355,73.202c-13.531,9.263-21.687,26.509-23.025,49.938
		c0,0-0.664,17.15-0.734,18.928c-0.841,0.407-1.688,0.816-1.688,0.816c-6.141,2.866-16.419,7.665-25.75,17.483
		c-9.056,9.539-14.135,20.332-14.646,29.427l-0.116-0.011c-0.305,3.348-0.547,8.797-0.071,14.771
		c-3.96-10.813-6.236-22.433-6.236-34.6C70.09,124.257,100.63,85.604,142.355,73.202z M171.063,270.924
		c-28.679,0-54.542-12.077-72.942-31.342c15.781,8.903,35.559,8.034,57.302-2.919c0,0,16.165-8.515,16.764-8.831
		c0.771,0.525,1.541,1.051,1.541,1.051c5.556,3.89,14.85,10.394,28.027,13.562c12.495,3.015,24.148,2.146,32.262-1.728l0.063,0.13
		c3.41-1.575,10.519-4.879,17.164-9.773C232.78,255.238,203.754,270.924,171.063,270.924z"/>
</g>
</svg>
