<svg xmlns="http://www.w3.org/2000/svg" width="340.157" height="340.157"><path fill="#222323" d="M51.65 190.95c1.84 10.6-7.7 13.6-16.05 15-10.08 1.7-20.04 2.1-21.88-8.52-1.84-10.6 7.67-13.55 17.73-15.4 8.33-1.43 18.32-1.87 20.2 8.92m-3.66.44c-1.1-6.2-7.85-6.63-15.93-5.18-10.5 1.88-15.88 3.9-14.72 10.6 1.16 6.67 6.92 6.77 17.43 5 8.1-1.37 14.3-4.04 13.2-10.43zM21.5 223.94l-1.53-3.78 34.1-13.97 3.6 8.77c2.92 7.13 2.92 12.44-5.04 15.44-4.06 1.5-7.93.23-10.1-3.5l-.1.03c1.4 4.58.45 6.25-3.88 8.66-2.48 1.17-4.9 2.42-7.3 3.83-.57.4-1.96 1.28-1.6 2.2l-.76.3-1.82-4.4c1.85-1.72 5.93-3.8 8.2-4.74 3.42-1.4 5.76-3.96 3.94-8.42l-2.7-6.6-15 6.16m18.4-7.55l2.45 5.95c.77 1.75 3.05 6.55 8.97 4 5.83-2.48 4.1-7.12 3.04-9.67l-2.18-5.32-12.27 5.03zM45.74 268.63l-1.77-2.6 4.75-3.24-.05-.1c-4.07 1.47-7.7-.03-10-3.4-6.17-9.06 2.38-15.9 9.53-20.76 7.1-4.84 16.5-9.4 22.5-.58 3.94 5.8 2.44 11.72-3.3 15.5l-2.33-3.4c3.7-2.6 5.23-5.94 2.69-9.86-4.42-6.74-12.1-1.62-17.3 1.9-4.64 3.17-12.88 8.43-9.07 14.63 3.96 6.45 10.07 3.12 14.88-.2l-4.62-6.8 3.05-2.07 6.92 10.15-15.88 10.82"/><path fill="#222323" d="M83.23 254.6l3.83 3.82-18.63 33.44-3.2-3.2 5.42-9.56-8.26-8.2-9.4 5.6-3.2-3.17 33.43-18.72m-.2 3.97l-.07-.07-17.27 10.48 6.9 6.85 10.43-17.26zM110.56 276.12l3.4 2.22-20.1 30.88-5.6-3.65 7.45-30.33c.42-1.73.97-3.36 1.88-5.4l-.08-.06c-.98 1.6-1.98 3.23-3 4.8l-16.04 24.6-3.42-2.22 20.12-30.88 5.56 3.62-7.7 31c-.25 1.2-.6 2.36-1.13 4.07l.07.06c.7-1.15 1.42-2.36 2.17-3.52l16.42-25.18M104.18 314.05l15.1-33.6 3.73 1.66-15.1 33.62-3.72-1.67"/><g fill="#222323"><path d="M141.47 299.85c1.1-4.23.74-8.2-4.18-9.6-6.82-1.93-9.65 7.73-10.98 12.42-1.55 4.76-4.7 15.47 2.5 17.5 4.68 1.33 6.76-2.22 8.33-5.96.32-.77.6-1.56.92-2.34l3.92 1.1c-.3.7-.52 1.45-.8 2.14-1.07 2.8-1.83 4.95-4.22 6.93-2.57 2.03-5.43 2.75-8.83 1.8-10.92-3.1-8.32-13.76-5.92-22.23 2.26-7.98 6.28-17.67 16.35-14.82 6.7 1.9 8.8 7.9 6.8 14.2l-3.9-1.13M177.6 301.58c.27-3.84-1.8-6.73-5.88-6.7-5.95 0-6.57 3.74-6.57 6.6 0 2.55 1.15 4.12 3.5 5 1.98.72 3.9 1.45 5.87 2.18 7 2.57 8.27 5.03 8.3 9.9.02 6.97-4.34 11.06-11.4 11.1-3.65 0-7.98-1-10.1-5.8-.8-1.83-.77-4.78-.82-6.74l4.07-.02c-.17 5.46.88 8.9 7.02 8.87 4.1-.02 7-2.14 7-6.46-.03-5.6-2.3-5.64-6.03-7.05-2.02-.77-5.27-1.8-7.24-2.82-3.5-1.75-4.4-4.7-4.4-8.34-.02-6.1 4.24-10.1 10.23-10.12 6.73-.03 10.87 3.45 10.5 10.38l-4.07.02"/></g><path fill="#222323" d="M182.7 291.92l22.74-4.35.7 3.63-9.37 1.78 6.22 32.6-4.02.75-6.2-32.58-9.38 1.8-.7-3.63"/><path fill="#222323" d="M212.5 284.72l5.05-1.95 22.95 30.66-4.23 1.62-6.52-8.86-10.86 4.2 1.28 10.87-4.2 1.62-3.47-38.18m3.55 1.8l-.1.03 2.53 20.05 9.07-3.5-11.5-16.6zM243.27 268.52l3.42-2.2 20.02 30.92-5.6 3.63-24.7-19.14c-1.4-1.08-2.68-2.25-4.17-3.9l-.1.05c1.08 1.53 2.15 3.12 3.17 4.68l15.97 24.66-3.43 2.22-20.03-30.93 5.57-3.6 25.2 19.64c.98.7 1.9 1.5 3.25 2.68l.1-.05c-.77-1.08-1.6-2.25-2.34-3.4l-16.33-25.25"/><path fill="#222323" d="M276.94 288.84l-26.35-25.77 7.06-7.23c8.04-8.22 15.82-2.82 22.1 3.75 6.23 6.48 11.74 14.34 4.77 21.47l-7.6 7.77m.22-5.5l4.57-4.66c4.2-4.3 2.7-9.17-5.43-16.6-6.22-5.66-11.05-8.73-15.66-4.02l-4.57 4.67 21.08 20.62zM271.96 238.53l2.95-4.53 36.56 11.4-2.46 3.8-10.5-3.36-6.33 9.76 7.42 8.05-2.48 3.8-25.16-28.92m3.92-.6l-.05.06 13.78 14.77 5.32-8.16-19.04-6.68zM315.8 235.73l-1.52 3.78-34.16-13.82 3.56-8.8c2.9-7.14 6.6-10.94 14.4-7.52 3.94 1.76 5.82 5.38 4.76 9.56l.1.04c2.2-4.25 4.04-4.77 8.82-3.48 2.6.9 5.2 1.7 7.9 2.35.7.12 2.3.46 2.68-.45l.77.3-1.78 4.43c-2.52-.05-6.9-1.4-9.18-2.33-3.4-1.38-6.9-1.2-8.7 3.27l-2.66 6.6 15.03 6.1m-18.44-7.48l2.42-5.97c.67-1.8 2.4-6.83-3.62-9.15-5.9-2.3-7.9 2.26-8.94 4.8l-2.16 5.33 12.3 4.98zM325.55 208.52l-36.3-6.4 1.77-9.98c2-11.32 11.46-11.25 20.37-9.38 8.8 1.86 17.77 5.24 16.04 15.06l-1.9 10.7m-2.9-4.66l1.12-6.44c1.05-5.9-2.93-9.1-13.84-10.62-8.32-1.18-14.04-1-15.2 5.5l-1.13 6.43 29.03 5.13zM29.04 123.94c-3.62-1.32-6.97-.1-8.06 3.82-1.6 5.72 1.83 7.35 4.57 8.1 2.46.7 4.28.04 5.77-2 1.24-1.7 2.46-3.35 3.7-5.04 4.38-6.02 7.1-6.6 11.78-5.28 6.72 1.88 9.47 7.18 7.57 14-.98 3.5-3.14 7.4-8.34 8.13-1.97.26-4.8-.57-6.7-1.05l1.1-3.93c5.2 1.64 8.8 1.57 10.44-4.34 1.1-3.98-.14-7.34-4.3-8.5-5.4-1.5-6.06.65-8.44 3.87-1.3 1.73-3.16 4.58-4.7 6.2-2.62 2.88-5.7 2.94-9.2 1.96-5.87-1.65-8.56-6.84-6.95-12.62 1.8-6.48 6.28-9.52 12.85-7.27l-1.1 3.94"/><path fill="#222323" d="M29.4 96.45c4.94-9.56 14.37-6.18 21.85-2.25 9.05 4.74 17.2 10.46 12.27 20.02-4.95 9.56-14.3 6.14-23.43 1.53-7.5-3.88-15.74-9.58-10.7-19.3m3.18 1.86c-2.9 5.6 2.23 10.02 9.54 13.75 9.5 4.86 15 6.5 18.13.47 3.1-6.02-1.4-9.58-10.86-14.52-7.27-3.82-13.84-5.45-16.82.3zM70.77 100.43L40.8 78.97l2.4-3.32 29.94 21.47-2.38 3.3M77.1 91.66l-26.7-25.4 2.82-2.95 24.03 22.87 10.36-10.9 2.68 2.53L77.1 91.66"/><path fill="#222323" d="M89.8 33.3l4.7-2.7 27.36 26.77-3.92 2.25-7.8-7.75-10.1 5.8L103 68.24l-3.93 2.26-9.27-37.2m3.77 1.23l-.08.05L99.04 54l8.43-4.86-13.9-14.6z"/><g fill="#222323"><path d="M131.07 25.92c-.9-3.74-3.75-5.87-7.63-4.6-5.66 1.82-5.12 5.57-4.25 8.28.78 2.43 2.34 3.58 4.85 3.7 2.1.1 4.15.2 6.25.3 7.44.34 9.4 2.28 10.9 6.9 2.15 6.64-.76 11.87-7.5 14.05-3.45 1.1-7.9 1.46-11.37-2.47-1.3-1.5-2.17-4.3-2.82-6.17l3.9-1.24c1.48 5.25 3.52 8.2 9.36 6.32 3.93-1.27 6.04-4.17 4.7-8.3-1.7-5.32-3.88-4.67-7.87-4.88-2.17-.13-5.57-.1-7.76-.5-3.86-.6-5.6-3.13-6.73-6.6-1.86-5.78 1-10.9 6.7-12.73 6.4-2.07 11.4-.02 13.15 6.7l-3.88 1.25M161.8 20.73c-.1-3.85-2.45-6.52-6.5-6.1-5.92.62-6.17 4.4-5.88 7.23.26 2.54 1.55 4 3.98 4.63 2.04.52 4.02 1.05 6.05 1.58 7.2 1.87 8.73 4.2 9.23 9.03.72 6.95-3.2 11.45-10.25 12.18-3.62.37-8.02-.2-10.62-4.78-.96-1.73-1.22-4.67-1.46-6.62l4.05-.4c.36 5.43 1.73 8.74 7.85 8.1 4.1-.4 6.77-2.8 6.32-7.1-.57-5.6-2.83-5.4-6.7-6.43-2.07-.58-5.4-1.27-7.46-2.1-3.65-1.4-4.83-4.24-5.2-7.85-.63-6.06 3.2-10.46 9.18-11.08 6.7-.7 11.16 2.36 11.48 9.3l-4.06.4"/><path d="M188.53 11.04c10.7 1.14 10.97 11.15 10.02 19.55-1.13 10.15-3.5 19.83-14.2 18.7-10.7-1.15-10.92-11.1-9.93-21.28.9-8.4 3.2-18.14 14.1-16.98m-.58 3.65c-6.25-.68-8.52 5.7-9.34 13.86-1.07 10.6-.6 16.35 6.15 17.07 6.74.7 8.4-4.8 9.6-15.4.9-8.14.04-14.86-6.4-15.54z"/></g><path fill="#222323" d="M223.32 31.14c1.24-4.2 1.02-8.18-3.84-9.75-6.73-2.17-9.9 7.38-11.4 12-1.72 4.72-5.22 15.3 1.88 17.6 4.63 1.5 6.84-2 8.54-5.67.35-.77.64-1.55 1-2.3l3.88 1.23c-.32.68-.56 1.43-.88 2.1-1.15 2.78-2 4.88-4.45 6.77-2.64 1.94-5.52 2.56-8.9 1.48-10.8-3.46-7.8-14.02-5.12-22.4 2.54-7.9 6.9-17.43 16.86-14.23 6.63 2.14 8.5 8.2 6.3 14.42l-3.88-1.26M223.83 59.52l16.4-33 3.65 1.8-16.4 33-3.65-1.8"/><path fill="#222323" d="M261.32 38.72l4.4 3.13-12.9 36.05-3.68-2.62 3.8-10.33-9.5-6.75-8.36 7.08-3.68-2.62 29.92-23.94m.45 3.94l-.08-.05-15.33 13.17 7.93 5.64 7.47-18.74zM278.37 51.7l16 16.72-2.68 2.55-6.6-6.9L261.14 87l-2.8-2.95 23.96-22.92-6.6-6.9 2.67-2.53M267.7 94.72l29.4-22.2 2.46 3.24-29.4 22.22-2.46-3.26"/><path fill="#222323" d="M312.13 94.27c5.1 9.47-3 15.35-10.47 19.32-9 4.8-18.34 8.32-23.45-1.15-5.1-9.48 3-15.3 11.94-20.23 7.44-4 16.78-7.6 22 2.05m-3.35 1.57c-3-5.53-9.54-3.8-16.74.15-9.36 5.1-13.82 8.73-10.6 14.7 3.22 5.96 8.7 4.23 18.1-.8 7.26-3.84 12.3-8.35 9.23-14.06zM325.68 130.66l1.18 3.9-35.27 10.68-1.95-6.4 25.23-18.4c1.43-1.06 2.9-1.97 4.92-2.93l-.03-.1c-1.77.6-3.6 1.2-5.38 1.74l-28.13 8.5-1.18-3.9 35.26-10.66 1.92 6.35-25.85 18.75c-.95.75-1.98 1.42-3.48 2.4l.02.08c1.26-.43 2.6-.9 3.93-1.3l28.78-8.7M28.53 160.52c-1.37 0-2.47 1.1-2.47 2.47 0 1.35 1.1 2.45 2.47 2.45S31 164.35 31 163c0-1.37-1.1-2.48-2.47-2.48M312.92 160.52c-1.36 0-2.46 1.1-2.46 2.47 0 1.35 1.1 2.45 2.46 2.45 1.36 0 2.47-1.1 2.47-2.46 0-1.37-1.12-2.48-2.48-2.48"/><path fill="#222323" d="M171.06 60.12c-60.56 0-109.83 49.27-109.83 109.83 0 60.56 49.27 109.84 109.83 109.84 60.56 0 109.84-49.3 109.84-109.85 0-60.56-49.28-109.83-109.84-109.83zm100.97 109.83c0 10.2-1.55 20.06-4.38 29.35.02-.47.06-.96.06-1.43 0-18.3-10.68-35.16-31.2-48.62 0 0-15.5-9.76-16.03-10.1.07-.93.14-1.87.14-1.87.26-2.84.57-6.47.57-10.7 0-5.84-.6-12.8-2.83-20.35-3.48-11.76-9.64-21.1-16.64-26.36l.07-.08c-2.34-2.15-6.54-5.94-12.54-9.1 47.02 8.6 82.8 49.8 82.8 99.25zm-28.55 43.98c-3.08-5.4-9.13-9.2-18-11.3-17.5-4.17-35.9 5.75-57.2 17.23l-16.84 8.9c-17.33 8.7-41.8 14.76-60.04-6-3.35-3.8-4.98-9.4-5.8-14.96 2.95 1.9 6.07 2.95 9.4 2.96 6.2.04 12.5-3.3 18.78-9.93 12.35-13.07 12.96-33.97 13.67-58.16l.73-19.03c.96-16.75 6.76-45.4 34.9-48.95 7.24-.92 13.27.2 18.4 2.25-3.85 1.62-6.77 4.1-8.7 7.4-3.13 5.37-3.4 12.5-.78 21.25 5.13 17.23 22.93 28.2 43.54 40.92l16.1 10.15c16.2 10.63 33.68 28.8 24.83 54.98-1.42 4.2-5.1 8.4-10.88 12.54.28-3.76-.37-7.2-2.12-10.27zm-7.35 13c-2.28 7.4-17.08 10.56-32.3 6.9-10.13-2.44-17.48-7.05-22.8-10.7 16.52-8.7 30.25-14.77 42.4-11.88 6.3 1.5 10.56 3.95 12.35 7.08 1.3 2.3 1.43 5.1.35 8.6zm-150.9-35.6c0-6.93 4.6-16.68 12.36-24.86 7.15-7.54 14.8-11.6 20.6-14.37-.7 18.6-2.3 33.58-10.87 42.64-4.44 4.7-8.7 7.18-12.3 7.16-2.64 0-5.14-1.32-7.63-4-1.48-1.6-2.17-3.87-2.17-6.57zm102.5-107.1c7.55-1.73 17.67 9.5 22.1 24.52 1.94 6.55 2.48 12.6 2.48 17.78 0 2.8-.2 5-.38 7.24-15.73-9.9-27.87-18.78-31.43-30.7-.94-3.14-1.4-5.95-1.4-8.36 0-2.35.44-4.33 1.34-5.87 1.33-2.28 3.7-3.8 7.3-4.6zM142.35 73.2c-13.53 9.26-21.68 26.5-23.02 49.94 0 0-.66 17.15-.73 18.93-.85.4-1.7.8-1.7.8-6.13 2.88-16.4 7.68-25.74 17.5-9.06 9.54-14.14 20.33-14.65 29.42l-.1-.02c-.3 3.35-.55 8.8-.08 14.77-3.96-10.8-6.23-22.43-6.23-34.6 0-45.7 30.53-84.35 72.25-96.75zm28.7 197.72c-28.67 0-54.53-12.07-72.93-31.34 15.78 8.9 35.56 8.04 57.3-2.92 0 0 16.17-8.5 16.77-8.83.76.53 1.53 1.05 1.53 1.05 5.55 3.9 14.85 10.4 28.03 13.56 12.5 3.02 24.14 2.15 32.26-1.72l.06.13c3.4-1.58 10.52-4.88 17.16-9.78-18.46 24.17-47.5 39.85-80.18 39.85z"/></svg>