<svg xmlns="http://www.w3.org/2000/svg" width="291" height="202"><g fill="none"><g fill="#147F38"><g><g><path d="M40.48 163.1c-.03-.04.04-.2 0-.23-.02-.04.04-.2 0-.22-.02-.04-.2.03-.22 0-.02-.05 0-.18 0-.23 0-.03.02-.2 0-.23-.03-.03-.2.03-.22 0-.04-.05.03-.2 0-.23-.04-.04-.2.04-.23 0s.05-.2 0-.22c-.02-.03-.2.03-.2 0-.04-.03 0-.2 0-.23 0-.02 0-.2 0-.22-.05-.03-.2.03-.24 0-.03-.04.04-.2 0-.23s-.2.04-.22 0c-.04-.03.03-.18 0-.22-.04-.04-.2.04-.23 0s.05-.2 0-.23c-.02-.03-.2.04-.22 0-.03-.05.04-.18 0-.22-.03-.05.04-.2 0-.22-.03-.04-.18.03-.22 0-.04-.04.04-.2 0-.23-.04-.04-.2.04-.22 0-.04-.04.03-.2 0-.22-.04-.04-.2.03-.23 0-.02-.05.05-.2 0-.23-.02-.04-.18.03-.2 0-.05-.04.02-.2 0-.22-.05-.04-.2.03-.24 0-.04-.04.04-.2 0-.23-.04-.04-.2.04-.22 0-.04-.03.03-.2 0-.22-.05-.03-.2.03-.23 0-.03-.04.05-.2 0-.23-.03-.03-.18.03-.22 0-.03-.04.04-.18 0-.23-.03-.03-.2.05-.22 0-.04-.03.04-.18 0-.22-.03-.03-.2.04-.23 0s.04-.18 0-.22c-.03-.04-.18.04-.22 0-.03-.04.05-.2 0-.23-.03-.04-.18.04-.22 0-.03-.04.04-.2 0-.22-.04-.04-.18.03-.22 0-.03-.03.04-.2 0-.23-.05-.03-.2.04-.23 0-.03-.03.04-.2 0-.22-.03-.04-.18.03-.22 0-.03-.04.05-.2 0-.23-.03-.04-.18.04-.2 0-.05-.04.02-.2 0-.22-.05-.03-.22.03-.24 0-.03-.05.04-.18 0-.23-.04-.04-.2.04-.23 0s.04-.18 0-.22c-.03-.04-.18.04-.22 0-.03-.04.05-.2 0-.22-.03-.03-.18.04-.22 0-.03-.03.04-.2 0-.22-.04-.03-.2.03-.22 0-.04-.04.04-.2 0-.23s-.2.04-.22 0c-.04-.03.03-.18 0-.22-.04-.03-.2.04-.23 0 0-.03 0-.2 0-.23 0-.02.03-.2 0-.22-.03-.03-.18.04-.22 0-.03-.04.04-.18 0-.23-.03-.03-.18.04-.22 0-.04-.03.04-.18 0-.22-.04-.04-.2.04-.22 0-.04-.04.03-.2 0-.23-.04-.03-.2.04-.23 0-.02-.04.05-.18 0-.22-.02-.04-.18.04-.22 0-.03-.04.04-.2 0-.22-.03-.04-.18.03-.22 0-.04-.04.03-.18 0-.23-.02-.03-.2.03-.23 0-.02-.02 0-.2 0-.22 0-.04.03-.2 0-.22-.03-.04-.18.04-.22 0-.03-.04.05-.18 0-.22-.03-.04-.18.04-.22 0-.03-.04.04-.2 0-.23-.03-.03-.18.04-.22 0-.03-.03.04-.2 0-.22-.04-.02-.2.04-.22 0-.04-.03.03-.18 0-.22-.03-.02-.22.03-.23 0 0-.05 0-.17 0-.22 0-.04.03-.2 0-.23-.02-.03-.18.04-.2 0-.04-.03.02-.2 0-.22-.05-.02-.2.04-.24 0-.04-.03.04-.18 0-.2-.04-.05-.2.02-.23 0-.03-.05.04-.2 0-.24-.03-.04-.2.04-.22 0-.03-.04.05-.2 0-.23-.02-.03-.2.04-.2 0-.05-.05.02-.17 0-.22-.05-.03.02-.18 0-.2-.05-.05-.2.02-.24 0-.04-.05.04-.2 0-.24-.04-.03-.2.04-.23 0s.04-.2 0-.23c-.03-.03-.2.04-.22 0-.02-.05.05-.17 0-.22-.02-.03.05-.18 0-.2-.03-.05-.18.02-.22 0-.03-.05.04-.2 0-.23-.03-.04-.2.03-.22 0-.04-.04.04-.2 0-.24-.03-.02-.2.05-.22 0-.04-.04.03-.17 0-.2-.04-.05-.2.02-.23 0-.03-.05.04-.2 0-.24-.02-.06.05-.2 0-.24-.02-.03-.2.04-.22 0-.03-.04.04-.18 0-.22-.02-.03-.2.03-.22 0-.04-.05.03-.18 0-.22-.03-.05-.2.03-.22 0-.04-.05.03-.2 0-.23-.04-.06.03-.2 0-.23-.04-.04-.2.03-.23 0-.02-.05.05-.2 0-.23-.02-.03-.2.03-.22 0-.03-.05.04-.17 0-.23-.03-.03.04-.17 0-.2-.03-.05-.18.03-.22 0-.04-.05.04-.2 0-.24-.04-.03-.2.04-.22 0-.04-.04.03-.18 0-.22-.04-.03-.2.04-.23 0-.03-.05.05-.17 0-.23-.02-.03.05-.17 0-.2-.03-.05-.18.03-.22 0-.03-.05.04-.2 0-.23-.03-.04-.2.03-.22 0-.02-.04 0-.2 0-.23s.02-.2 0-.22c-.04-.03-.2.03-.23 0-.03-.05.04-.2 0-.23-.02-.03-.2.02-.22 0 0-.06 0-.18 0-.23 0-.04.03-.2 0-.23-.02-.04-.18.04-.22 0-.03-.03.04-.2 0-.23-.03 0-.2.05-.22 0-.02 0 0-.17 0-.2 0-.06.02-.18 0-.23 0-.03-.2.02-.22 0-.04-.04.03-.2 0-.23-.04-.04-.2.04-.23 0-.02-.03.04-.2 0-.22-.02-.02-.2.03-.2 0-.04-.04 0-.18 0-.23 0-.06 0-.18 0-.23-.03-.03-.22.02-.24 0-.04-.04.02-.18 0-.22-.02-.05.04-.2 0-.23-.03-.03-.2.04-.22 0-.04-.05.03-.17 0-.22-.03-.04-.2.03-.23 0-.03-.04.04-.18 0-.23-.02-.04.05-.18 0-.22-.02-.03-.2.04-.2 0-.04-.05.03-.2 0-.23-.04-.03-.22.04-.24 0-.03-.05.03-.17 0-.22-.03-.05.04-.2 0-.23-.02-.02-.2.03-.22 0-.03-.04 0-.17 0-.22 0-.04.02-.2 0-.23-.03-.03-.2.03-.23 0-.02-.03.05-.2 0-.22-.02-.03-.2.03-.2 0-.04-.04 0-.18 0-.23 0-.05 0-.17 0-.22-.03-.03-.22.03-.24 0-.03-.04.02-.18 0-.22-.02-.05.04-.2 0-.23-.03-.03-.2.04-.22 0-.04-.05.03-.17 0-.23-.02-.03-.2.03-.23 0s.04-.18 0-.22c-.02-.04.05-.2 0-.22 0-.03-.2.03-.2 0-.03-.04 0-.18 0-.23 0-.02 0-.2 0-.22-.04-.03-.22.03-.24 0-.02-.04 0-.18 0-.23 0-.05.03-.17 0-.22 0-.03-.2.02-.22 0-.04-.04.02-.18 0-.23-.02-.04-.2.03-.23 0 0-.02 0-.2 0-.22 0-.05.04-.2 0-.22 0-.04-.2.02-.2 0-.05-.05.02-.2 0-.23-.04-.05.03-.2 0-.23-.04-.03-.22.04-.24 0-.02-.04 0-.18 0-.22 0-.02.02-.2 0-.22-.03-.03-.2.02-.22 0-.02-.05 0-.18 0-.23 0-.06.02-.17 0-.22 0-.02-.2.03-.23 0-.02-.03.04-.17 0-.22 0-.05.05-.2 0-.22-.02-.03-.2.03-.2 0-.05-.06.02-.18 0-.23-.03-.03-.2.03-.24 0-.03-.03.03-.18 0-.22-.03-.04.04-.18 0-.22-.02-.03-.2.04-.22 0-.02-.04 0-.17 0-.22 0-.03.02-.2 0-.23-.03-.02-.2.03-.23 0 0-.04 0-.17.02-.22 0-.05.02-.17 0-.22-.02-.03-.2.03-.23 0-.05-.03 0-.18 0-.22-.03-.05.02-.2 0-.22-.04-.04-.2.03-.24 0-.03-.06.03-.18 0-.23 0-.04.04-.18 0-.22-.02-.02-.2.03-.22 0-.02-.04 0-.16 0-.22s.02-.17 0-.22c-.02-.05.03-.2 0-.23-.03-.02-.2.05-.23 0-.02-.04.04-.16.02-.22-.02-.04.03-.2 0-.22-.03-.02-.22.03-.23 0-.03-.05 0-.17 0-.22 0-.05 0-.18 0-.23-.02-.02-.2.04-.23 0-.03 0 0-.18 0-.2 0-.07.02-.2 0-.24-.02-.03-.2.03-.23 0-.04-.03.03-.18 0-.22-.03-.04.04-.2 0-.23-.02 0-.22.04-.22 0-.02-.05 0-.14 0-.2v-.23c0-.06.02-.18 0-.23-.02-.03-.2.02-.23 0-.05-.04.02-.18 0-.22-.04-.05.03-.2 0-.23-.04-.04-.2.02-.23 0-.03-.05 0-.2 0-.23s.02-.2 0-.23c-.03-.02-.22.03-.23 0-.02-.04 0-.17 0-.22 0-.07.02-.16 0-.23 0-.05.03-.2 0-.23-.02-.03-.2.03-.22 0-.02-.05 0-.17 0-.23 0-.02 0-.2 0-.22-.02-.02-.22.02-.23 0-.03-.06 0-.17 0-.23 0-.08 0-.17 0-.23-.02-.04.02-.2 0-.23-.03-.02-.22.03-.23 0-.02-.04 0-.17 0-.22 0-.02.02-.2 0-.22-.02-.02-.22 0-.23 0-.02-.06 0-.17 0-.23 0-.07.02-.16 0-.22 0-.04.03-.2 0-.23 0 0-.22.02-.22 0-.02-.06 0-.15 0-.22v-.23c0-.06.02-.17 0-.22 0-.03-.2.02-.23 0-.05-.04.02-.18 0-.23-.04-.05.03-.2 0-.22-.03-.02-.23.02-.23 0-.02-.06 0-.16 0-.23v-.22c0-.06.02-.17 0-.22 0-.03-.2.02-.23 0-.02-.03 0-.2 0-.23 0-.06 0-.16 0-.22 0-.07.02-.17 0-.23 0-.04.03-.2 0-.22-.02-.03-.2.04-.22 0-.03-.05.02-.17 0-.22 0-.04.03-.2 0-.22-.02-.03-.2.03-.22 0-.03-.05 0-.17 0-.23s0-.16 0-.22c-.02-.06 0-.16 0-.22 0-.02.02-.2 0-.22-.02-.02-.22.02-.23 0-.02-.06 0-.16 0-.22 0-.07 0-.16 0-.23 0-.04.03-.2 0-.22 0 0-.22.03-.22 0-.02-.06 0-.15 0-.22v-.22c0-.07.02-.17 0-.23 0-.02-.2.02-.23 0-.02-.03 0-.18 0-.22-.02-.06 0-.15 0-.22 0-.06.02-.16 0-.22 0-.04.03-.2 0-.22-.03-.04-.2.02-.22 0-.03-.06 0-.18 0-.23-.03-.13.03-.3 0-.44 0-.04.03-.2 0-.23-.02 0-.22.02-.22 0-.02-.06 0-.15 0-.22v-.2c0-.08 0-.18 0-.24 0-.04.02-.2 0-.23-.03-.02-.22.03-.23 0-.02-.04 0-.16 0-.22 0-.05.02-.15 0-.22-.02-.06 0-.16 0-.22 0-.03.02-.2 0-.22-.02-.02-.22.02-.23 0 0-.06 0-.16 0-.22v-.46c0-.07.02-.17 0-.23 0-.02-.2.02-.22 0-.02-.02 0-.2 0-.22 0-.08.02-.16 0-.23 0-.08 0-.17 0-.24 0-.06.02-.16 0-.22 0-.04.03-.2 0-.23 0 0-.22.03-.22 0-.02-.05 0-.15 0-.2v-.24c0-.06 0-.15 0-.22s0-.15 0-.22.02-.16 0-.23c0-.05.03-.2 0-.23-.02-.02-.22 0-.23 0 0-.07 0-.16 0-.22v-.23c0-.07.02-.15 0-.23 0-.08 0-.16 0-.23s.02-.16 0-.22c0-.04.03-.2 0-.23 0-.02-.22.02-.22 0-.02-.06 0-.16 0-.22v-.23c0-.07 0-.15 0-.22s0-.16 0-.23c0-.06.02-.16 0-.22 0-.04.03-.2 0-.23 0 0-.22.02-.22 0 0-.06 0-.15 0-.22v-.22c0-.08.02-.16 0-.23 0-.07 0-.15 0-.23 0-.07 0-.14 0-.22v-.22c0-.07.02-.16 0-.23 0-.07 0-.15 0-.22 0-.03.03-.2 0-.22 0-.02-.22 0-.22 0 0-.08 0-.16 0-.23v-.23c0-.3 0-.6 0-.9 0-.07 0-.14 0-.2 0-.1 0-.17 0-.24v-.45c0-.06.02-.15 0-.2 0-.06.03-.2 0-.24-.03-.03-.2.03-.22 0-.02-.04 0-.18 0-.22 0-.08 0-.16 0-.23v-1.12c0-.07 0-.14 0-.22 0-.08 0-.15 0-.22 0-.08 0-.16 0-.23v-1.11c0-.3 0-.6 0-.9v-.46c0-.07 0-.15 0-.23 0-.06 0-.13 0-.2v-.23c0-.3 0-.6 0-.9 0-.07 0-.15 0-.23 0-.07 0-.15 0-.22s0-.16 0-.22c.02-.04-.02-.2 0-.23.03 0 .23.02.24 0 0-.06 0-.16 0-.22v-.23c0-.07 0-.15 0-.22s0-.15 0-.23v-1.12c0-.07 0-.15 0-.22s0-.15 0-.23c0-.06-.02-.17 0-.22 0-.03.2.02.22 0 .03-.03 0-.2 0-.23.02-.06 0-.15 0-.22v-.23c0-.07 0-.14 0-.22 0-.07 0-.15 0-.22v-.45c0-.06 0-.15 0-.22.02-.04-.02-.2 0-.22.04-.03.2.04.23 0s0-.18 0-.22c0-.08 0-.16 0-.23v-.44c0-.07 0-.15 0-.22 0-.08 0-.15 0-.23 0 0 0-.2 0-.2.02-.03.23 0 .23 0 0-.08 0-.17 0-.24v-.45c0-.06 0-.14 0-.2 0-.08 0-.16 0-.23 0-.03-.02-.2 0-.23.02 0 .22.02.23 0 .02-.07 0-.16 0-.22v-.46c0-.07 0-.16 0-.23.02-.04-.02-.2 0-.22.04-.03.2.04.23 0s0-.17 0-.23c.02-.07 0-.16 0-.23s0-.16 0-.22c0-.05-.02-.2 0-.22.02-.02.22 0 .23 0 0-.07 0-.16 0-.23s0-.15 0-.23c0-.06 0-.15 0-.22s0-.16 0-.22-.02-.18 0-.23c0-.03.2.02.23 0 0-.03-.02-.2 0-.22 0-.08 0-.16 0-.23v-.23c0-.06-.03-.16 0-.22 0-.02.2.02.22 0 .02-.03-.02-.18 0-.22 0-.07 0-.16 0-.23 0-.06-.02-.16 0-.22 0-.05-.04-.2 0-.23.02-.03.2.04.22 0 .03-.04-.02-.17 0-.22 0-.06 0-.16 0-.23 0-.05-.02-.17 0-.2 0-.05.2 0 .23 0 .02-.04 0-.2 0-.24 0-.06 0-.15 0-.22v-.22c0-.07-.02-.16 0-.22 0-.03.2 0 .22 0 .02-.03-.02-.2 0-.23 0-.05 0-.15 0-.2 0-.08-.03-.18 0-.24 0-.02.2.02.22 0 .02-.02 0-.2 0-.22 0-.07-.02-.17 0-.23 0-.03-.03-.18 0-.2.02-.04.2.02.23 0 0-.06 0-.18 0-.24 0-.05-.03-.17 0-.22 0-.04-.04-.2 0-.23.02-.02.2.05.22 0 .03-.03-.02-.16 0-.2.02-.07 0-.18 0-.23 0-.06-.02-.18 0-.23 0-.03.2.03.23 0s-.02-.18 0-.22c.02-.06 0-.17 0-.23 0-.03-.02-.22 0-.23.02-.02.2.02.22 0 .02-.06 0-.16 0-.23 0-.06 0-.16 0-.22 0-.04-.02-.2 0-.23.02-.02.22 0 .23 0 0-.07 0-.16 0-.23v-.22c0-.06-.02-.17 0-.23 0-.02.2.02.23 0 .03-.03-.04-.18 0-.22.02-.05-.04-.2 0-.22 0-.03.2.02.22 0 .02-.07 0-.17 0-.23v-.23c0-.05-.02-.16 0-.22 0-.03.2.02.23 0 .03-.04-.03-.18 0-.22.03-.05-.04-.2 0-.23 0-.02.2.03.22 0 .02-.06 0-.16 0-.22v-.23c0-.05-.02-.17 0-.22.02-.03.2.02.23 0 .04-.04-.03-.18 0-.22.03-.05-.04-.2 0-.23.03-.03.2.03.22 0 .03-.04 0-.18 0-.23 0-.02 0-.2 0-.22.03-.02.22.03.23 0 .02-.05 0-.17 0-.23s-.02-.16 0-.22c0-.04-.03-.2 0-.23.02-.02.2.03.23 0 .02-.04 0-.17 0-.22 0-.03-.02-.2 0-.23.02-.02.2.04.22 0 .02-.04 0-.17 0-.22 0-.05-.02-.17 0-.22.02-.02.2.03.23 0 .04-.03 0-.17 0-.22.03-.04-.03-.2 0-.22.04-.04.2.03.23 0 .04-.05-.02-.17 0-.23.02-.04-.03-.2 0-.22.03-.02.22.04.23 0 .02-.04 0-.16 0-.22 0-.05-.02-.17 0-.22 0-.03.2.03.23 0 0-.02 0-.2 0-.23 0-.05-.04-.17 0-.22 0-.02.18.04.2 0 .05-.03-.02-.17 0-.2.04-.06-.02-.2 0-.23.04-.03.22.03.24 0 .02-.04 0-.18 0-.23 0-.03-.02-.2 0-.22.03-.03.2.02.22 0 .03-.05 0-.18 0-.23 0-.06-.02-.2 0-.23s.2.02.23 0c.02-.04-.03-.18 0-.23 0-.04-.05-.2 0-.22.02-.03.2.04.2 0 .05-.05-.02-.17 0-.23.04-.05-.02-.2 0-.23.04-.02.23.03.24 0 .02-.05 0-.17 0-.23 0-.05-.02-.17 0-.22 0-.03.2.03.23 0 .02-.02 0-.2 0-.23 0-.06-.03-.2 0-.23.02-.04.2.03.22 0 .03-.04-.04-.18 0-.22.02-.05-.04-.2 0-.22.02-.05.2.03.22 0 .03-.05-.04-.2 0-.23.03-.03.2.04.22 0 .04-.06-.03-.17 0-.23.03-.04-.03-.2 0-.22.03-.02.22.03.23 0 .02-.05 0-.17 0-.22 0-.06-.02-.18 0-.23 0-.03.2.02.23 0 .02-.02 0-.2 0-.22 0-.05-.03-.2 0-.23.02-.03.2.03.22 0 .04-.04-.04-.2 0-.22.04-.04.2.04.23 0s-.03-.18 0-.22c.03-.04-.04-.18 0-.22.03-.03.2.04.22 0 .04-.05-.03-.17 0-.23.03-.04-.04-.18 0-.22.04-.03.2.04.23 0 .04-.03-.04-.2 0-.22.03-.03.2.04.23 0 .02-.03 0-.18 0-.22 0-.02-.02-.2 0-.22.03-.03.2.03.22 0 .03-.04-.03-.2 0-.23.02-.02.2.03.23 0 .02-.05 0-.16 0-.22 0-.03-.03-.18 0-.22.03-.03.2.04.22 0 .03-.02-.03-.2 0-.22.04-.02.2.03.23 0 .02-.03 0-.18 0-.22 0-.05-.02-.18 0-.23 0 0 .2.04.22 0 .04-.02-.02-.17 0-.22.03-.03-.03-.18 0-.22.04-.03.2.04.23 0 .03-.05-.03-.17 0-.22.02-.03.2.03.22 0 .04-.04-.03-.18 0-.23.04-.03-.04-.17 0-.2.04-.04.2.03.23 0 .03-.05-.04-.2 0-.23.03-.04.2.03.23 0 .03-.06-.04-.18 0-.23.03-.04-.04-.18 0-.22.04-.04.18.04.22 0 .04-.04-.03-.2 0-.23.04-.04.2.03.23 0 .05-.05-.03-.2 0-.23.04-.03.2.04.23 0 .04-.05-.04-.18 0-.22.04-.05-.04-.2 0-.23s.2.04.23 0c.04-.03-.04-.2 0-.22.03-.04.2.03.22 0 .03-.04 0-.2 0-.23 0-.02 0-.2 0-.22.04-.03.2.03.23 0 .04-.05-.03-.2 0-.22.05-.04.2.03.24 0 .03-.04-.04-.2 0-.23.03-.03.2.04.22 0 .02-.03 0-.2 0-.22 0-.03 0-.2 0-.23.04-.03.2.04.23 0 .02-.04-.05-.2 0-.22 0-.02.2.02.2 0 .03-.05 0-.17 0-.23 0-.03 0-.2 0-.22.04-.04.2.03.24 0 .03-.03-.04-.2 0-.22.04-.03.2.03.22 0 .04-.05-.03-.2 0-.23.04-.04.2.04.23 0s-.05-.2 0-.22c.02-.03.2.04.22 0 .02-.02 0-.18 0-.22 0-.03-.02-.2 0-.22.03-.03.2.04.22 0 .03-.05-.04-.2 0-.22.04-.05.2.03.23 0 .03-.05-.04-.2 0-.23.03-.03.2.04.22 0 0-.03 0-.18 0-.2 0-.05-.03-.23 0-.24.03-.03.2.03.22 0 .03-.04-.04-.2 0-.23s.2.04.22 0c.04-.03-.03-.18 0-.22.04-.02.2.05.23 0 .04-.03-.04-.17 0-.22.03-.02.2.04.23 0s-.04-.17 0-.22c.03-.04-.04-.18 0-.22.03-.04.2.04.22 0 .04-.04-.03-.2 0-.23.04-.02.2.05.23 0 .03-.03-.04-.17 0-.2.03-.04.2.03.22 0 .03-.06-.03-.2 0-.23.03-.04.2.03.23 0 .04-.04-.04-.2 0-.23.04-.04.18.04.22 0 .04-.04-.02-.18 0-.22.03-.05-.03-.2 0-.23.03-.04.2.03.23 0 .03-.06-.04-.2 0-.23.04-.04.2.04.22 0 .04-.04-.03-.2 0-.23.04-.03.2.04.23 0 .04-.03-.04-.18 0-.22.04-.04.2.04.23 0 .03-.03-.04-.2 0-.22.04-.03.2.04.22 0 .02-.02 0-.2 0-.23 0-.05-.02-.17 0-.22.02-.03.2.02.23 0 .04-.04-.04-.2 0-.22.03-.04.2.03.22 0 .04-.04-.03-.2 0-.23.05-.03.2.04.23 0 .04-.04-.04-.18 0-.22.04-.04.2.04.23 0s-.04-.2 0-.23c.03-.03.2.04.22 0 .04-.04-.04-.18 0-.22.03-.03.2.04.22 0 .04-.05-.03-.2 0-.23.04-.03.2.04.23 0 .04-.03-.03-.18 0-.23.04-.03.2.05.23 0 .03-.03-.03-.17 0-.22.03-.04-.04-.18 0-.22.03-.03.2.04.22 0 .04-.05-.03-.18 0-.22.04-.03.2.04.23 0 .05-.03-.03-.18 0-.22.05-.04.2.04.23 0 .04-.03-.04-.2 0-.22.04-.04.2.03.23 0s-.03-.2 0-.23c.04-.03.2.04.22 0 .04-.04-.03-.2 0-.22.04-.03.2.04.23 0 .05-.03-.03-.18 0-.22.05-.03.2.04.24 0 .03-.03-.04-.18 0-.22.03-.03.2.04.22 0 .03-.05-.04-.2 0-.22.04-.04.2.03.23 0 .02-.04-.05-.2 0-.23.02-.03.17.05.2 0 .05-.02-.02-.18 0-.2.05-.05.2.03.24 0 .03-.04-.04-.2 0-.24.04-.03.2.04.22 0 .04-.03-.03-.18 0-.22.04-.04.2.04.23 0s-.05-.2 0-.22c.03-.04.18.03.22 0 .03-.04-.04-.2 0-.23.03-.04.2.03.22 0 .03-.05-.03-.2 0-.23.04-.04.2.03.23 0 .03-.04-.04-.2 0-.23s.18.04.22 0c.03-.03-.05-.2 0-.22.03-.04.18.04.22 0 .03-.03-.04-.2 0-.22.04-.03.2.03.22 0 .04-.04-.03-.2 0-.23.04-.04.2.04.23 0 .04-.04-.04-.2 0-.23s.2.04.23 0c.03-.03-.04-.18 0-.22.03-.03.2.04.22 0 .03-.05-.04-.2 0-.22.04-.05.2.03.23 0 .03-.04-.04-.2 0-.23.03-.03.18.04.22 0 .04-.03-.04-.2 0-.22.04-.04.2.04.23 0 .03-.03-.04-.2 0-.23s.18.04.22 0c.04-.03-.04-.18 0-.22.04-.04.2.04.23 0 .04-.04-.04-.2 0-.22.03-.04.2.04.22 0 .04-.04-.03-.2 0-.23s.2.04.23 0-.04-.18 0-.22c.04-.04.2.04.23 0s-.04-.2 0-.23c.03-.03.18.04.22 0 .04-.03-.04-.2 0-.22.04-.04.2.04.23 0 .03-.03-.04-.2 0-.22.04-.03.18.03.22 0 .04-.04-.04-.2 0-.23.04-.04.2.04.23 0 .04-.04-.04-.18 0-.22.03-.03.2.05.22 0 .04-.03-.03-.18 0-.22.03-.03.2.04.23 0s-.04-.2 0-.22c.04-.04.2.04.22 0 .03-.03-.02-.2 0-.23.05 0 .17 0 .23 0 .04 0 .2.03.22 0 .04-.03-.03-.18 0-.22.04-.02.2.05.23 0 .03-.03-.04-.18 0-.2.04-.05.2.02.23 0 .05-.05-.03-.2 0-.24.05-.03.2.04.23 0 .04-.03-.03-.18 0-.22.04-.04.2.04.23 0 .03-.03-.04-.2 0-.22.04-.04.2.03.22 0 .04-.04-.03-.2 0-.23.04-.05.2.03.23 0 .05-.05-.03-.2 0-.23.05-.04.2.04.24 0 .03-.04-.04-.2 0-.23.03-.03.2.04.22 0 .03-.04-.04-.2 0-.22.02-.02.2 0 .23 0 .04 0 .16.02.2 0 .04-.02 0-.2 0-.22.05-.04.2.03.24 0 .04-.04-.04-.2 0-.23.03-.03.2.03.22 0 .03-.04-.04-.2 0-.23s.2.04.23 0c.03-.03-.05-.18 0-.22.03-.04.17.04.2 0 .05-.04-.02-.2 0-.22.05-.04.2.03.24 0 .03-.04-.04-.2 0-.23.05-.03.18.04.23 0 .04-.03.18.04.22 0 .03-.04-.05-.2 0-.22.03-.04.18.03.2 0 .05-.04-.02-.2 0-.23.06-.03.2.04.24 0 .03-.03-.04-.2 0-.22.05-.03.18.04.23 0 .03-.03-.04-.2 0-.23.03-.03.18.04.22 0 .03-.03-.05-.18 0-.22.03-.04.17.03.22 0 .04-.03.2.04.22 0 .04-.03-.03-.2 0-.22.05-.03.18.04.23 0 .04-.03-.04-.2 0-.22.04-.04.2.04.22 0 .03-.04-.04-.18 0-.22.03-.03.2.04.22 0 .04-.04-.04-.18 0-.23.03-.03.2.05.23 0 .02-.03-.04-.2 0-.22.02-.02.18 0 .22 0 .06 0 .18.02.23 0 .03 0-.03-.2 0-.22.03-.03.18.04.22 0 .04-.03-.03-.18 0-.22.03-.03.2.04.23 0s-.04-.2 0-.22c.04-.04.2.04.22 0 .03-.02-.02-.2 0-.22.05-.03.17 0 .23 0 .04 0 .2.02.22 0 .04-.03-.03-.2 0-.23.04-.02.2.05.23 0 .03-.03-.04-.2 0-.22.04-.03.2.05.22 0 .04-.03-.03-.18 0-.2.04-.05.2.02.23 0 .04-.05-.04-.2 0-.24.04-.03.2.04.23 0 .03-.03-.04-.2 0-.23.05-.02.18.05.22 0 .05-.02.2.05.23.02.04-.04-.04-.2 0-.23.04-.04.2.03.22 0 .04-.04-.03-.2 0-.24.04-.03.2.04.23 0 .03-.03-.04-.2 0-.22.05-.03.18.04.22 0 .05-.04.2.04.23 0 .04-.04-.04-.2 0-.22.04-.04.2.03.23 0 .04-.04-.03-.2 0-.22.05-.04.2.03.23 0 .03-.04-.03-.2 0-.23.05-.04.18.04.23 0 .03-.03-.04-.2 0-.22.03-.04.18.02.22 0 .05-.04.2.03.23 0 .04-.04-.03-.2 0-.23.05-.03.2.04.23 0 .03-.03-.03-.2 0-.22.05-.04.18.03.23 0 .04-.04.18.03.22 0 .04-.04-.03-.2 0-.23.04-.03.2.04.23 0 .05-.03-.03-.2 0-.22.05-.03.2.04.23 0 .04-.03-.03-.2 0-.23.06-.03.18.04.23 0 .05-.03.2.04.22 0 .04-.03-.03-.18 0-.22.04-.04.2.04.23 0 .04-.03-.02-.2 0-.23.04-.02.2 0 .24 0 .03 0 .2.02.22 0 .03-.03-.03-.2 0-.22.05-.03.2.04.23 0 0-.02-.04-.2 0-.22.04-.03.16 0 .2 0 .05 0 .2.02.24 0 .04-.03-.03-.2 0-.22.03-.03.2.04.23 0 .02-.03-.04-.2 0-.22.03-.02.18 0 .22 0 .05 0 .17.02.22 0 .02 0-.03-.2 0-.22.03-.04.18.02.22 0 .04-.02-.03-.2 0-.23.02-.02.2 0 .23 0 .04 0 .18.03.22 0 .03-.02-.04-.2 0-.22.03-.03.18.05.22 0 .03-.03-.04-.18 0-.22.03-.03.18.03.22 0 .05-.02.2.04.23 0 .03-.03-.04-.2 0-.22.05-.03.17.03.22 0 .03-.02-.03-.2 0-.23s.17.04.22 0c.05-.03.2.05.23 0 .02-.03-.04-.2 0-.22.03 0 .17 0 .22 0 .03 0 .2.03.23 0 .02-.02-.04-.2 0-.2.04-.04.18.02.22 0 .02-.04-.03-.22 0-.23.05-.03.17 0 .23 0 .04 0 .2 0 .22 0 .04-.03-.03-.2 0-.23.03-.04.2.03.23 0 .02-.04-.03-.2 0-.22.04-.03.18 0 .22 0 .06 0 .18.02.23 0 .03-.02-.02-.2 0-.23.03-.05.18 0 .22 0 .05-.03.2.03.23 0 .03-.04-.03-.2 0-.23.05-.03.17.03.23 0 .03-.02-.03-.2 0-.23.03-.04.18.03.22 0 .05-.03.2.04.23 0 .03-.03-.04-.2 0-.22.04-.02.17 0 .22 0 .03 0 .2.02.23 0 .02-.03-.03-.2 0-.23.04-.03.2.03.22 0 .03-.03-.03-.22 0-.23.05-.02.17 0 .23 0 .05 0 .18.02.22 0 .03 0-.02-.2 0-.22.03-.02.2 0 .23 0 .05 0 .18.03.23 0 .03-.02-.03-.2 0-.23s.18.04.22 0c.04-.03-.04-.2 0-.22.04-.04.18.03.23 0 .05-.03.2.04.23 0s-.04-.2 0-.23c.05-.03.17.04.23 0 .04-.02.2.04.22 0 .03-.02-.03-.2 0-.22.05-.02.17 0 .23 0s.18.02.23 0c.03 0-.02-.2 0-.22.03-.02.2 0 .23 0 .05 0 .18.02.22 0 .04-.02-.02-.2 0-.23.04-.03.2.04.23 0 .05-.03-.03-.18 0-.23.05-.03.2.04.23 0 .05-.02.2.05.23 0 .03-.02-.03-.2 0-.2.05-.05.17.02.23 0 .03-.04.18.02.2 0 .04-.04-.02-.23 0-.24.06-.02.18 0 .24 0 .05 0 .18.02.22 0 .03 0-.02-.2 0-.22.02 0 .2 0 .23 0 .04 0 .17.03.2 0 .05 0 0-.2 0-.22.05-.03.2.04.24 0 .04-.02.2.05.22 0 .03-.02-.03-.2 0-.22.05-.02.18 0 .23 0 .02 0 .2.02.2 0 .04-.03 0-.2 0-.22.06-.03.2.03.24 0 .03-.03-.03-.2 0-.23.05 0 .17 0 .23 0 .05 0 .17.04.22 0 .02 0-.03-.2 0-.2 0-.03.2 0 .22 0 .05 0 .18 0 .22 0 .03-.03-.02-.2 0-.24.04-.03.18.04.23 0 .05-.03.18.04.23 0 .02-.02-.04-.2 0-.22.04-.02.17 0 .22 0 .03 0 .2 0 .22 0 .03-.03-.02-.2 0-.23.05 0 .18 0 .23 0 .06 0 .17.03.23 0 .02 0-.03-.2 0-.2.03-.04.17 0 .22 0 .05-.03.2.03.23 0 .03-.04-.04-.2 0-.23.05-.03.17.03.22 0 .05-.02.2.03.23 0 .02-.03-.03-.22 0-.23.05-.02.17 0 .22 0 .06 0 .18.03.23 0 .03 0-.03-.2 0-.22.02-.02.2 0 .22 0 .06 0 .18.02.23 0 .03-.02-.03-.2 0-.22.03-.03.18 0 .22 0 .07-.02.16 0 .23 0 .06 0 .17.02.22 0 .03 0-.02-.2 0-.23.03-.02.2 0 .23 0 .06 0 .17.03.23 0 .02 0-.03-.2 0-.22.03-.04.18.03.22 0 .05-.03.2.04.23 0 .02-.03-.04-.2 0-.22.04-.03.17 0 .22 0 .03 0 .2 0 .22 0 .03-.03-.02-.22 0-.23.05-.02.18 0 .23 0 .06 0 .18.02.23 0 .03 0-.03-.2 0-.22.03-.04.18.02.22 0 .05-.03.2.03.23 0 .03-.04-.04-.2 0-.22.05-.04.17.02.22 0 .05-.03.2.03.23 0 .02-.03-.03-.22 0-.23.05-.02.17 0 .22 0 .06 0 .18.02.23 0 .05-.02.2.03.23 0s-.04-.2 0-.22c.05-.02.16.04.22 0 .05 0 .2.04.22 0 .03-.02-.02-.2 0-.22.06-.02.18 0 .23 0 .06 0 .18.02.23 0 .03 0-.02-.2 0-.22.02-.02.2 0 .22 0 .06 0 .17.02.23 0 .05-.02.2.03.23 0s-.03-.22 0-.23c.05-.02.17 0 .23 0 .05 0 .18.03.22 0 .03 0-.02-.2 0-.22.03 0 .2 0 .23 0 .07 0 .18.03.24 0 .02 0-.03-.2 0-.2.02-.04.18 0 .22 0 .07-.03.16 0 .23 0 .05 0 .16 0 .2 0 .04-.02 0-.22 0-.23.03-.03.2 0 .24 0 .06 0 .17.02.22 0 .03-.02-.02-.2 0-.23.03-.03.2 0 .23 0 .05-.02.15 0 .2 0 .08 0 .18.02.24 0 .02 0-.02-.2 0-.22.02-.03.2 0 .23 0 .05 0 .17 0 .22 0 0 0-.03-.2 0-.23.03-.05.17.02.2 0 .06-.04.2.03.24 0 .02-.03-.02-.22 0-.23.06-.02.16 0 .23 0h.22c.05 0 .16.02.22 0 .02 0-.02-.2 0-.23s.18.02.22 0c.07 0 .16 0 .23 0 .06 0 .17.03.22 0 .02 0-.03-.2 0-.22 0-.02.2 0 .22 0 .06 0 .17.02.22 0 .03 0-.02-.2 0-.23.03-.03.2 0 .23 0 .06-.02.16 0 .23 0 .06 0 .16 0 .22 0 .02 0-.02-.2 0-.23.02-.02.2 0 .23 0 .06 0 .17.02.22 0 .02 0-.02-.2 0-.22.03-.03.2 0 .23 0 .06-.02.15 0 .22 0 .06 0 .17.02.23 0 .02 0-.03-.2 0-.23.02-.02.2 0 .22 0 .06 0 .17.03.23 0 .04 0 .2.03.22 0 .03-.02-.03-.2 0-.22.05-.02.17 0 .23 0 .05 0 .17.02.22 0 .03 0-.02-.2 0-.22.03-.02.2 0 .23 0 .06 0 .17.02.23 0 .04-.02.2.03.22 0 .02-.03-.03-.22 0-.23.05-.02.17 0 .23 0 .05 0 .17.02.22 0 .05 0 .2.03.23 0s-.04-.2 0-.22c.05-.03.17.02.22 0 .06-.02.17 0 .23 0 .05 0 .17.02.22 0 .03 0-.02-.2 0-.23.04-.02.2.02.23 0 .05 0 .16 0 .22 0 .03 0 .2.02.23 0 .02 0-.02-.2 0-.22.05-.02.17 0 .23 0s.18.02.23 0c.03 0-.02-.2 0-.22.03-.03.18 0 .22 0 .06-.02.17 0 .23 0 .02 0 .2 0 .23 0 .03-.02-.02-.22 0-.23.06 0 .17 0 .23 0 .07 0 .16.02.22 0 .05 0 .2.03.23 0 .02 0-.02-.22 0-.22.07 0 .16 0 .23 0h.23c.06 0 .17.03.23 0 .02 0-.02-.2 0-.2.03-.04.18 0 .22 0 .06-.03.16 0 .23 0s.17 0 .24 0c.02-.02-.03-.22 0-.23 0-.03.2 0 .22 0 .06 0 .16 0 .22 0 .06-.03.17 0 .23 0s.2 0 .24 0c.02-.02-.03-.2 0-.23s.18.02.22 0c.05-.02.17 0 .23 0 0 0 .2.02.2 0 .03-.02 0-.22 0-.22.07-.02.18 0 .23 0 .07 0 .17 0 .23 0 .04 0 .2.03.23 0 0-.02-.03-.22 0-.23.05-.02.15 0 .2 0h.24c.06 0 .16 0 .22 0 .03 0 0-.2 0-.23.03-.02.2 0 .23 0 .05 0 .15 0 .22 0 .06 0 .16.02.22 0 .04 0 .2.03.22 0 .03-.03-.03-.2 0-.23.05-.02.17.02.23 0 .05 0 .15 0 .2 0 .07 0 .2.03.24 0 .03 0-.02-.2 0-.22.02-.02.2 0 .23 0 .07 0 .15 0 .22 0h.22c.06 0 .16.02.23 0 0 0-.02-.2 0-.23s.18 0 .22 0c.06-.02.16 0 .22 0s.16.02.22 0c.02 0-.02-.2 0-.23.02 0 .2 0 .23 0 .06 0 .16.03.22 0 .06 0 .16 0 .23 0 .05 0 .17.03.22 0 .03 0-.02-.2 0-.22.03-.03.18.02.22 0 .06 0 .17 0 .23 0 .03 0 .2.02.23 0 0 0-.02-.22 0-.22.06-.02.16 0 .22 0h.45c.07 0 .16 0 .23 0 .02 0-.02-.2 0-.23.02-.02.2 0 .22 0 .07 0 .16.02.23 0 .06 0 .16 0 .22 0s.17.03.23 0c.03 0-.02-.2 0-.22.02-.03.2 0 .22 0 .07 0 .16 0 .23 0h.22c.07 0 .17.02.23 0 .02 0-.02-.2 0-.22.03-.03.2 0 .23 0 .06-.02.15 0 .22 0s.17 0 .23 0c.04-.02.2.03.22 0 .03-.04-.03-.2 0-.23.05-.03.17.02.23 0 .14-.03.3.04.45 0 .04 0 .2.03.22 0 .02 0-.02-.22 0-.22.07 0 .16 0 .23 0h.22c.07 0 .17.03.23 0 .04 0 .2.04.23 0 .03 0-.02-.2 0-.2.05-.03.18 0 .23 0 .07 0 .16 0 .23 0 .06-.03.16 0 .22 0 .03 0 .2 0 .23 0 .02-.03 0-.23 0-.24.07 0 .16 0 .23 0h.45c.07 0 .16.02.23 0 .05 0 .2.03.24 0 .02-.03-.04-.2 0-.22.04-.03.17 0 .22 0 .06-.02.16 0 .22 0 .08 0 .15 0 .23 0h.23c.07 0 .17.02.23 0 .02 0-.02-.2 0-.22.02-.02.2 0 .23 0 .06 0 .14 0 .2 0 .08 0 .17 0 .24 0 .05 0 .17.02.22 0 .03 0-.02-.2 0-.23.03-.03.2 0 .23 0 .05-.02.14 0 .2 0 .1 0 .16 0 .24 0 .07 0 .16 0 .22 0 .04 0 .2.02.23 0 0-.03-.04-.22 0-.23.04-.02.16 0 .22 0 .07 0 .15 0 .22 0s.15 0 .23 0h.22c.06 0 .15.02.22 0 0 0-.02-.2 0-.22.02-.03.18 0 .22 0 .07-.02.16 0 .23 0s.15 0 .22 0c.06-.02.15 0 .22 0 .02 0 .2.02.22 0 .02-.02 0-.22 0-.22.07-.02.16 0 .23 0h.44c.06 0 .16 0 .22 0 .04 0 .2.02.23 0 .03-.04-.04-.2 0-.23s.17 0 .23 0c.07 0 .15 0 .22 0h.23c.07 0 .15 0 .22 0s.16.02.23 0c.04 0 .2.03.22 0 .03-.03-.04-.2 0-.22.04-.03.18 0 .23 0 .07 0 .15 0 .22 0h.45c.07 0 .16.02.23 0 .04 0 .2.03.22 0 .03-.03-.03-.2 0-.22.05-.03.18 0 .23 0 .07 0 .15 0 .23 0h.45c.06 0 .16 0 .22 0 .04 0 .2.03.23 0s-.04-.2 0-.22c.04-.03.17 0 .22 0 .07-.02.16 0 .22 0h.23c.08 0 .15 0 .23 0 .06 0 .16 0 .22 0 .04 0 .2.03.23 0 .03-.04-.04-.2 0-.23.04-.02.18.02.22 0 .08 0 .16 0 .23 0h.45c.07 0 .15.02.22 0 .07 0 .16 0 .23 0 .03 0 .2.03.22 0 .02 0 0-.2 0-.2.08-.02.16 0 .23 0H122c.08 0 .16 0 .23 0 .04-.02.2.02.23 0 .02-.03-.03-.22 0-.23.05-.02.17 0 .22 0 .07 0 .16 0 .23 0 .08 0 .16 0 .24 0h.22c.07 0 .15 0 .23 0 .06 0 .14 0 .2 0s.18.02.24 0c.02 0-.03-.2 0-.22.02-.03.18 0 .22 0 .07-.02.16 0 .23 0h.2c.08 0 .16 0 .24 0 .07 0 .15 0 .22 0H125.6c.08 0 .18.02.24 0 .04 0 .2.02.22 0 .04-.04-.03-.2 0-.23.05-.02.18 0 .23 0 .06 0 .14 0 .22 0h1.12c.07 0 .16 0 .23 0 .03 0 .2.03.22 0 .02-.02-.03-.2 0-.22.04-.02.16 0 .22 0 .07 0 .15 0 .22 0 .08 0 .16 0 .23 0h.22c.07 0 .15 0 .22 0 .08 0 .15 0 .23 0h.44c.07 0 .15 0 .22 0s.16 0 .23 0c.02 0 .2.02.22 0 0 0 0-.22 0-.22.08 0 .15 0 .23 0h.22c.3 0 .6 0 .9 0 .08 0 .16 0 .23 0s.15 0 .23 0h.45c.07 0 .15 0 .22 0s.15 0 .23 0c.02 0 .2.02.22 0 .02 0 0-.22 0-.22.08 0 .15 0 .23 0h.22c.3 0 .6 0 .9 0 .08 0 .15 0 .23 0 .07 0 .15 0 .22 0h.23c.3 0 .6 0 .9 0 .08 0 .15 0 .23 0 .03 0 .2.02.22 0 .03-.02-.03-.2 0-.22.05-.03.17 0 .23 0 .08 0 .16 0 .23 0 .08 0 .15 0 .23 0h.22c.08 0 .15 0 .23 0 .08 0 .16 0 .23 0h.23c.3 0 .6 0 .9 0h1.58c.07 0 .15 0 .22 0 .08 0 .15 0 .23 0h.44c.07 0 .15 0 .22 0 .08 0 .16 0 .23 0 .02 0 .2.02.22 0 0 0 0-.22 0-.22.07 0 .15 0 .22 0H143.87c.07 0 .15 0 .22 0s.14 0 .22 0h1.35c.3 0 .6 0 .9 0 .16 0 .3 0 .46 0h.22c.3 0 .6 0 .9 0h1.57c.16 0 .3 0 .46 0 .07 0 .15 0 .23 0h1.35c.08 0 .16 0 .23 0 .04.02.2 0 .23 0 .03.03-.02.22 0 .24.06.02.18 0 .23 0 .07 0 .15 0 .23 0 .07 0 .15 0 .22 0h.23c.08 0 .16 0 .23 0 .08 0 .15 0 .23 0h1.12c.08 0 .15 0 .23 0 .3 0 .6 0 .9 0h.46c.08 0 .15 0 .23 0h.66c.08 0 .16 0 .23 0 .06 0 .14 0 .2 0 .04 0 .22-.02.24 0 0 .02 0 .22 0 .23.07 0 .15 0 .22 0H159.2c.07 0 .14-.02.2 0 .1 0 .17 0 .24 0 .07 0 .15 0 .23 0h.9c.07 0 .15-.02.22 0 .06 0 .15 0 .22 0 .05 0 .17-.03.22 0 .03 0-.02.2 0 .2.03.04.2 0 .23 0 .07.03.15.02.22.02h.22c.07 0 .15 0 .22 0 .08 0 .16 0 .23 0s.15 0 .23 0h.9c.07 0 .15 0 .22 0 .08 0 .16 0 .23 0 .06 0 .16-.02.22 0 .04 0 .2-.03.23 0 .02.02-.02.22 0 .23.06 0 .16 0 .22 0h.23c.07 0 .15 0 .22 0 .08 0 .16 0 .23 0H166.63c.07 0 .15 0 .22 0 .04 0 .2-.03.23 0 .02.02-.03.2 0 .22.04.02.17 0 .22 0 .08 0 .15 0 .22 0 .08 0 .16 0 .23 0h.23c.07 0 .15 0 .22 0 .08 0 .15 0 .23 0 .07 0 .15 0 .22 0h.23c.07 0 .16 0 .22 0 .05 0 .2-.03.23 0 .03.04-.04.2 0 .23.04.02.18 0 .22 0 .08 0 .16 0 .23 0h.23c.3 0 .6 0 .9 0 .08 0 .16 0 .23 0 .04 0 .2-.02.23 0 .02.02-.03.2 0 .22.05.02.17 0 .22 0 .08 0 .15 0 .23 0 .08.02.16 0 .24 0h.22c.07 0 .15 0 .22 0 .07.02.16 0 .23 0 .08 0 .17 0 .23 0 .04.02.2-.02.23 0 .02.02-.02.22 0 .23.06.02.16 0 .23 0 .06 0 .13 0 .2 0 .08 0 .17 0 .24 0 .07 0 .15 0 .22 0H174.5c.08 0 .17 0 .24 0 .03 0 .2-.02.22 0 .04.03-.03.2 0 .23.04.03.18 0 .23 0 .06 0 .14 0 .2 0H175.87c.08 0 .16 0 .23 0 .06 0 .14 0 .2 0 .04 0 .22-.02.24 0 0 .02-.02.22 0 .23.07 0 .15 0 .22 0H177.9c.06 0 .14 0 .2 0 .03 0 0 .22 0 .23.04.03.2 0 .24 0 .06.02.16 0 .22 0 .08 0 .16 0 .23 0 .06 0 .14 0 .22 0h.22c.07 0 .16 0 .23 0 .03 0 .2-.02.22 0 .02.03-.03.22 0 .23.04.02.16 0 .22 0 .07 0 .15 0 .22 0 .08 0 .15 0 .23 0h.22c.07 0 .15 0 .22 0 .04 0 .2-.03.22 0 .03.02-.03.2 0 .22.05.02.17 0 .23 0 .07 0 .15 0 .23 0 .07 0 .15 0 .22 0h.22c.08 0 .16 0 .23 0 .07.02.15 0 .23 0 .05 0 .17-.02.22 0 .03.02-.02.2 0 .23.03.04.2 0 .23 0 .07.02.15 0 .22 0h.23c.07 0 .15 0 .22 0 .07.02.16 0 .23 0 .05 0 .17 0 .22 0 .03.02-.02.2 0 .24.03.02.2 0 .23 0 .07 0 .15 0 .22 0h.23c.07 0 .16-.02.22 0 .04 0 .2-.03.23 0 .03.02-.03.2 0 .22.05.02.17 0 .23 0 .07 0 .15 0 .22 0s.15 0 .23 0h.22c.07 0 .16 0 .22 0 .04 0 .2-.02.23 0 .03.03-.03.22 0 .23.05 0 .17 0 .23 0 .07 0 .15-.02.22 0 .08 0 .15 0 .23 0h.22c.07 0 .16-.02.23 0 0 0-.02.2 0 .2.03.04.18 0 .22 0 .07.03.16 0 .23 0s.16 0 .22 0c.07.03.16 0 .23 0 .03 0 .2 0 .22 0 0 .03 0 .24 0 .24.07 0 .16 0 .23 0h.45c.07 0 .16 0 .23 0 .08 0 .16 0 .23 0 .03 0 .2-.02.23 0 0 .02-.02.22 0 .23.06 0 .15 0 .22 0h.46c.07 0 .16-.02.23 0 .04 0 .2-.03.22 0 .03.03-.04.2 0 .22.05.02.17-.02.23 0 .07 0 .17 0 .23 0 .07 0 .16-.02.23 0 .04 0 .2-.04.22 0 .02 0-.02.2 0 .22.07 0 .16 0 .23 0h.24c.06 0 .15-.02.22 0 .06 0 .16 0 .23 0 .04 0 .16-.02.2 0 .04 0 0 .2 0 .22.03.03.2 0 .24 0 .06 0 .15 0 .22 0h.23c.05 0 .15 0 .2 0 .03 0 0 .2 0 .23.04.02.2 0 .24 0 .06 0 .15 0 .22 0s.16-.02.23 0c.05 0 .15 0 .2 0 .04 0 .22-.02.24 0 0 0-.02.22 0 .22.06 0 .15 0 .22 0H195.9c.08 0 .17-.02.24 0 .04 0 .2-.03.22 0 .03.03-.04.2 0 .22.04.03.18 0 .23 0 .05 0 .15 0 .2 0 .08 0 .18 0 .24 0 .04 0 .2-.03.22 0 .02.02-.02.22 0 .22.07.02.16 0 .23 0h.2c.08 0 .17 0 .24 0 .04 0 .2-.02.23 0 .02.03-.03.22 0 .23.04.02.17 0 .22 0 .06 0 .14 0 .22 0 .07 0 .15 0 .22 0 .08 0 .15 0 .23 0 .06 0 .16 0 .22 0 0 0-.03.2 0 .23.02.03.18 0 .22 0 .06 0 .16 0 .22 0s.17-.02.23 0c.04 0 .2-.03.22 0 .02.03-.04.2 0 .22.04.03.16 0 .22 0 .06.02.16 0 .22 0 .07 0 .16 0 .23 0 .04 0 .2-.02.22 0 0 .02-.03.22 0 .23.06 0 .15 0 .22 0h.22c.07 0 .17-.02.23 0 .04 0 .2-.03.22 0 .02.03-.03.2 0 .23.04 0 .17 0 .22 0 .07 0 .16-.02.22 0 .06 0 .17 0 .23 0 .03 0 .2-.02.23 0 0 0-.02.2 0 .22.06.02.15 0 .22 0s.16 0 .23 0c.04 0 .2-.03.22 0 .02.02-.02.22 0 .22.06.02.16 0 .23 0h.22c.07 0 .16 0 .23 0 .06.02.16 0 .22 0s.18-.02.23 0c.03.02-.03.2 0 .23s.18-.02.23 0c.05.02.16 0 .22 0 .03 0 .2-.02.22 0 .02.02 0 .22 0 .22.07.02.17 0 .23 0h.22c.08 0 .15 0 .23 0 .06 0 .16 0 .22 0 .03 0-.02.2 0 .23.03.03.2 0 .23 0 .07 0 .16-.02.22 0 .07.02.16 0 .23 0 .06 0 .18-.02.23 0 .03 0-.03.2 0 .23s.18-.02.22 0c.06.02.17 0 .23 0 .02 0 .2-.02.22 0 0 0-.02.22 0 .22.06.02.16 0 .23 0h.45c.06 0 .16 0 .23 0 0 0-.02.2 0 .23 0 .02.18 0 .2 0 .1 0 .18-.02.24 0 .06 0 .16 0 .23 0 .05 0 .18-.02.23 0 .02 0-.03.2 0 .22.03.03.17 0 .22 0 .05.02.17 0 .22 0 .03 0 .22 0 .23 0 .02.02-.02.22 0 .23.06.02.16 0 .23 0 .06 0 .15-.02.22 0 .04 0 .2-.03.22 0 .02.02 0 .22 0 .22.07.02.16 0 .23 0h.23c.06 0 .16 0 .22 0 .04 0 .2-.02.23 0 .03.03-.02.22 0 .23.06.02.18 0 .23 0 .06 0 .18-.02.23 0 .04.02.2-.03.22 0 .03.03-.03.2 0 .22.05.04.17 0 .23 0 .07.02.17 0 .23 0 .07 0 .16 0 .23 0 .04 0 .2-.02.22 0 .02.02-.02.23 0 .23.07 0 .16 0 .23 0h.23c.07 0 .17-.02.23 0 .02 0-.02.2 0 .23.03.02.18-.02.22 0 .07 0 .17 0 .23 0 .07 0 .18-.02.24 0 .02 0-.02.2 0 .22.02.02.2 0 .22 0 .07 0 .15 0 .22 0s.16 0 .23 0c.06 0 .2-.02.24 0 .03 0-.03.2 0 .23.02.03.18 0 .22 0 .07.02.16 0 .22 0H217.1c.05 0 .14.02.2 0 .05 0 .2.03.24 0 .03-.02-.04-.2 0-.22.05-.03.17.02.22 0 .07-.02.16.02.23 0-.04-.04.03-.2 0-.22-.05-.04-.2.03-.24 0-.04-.04.04-.2 0-.22-.03-.04-.18.02-.22 0-.04-.03.03-.2 0-.23-.02 0-.2 0-.23 0-.04 0-.17.03-.2 0-.05 0 .02-.2 0-.2-.03-.04-.2 0-.24 0-.05-.02-.17 0-.22-.02-.03 0 .02-.2 0-.22-.02-.02-.2 0-.23 0-.04 0-.17.02-.2 0-.04-.02 0-.2 0-.23-.04-.02-.2 0-.24 0-.05 0-.17.03-.22 0-.03 0 .02-.2 0-.22-.02 0-.2 0-.23 0-.04 0-.17.03-.2 0-.05 0 0-.2 0-.22-.04-.02-.2 0-.24 0-.06 0-.17.03-.22 0-.03 0 .02-.2 0-.22-.02-.02-.2 0-.23 0-.04 0-.16.02-.2 0-.05 0 0-.2 0-.23-.04-.02-.2 0-.24 0-.06 0-.17.03-.22 0-.05 0-.2.04-.23 0-.02-.03.04-.2 0-.22-.04-.02-.16.04-.22 0-.04 0-.18.04-.22 0-.03-.02.04-.2 0-.22-.06-.03-.17.03-.22 0-.05-.02-.2.04-.23 0-.02-.02.05-.2 0-.22-.04-.04-.16.02-.22 0-.04-.02-.18.03-.22 0-.03-.03.04-.2 0-.23-.06-.03-.17.03-.23 0-.04-.02-.2.04-.22 0-.02-.03.04-.2 0-.22-.04-.02-.16.04-.22 0-.05 0-.17 0-.22 0-.03 0-.22.03-.23 0-.02-.02.03-.2 0-.22-.04 0-.17 0-.22 0-.02 0-.2.02-.22 0-.02-.02.03-.2 0-.22-.05-.02-.17 0-.22 0-.06 0-.18.02-.23 0-.03 0 .03-.2 0-.23s-.18.02-.22 0c-.05-.02-.16 0-.22 0-.03 0-.2.02-.22 0-.02-.02.02-.22 0-.22-.05 0-.18 0-.23 0-.03 0-.2.03-.22 0-.02-.02.03-.2 0-.22-.04-.02-.17 0-.22 0-.02 0-.2.02-.22 0-.02-.02.02-.2 0-.22-.05-.02-.18 0-.23 0h-.23c-.06 0-.16.02-.22 0-.02 0 .02-.2 0-.23-.02-.02-.2 0-.23 0-.05 0-.17.03-.22 0-.03 0 .02-.2 0-.22-.02-.02-.2 0-.23 0-.05 0-.17.03-.22 0-.03 0 .03-.2 0-.22-.02-.02-.2 0-.23 0-.05 0-.17.03-.22 0-.05-.02-.2.04-.23 0-.03-.03.04-.2 0-.22-.05-.04-.17.03-.22 0-.04-.03-.2.03-.23 0s.04-.2 0-.23c-.05-.03-.17.03-.22 0-.05-.02-.17 0-.23 0-.02 0-.2.02-.22 0-.02-.02.02-.2 0-.22-.05 0-.18 0-.23 0-.02 0-.2.03-.22 0-.02 0 .02-.2 0-.2-.05-.04-.17 0-.23 0h-.22c-.07 0-.17 0-.23 0-.02-.02.02-.23 0-.24-.02-.02-.2 0-.22 0-.06 0-.17.02-.23 0-.02 0 .02-.2 0-.23-.02-.02-.2 0-.23 0-.05 0-.17.02-.22 0-.04-.02-.2.03-.22 0-.04-.03.03-.2 0-.22-.05-.03-.17.03-.23 0-.04 0-.2.04-.23 0-.02-.02.03-.2 0-.22-.04-.02-.17 0-.22 0-.06 0-.17.02-.23 0-.04 0-.2.03-.22 0-.03-.03.03-.2 0-.22-.05-.03-.17 0-.23 0-.05-.02-.16 0-.22 0-.03 0-.2 0-.23 0 0-.02.02-.22 0-.23-.06-.02-.16 0-.22 0-.08 0-.15 0-.23 0-.06 0-.17.02-.22 0-.03 0 .02-.2 0-.23-.03-.02-.2 0-.23 0-.05 0-.18.03-.22 0-.03 0 .02-.2 0-.22-.02-.02-.2 0-.23 0-.06 0-.17.02-.22 0-.05-.02-.2.03-.23 0s.04-.2 0-.22c-.05-.04-.16.02-.22 0s-.17 0-.23 0c-.03 0-.2.02-.23 0 0-.03.03-.22 0-.23-.05-.02-.16 0-.22 0-.03 0-.2.02-.22 0-.02-.02 0-.2 0-.22-.07 0-.16 0-.23 0h-.22c-.07 0-.18.03-.23 0-.04 0-.2.04-.23 0-.04-.03.03-.2 0-.22-.06-.04-.18.03-.23 0-.04-.03-.2.03-.23 0s.04-.2 0-.22c-.04-.04-.17.02-.22 0-.06-.02-.17 0-.23 0-.03 0-.22.02-.23 0-.02-.02.02-.22 0-.23-.07 0-.16 0-.22 0h-.23c-.06 0-.17.02-.23 0-.03 0 0-.2 0-.22-.03-.02-.2 0-.23 0-.06 0-.17.02-.23 0-.04 0-.2.03-.22 0-.04-.03.03-.2 0-.22-.05-.03-.17.02-.23 0-.07-.02-.17 0-.23 0h-.23c-.07 0-.16.02-.22 0-.02 0 .02-.2 0-.22-.02-.03-.2 0-.23 0-.07 0-.17.02-.24 0-.04-.02-.2.02-.22 0-.03-.04.04-.2 0-.23-.05-.04-.17.02-.22 0-.06-.02-.17 0-.23 0-.04 0-.22.02-.23 0-.02-.02.02-.22 0-.22-.06-.02-.17 0-.23 0h-.23c-.05 0-.15.02-.2 0-.03 0 0-.2 0-.22-.03-.02-.2 0-.24 0-.06 0-.16 0-.22 0-.04-.02-.2.03-.23 0-.02-.03.05-.2 0-.23-.04-.03-.15.03-.2 0-.07-.02-.18 0-.24 0-.02 0-.2.02-.22 0-.02-.02.02-.22 0-.22-.06-.02-.17 0-.23 0h-.2c-.08 0-.17 0-.24 0-.04 0-.2.02-.22 0-.04-.04.03-.2 0-.23-.05-.03-.18.02-.23 0-.05-.02-.15 0-.2 0-.04 0-.23.02-.24 0-.02-.02.02-.22 0-.22-.06-.02-.16 0-.22 0h-.23c-.06 0-.15 0-.22 0-.04-.02-.2.02-.22 0-.03-.03.04-.2 0-.23-.05-.03-.17.03-.23 0-.05-.02-.17 0-.22 0-.02 0-.2.02-.22 0 0-.02.02-.22 0-.22-.06-.02-.16 0-.22 0-.08 0-.15 0-.23 0-.06 0-.15 0-.22 0-.03 0-.2.02-.22 0-.03-.03.04-.2 0-.23s-.17 0-.22 0c-.07-.02-.16 0-.23 0s-.16 0-.22 0c-.03 0-.2.02-.22 0 0-.02.02-.22 0-.23-.06 0-.16 0-.23 0h-.22c-.07 0-.16.02-.22 0-.03 0-.2.03-.22 0-.03-.03.04-.2 0-.22-.04-.03-.17 0-.22 0-.07 0-.16 0-.23 0h-.23c-.06 0-.16.02-.22 0-.02 0 .02-.2 0-.23-.02-.02-.2 0-.23 0-.06 0-.15.02-.22 0-.06-.02-.16 0-.23 0-.02 0-.2.02-.22 0-.02-.02.02-.22 0-.22-.06-.02-.16 0-.23 0h-.22c-.07 0-.16 0-.23 0-.04 0-.2.02-.22 0-.03-.04.03-.2 0-.23-.05-.03-.17 0-.23 0s-.16 0-.22 0h-.23c-.06 0-.16.02-.22 0-.02 0 0-.2 0-.22-.02-.03-.2 0-.23 0-.07 0-.16 0-.22 0-.07-.02-.16 0-.23 0-.03 0-.2 0-.22 0-.02-.02 0-.22 0-.23-.07-.02-.16 0-.23 0h-.22c-.07 0-.16.02-.23 0-.04 0-.2.03-.23 0s.04-.2 0-.22c-.04-.03-.17 0-.22 0-.07-.02-.16 0-.22 0h-.23c-.07 0-.16 0-.23 0-.03 0-.2.02-.22 0-.03-.04.03-.2 0-.23-.05-.03-.17 0-.23 0-.06-.02-.15 0-.22 0h-.23c-.07 0-.16 0-.22 0-.04 0-.2.03-.23 0-.02-.02.03-.2 0-.23-.05-.02-.17 0-.22 0-.08 0-.15 0-.23 0-.07 0-.15 0-.22 0-.08 0-.15 0-.23 0-.07 0-.16.02-.22 0-.03 0 0-.2 0-.22-.03-.02-.2 0-.23 0-.07 0-.16.02-.22 0-.07-.02-.17 0-.23 0-.03 0-.2 0-.23 0-.02-.02 0-.22 0-.23-.07-.02-.16 0-.23 0h-.9c-.07 0-.16 0-.22 0-.02 0 0-.22 0-.23-.03-.02-.2 0-.23 0-.08 0-.15 0-.23 0-.08 0-.16 0-.23 0h-.23c-.07 0-.15 0-.22 0-.02 0 0-.2 0-.23-.03-.02-.2 0-.23 0-.08 0-.16 0-.23 0-.08 0-.16 0-.23 0h-.23c-.06 0-.14 0-.2 0-.05 0-.2.03-.23 0-.04-.03.03-.2 0-.23-.05 0-.18.03-.23 0-.07 0-.16 0-.22 0h-.23c-.08 0-.17.03-.24 0-.04 0-.2.04-.22 0-.03-.02.03-.2 0-.2-.05-.04-.17 0-.23 0-.05-.03-.15 0-.2 0h-.24c-.07 0-.16 0-.23 0-.06-.03-.15 0-.22 0-.02 0-.2 0-.2 0-.03-.04 0-.23 0-.24-.08-.02-.17 0-.24 0-.07 0-.15 0-.23 0-.07 0-.15 0-.22 0-.06 0-.14 0-.2 0h-.24c-.07 0-.15 0-.23 0-.06 0-.16.02-.22 0 0 0 .03-.2 0-.22 0-.02-.18 0-.22 0-.07 0-.15 0-.22 0s-.15 0-.23 0h-.22c-.07 0-.15 0-.22 0s-.15 0-.22 0c-.03 0-.2 0-.23 0 0-.02.02-.23 0-.23-.07 0-.15 0-.22 0h-.44c-.15 0-.3 0-.45 0-.07 0-.15.02-.22 0-.04 0-.2.03-.23 0-.03-.02.04-.2 0-.22-.04-.03-.17.02-.22 0-.07 0-.16 0-.23 0h-.22c-.07 0-.15 0-.23 0-.07 0-.15 0-.22 0h-.23c-.06 0-.15 0-.22 0-.04 0-.2.03-.23 0s.04-.2 0-.23c-.04-.02-.17 0-.22 0-.07 0-.16 0-.23 0s-.15 0-.22 0H161c-.07 0-.15 0-.22 0s-.16 0-.23 0c-.02 0-.2.02-.22 0-.02 0 .02-.2 0-.22-.07-.02-.16 0-.23 0h-.22c-.08 0-.16 0-.23 0s-.15 0-.23 0h-.89c-.08 0-.16 0-.23 0-.03 0-.2.02-.23 0-.03-.03.04-.2 0-.23-.04-.02-.17 0-.22 0-.07 0-.16 0-.23 0h-.22c-.08 0-.15 0-.23 0-.07 0-.15 0-.22 0h-.91c-.07 0-.15 0-.22 0-.03 0-.2.02-.23 0-.04-.03.03-.2 0-.23-.05-.02-.18.02-.23 0-.07 0-.16 0-.23 0h-.22c-.08 0-.15 0-.23 0-.08 0-.16 0-.23 0h-.9c-.08 0-.16 0-.23 0s-.15 0-.22 0h-.23c-.07 0-.17.02-.23 0-.02 0 0-.2 0-.22-.02-.02-.2 0-.23 0-.08 0-.15 0-.23 0-.06 0-.14 0-.2 0-.1 0-.16 0-.24 0h-.67c-.1 0-.16 0-.24 0-.07 0-.15 0-.22 0h-.9c-.07 0-.14 0-.22 0-.07 0-.14 0-.22 0h-.22c-.07 0-.15 0-.23 0-.07-.02-.15 0-.22 0-.02 0-.2 0-.2 0-.05-.05.02-.18 0-.23h-1.37c-.07 0-.15 0-.22 0h-.44c-.3 0-.6 0-.9 0h-2.02c-.15 0-.3 0-.45 0h-.23c-.3 0-.6 0-.9 0h-2.7C139 0 138.85 0 138.7 0H135.77c-.3 0-.6 0-.9 0-.38 0-.76 0-1.13 0h-2.5c-.03.04.04.18 0 .22-.03.03-.2 0-.23 0-.06.02-.15 0-.23 0-.07 0-.15 0-.22 0s-.15 0-.22 0c-.08 0-.15 0-.23 0h-.45c-.08 0-.15 0-.22 0H128.33c-.08 0-.15 0-.23 0-.07 0-.15 0-.22 0s-.15 0-.23 0h-.22c-.08 0-.15 0-.23 0-.07 0-.16-.02-.23 0 0 0 .02.2 0 .22-.02.03-.18 0-.22 0-.06.02-.16 0-.22 0-.08 0-.15 0-.23 0-.07 0-.15 0-.23 0h-1.12c-.08 0-.15 0-.23 0-.07 0-.15 0-.22 0-.08 0-.16 0-.23 0h-.22c-.07 0-.16 0-.23 0-.04 0-.2-.03-.22 0-.03.02.02.2 0 .22-.05.02-.18 0-.23 0-.07 0-.15 0-.22 0-.08 0-.15 0-.23 0H121.8c-.08 0-.16 0-.23 0s-.15 0-.23 0c-.05 0-.17-.02-.22 0-.03 0 .02.2 0 .22-.03.03-.2 0-.23 0-.08 0-.16 0-.23 0-.08 0-.15 0-.23 0h-.23c-.06 0-.14 0-.2 0-.08 0-.16 0-.24 0h-.45c-.05 0-.14 0-.2 0-.08 0-.16 0-.24 0-.02 0-.2-.02-.22 0 0 0 0 .22 0 .22-.07 0-.15 0-.23 0h-1.34c-.07 0-.15 0-.22 0-.04 0-.2-.02-.23 0 0 .03.04.2 0 .23-.04.02-.16 0-.22 0-.07 0-.15 0-.22 0s-.15 0-.22 0h-.45c-.07 0-.15-.02-.22 0-.07 0-.16 0-.23 0-.05 0-.17-.03-.22 0-.02 0 .03.2 0 .22-.02.03-.18 0-.22 0-.07 0-.15 0-.23 0h-.44c-.07 0-.15 0-.22 0s-.15 0-.23 0c-.06 0-.16-.02-.22 0-.04 0-.2-.03-.23 0 0 0 .02.22 0 .22-.06.02-.15 0-.22 0h-.22c-.08 0-.16 0-.24 0-.06 0-.15 0-.22 0h-.45c-.07 0-.16 0-.22 0-.02 0 0 .2 0 .22-.03.02-.2-.02-.23 0-.06 0-.16 0-.22 0-.07 0-.16-.02-.23 0-.07 0-.15 0-.22 0h-.46c-.06 0-.16-.02-.22 0-.02 0 .02.2 0 .22-.02.02-.2 0-.22 0-.08 0-.16-.02-.23 0-.07 0-.16 0-.23 0h-.45c-.07 0-.16-.02-.22 0-.04 0-.2-.03-.23 0-.02.02.03.2 0 .22-.05.02-.17 0-.23 0s-.15-.02-.22 0c-.07 0-.15 0-.22 0h-.45c-.07 0-.17-.02-.23 0-.02 0 .02.2 0 .22-.02.03-.2 0-.23 0-.08 0-.16 0-.23 0s-.15 0-.23 0c-.06 0-.16-.02-.22 0-.04 0-.2-.02-.23 0-.02.02 0 .22 0 .23-.07 0-.17 0-.23 0h-.45c-.07 0-.16-.03-.23 0-.08 0-.17 0-.24 0-.06 0-.15-.03-.22 0-.04 0-.2-.04-.23 0 0 0 .03.2 0 .2-.05.02-.14 0-.2 0H103.53c-.07 0-.16 0-.23 0-.02 0-.2-.02-.2 0-.04.03.02.22 0 .23-.06.02-.18 0-.24 0-.07 0-.16-.02-.22 0-.07.02-.16 0-.23 0-.05 0-.15-.02-.22 0-.03 0-.2-.03-.22 0-.02.02.02.22 0 .22-.06.02-.16 0-.22 0h-.45c-.06 0-.15 0-.22 0-.04 0-.2-.02-.22 0-.04.03.03.2 0 .23-.05.03-.18 0-.23 0-.06 0-.14 0-.22 0h-.45c-.07 0-.15 0-.22 0 0 0 .02.2 0 .22-.02.03-.18 0-.22 0-.06.02-.16 0-.22 0-.07 0-.16 0-.23 0-.06 0-.15 0-.22 0-.05 0-.17-.02-.22 0-.03 0 .03.2 0 .23-.02.02-.2 0-.22 0-.07 0-.16 0-.23 0h-.22c-.06 0-.15-.02-.22 0-.04 0-.2-.03-.22 0-.03.02.02.2 0 .22-.05.02-.18 0-.23 0-.06 0-.17-.02-.22 0-.05 0-.16 0-.22 0s-.18-.03-.23 0c-.02 0 .03.2 0 .22-.02.03-.2 0-.22 0-.06.02-.16 0-.23 0-.06 0-.16 0-.22 0-.04 0-.2-.03-.23 0-.02.02.02.22 0 .22-.06 0-.16 0-.22 0h-.23c-.07 0-.16-.02-.23 0-.06 0-.15 0-.22 0-.05 0-.17-.03-.23 0-.02 0 .03.2 0 .22-.02.03-.18-.02-.22 0-.06 0-.16 0-.23 0-.06 0-.16-.02-.22 0-.04 0-.2-.03-.23 0-.02 0 .02.2 0 .22-.06.02-.16 0-.22 0h-.23c-.07 0-.15 0-.22 0s-.16-.02-.23 0c-.02 0 .02.2 0 .22-.03.03-.18 0-.22 0-.07.02-.16 0-.23 0-.06 0-.16 0-.22 0-.05 0-.2-.02-.23 0-.02.02.03.2 0 .22-.05.03-.17 0-.23 0-.07 0-.17 0-.23 0-.06.02-.16 0-.23 0-.05 0-.17-.02-.22 0-.03 0 .02.2 0 .23-.03.04-.2 0-.23 0-.07.02-.17 0-.23 0-.07 0-.16 0-.23 0-.03.02-.2-.02-.22 0-.02.03.02.23 0 .23-.07.02-.16 0-.23 0h-.23c-.07 0-.16 0-.23 0-.04 0-.2-.03-.22 0-.03.03.02.22 0 .23-.05.02-.17 0-.23 0-.07 0-.18-.02-.23 0-.05 0-.2-.03-.23 0-.02.02.03.2 0 .22-.05.02-.17 0-.23 0-.05 0-.15-.02-.2 0-.07 0-.17 0-.24 0-.05 0-.17-.02-.22 0-.03 0 .02.2 0 .22-.03.03-.2 0-.23 0-.05.02-.14 0-.2 0h-.24c-.06 0-.16-.02-.22 0-.03 0 .02.2 0 .23-.03.02-.2 0-.23 0-.05 0-.15 0-.2 0-.07 0-.18-.02-.24 0-.02 0 .02.2 0 .22-.03.03-.18 0-.23 0-.06.02-.16 0-.22 0-.05 0-.15-.02-.2 0-.06 0-.2-.03-.24 0-.02.02.03.2 0 .22-.05.02-.17 0-.23 0-.05 0-.17-.02-.22 0-.04.02-.2-.03-.22 0-.03.03.04.2 0 .23s-.17-.02-.22 0c-.06 0-.17 0-.23 0-.05 0-.17-.03-.22 0-.02 0 .03.2 0 .22-.02.03-.18 0-.22 0-.06.02-.16 0-.22 0-.07 0-.17 0-.23 0-.04 0-.2-.03-.22 0 0 .02.03.22 0 .23-.05.02-.16 0-.22 0-.07 0-.16-.02-.23 0-.04 0-.2-.03-.22 0-.02 0 .02.2 0 .22-.06.02-.16 0-.23 0-.06 0-.16 0-.22 0-.04 0-.2-.03-.23 0-.02.02.03.22 0 .22-.06 0-.16 0-.22 0-.07 0-.16-.02-.22 0-.03 0-.2-.03-.22 0-.02 0 .02.2 0 .22-.06 0-.17 0-.23 0s-.16-.02-.22 0c-.04 0-.2-.03-.23 0-.02 0 .03.2 0 .22-.06.02-.16 0-.22 0-.07 0-.16-.02-.23 0-.04 0-.2-.03-.23 0 0 .02.03.22 0 .23-.06 0-.15 0-.22 0h-.22c-.07 0-.17-.03-.23 0-.02 0 .02.2 0 .22-.03.02-.2-.02-.23 0-.06 0-.16 0-.22 0s-.17-.03-.23 0c-.02 0 .02.2 0 .2-.02.04-.2 0-.22 0-.06.03-.16 0-.23 0-.06 0-.17 0-.22 0-.03.02.02.22 0 .24-.03.02-.2-.02-.23 0-.06 0-.16 0-.22 0s-.17-.03-.23 0c-.02 0 .02.2 0 .22-.02.02-.2 0-.22 0-.07 0-.17-.02-.23 0-.04 0-.2-.03-.23 0-.02.02.03.2 0 .22-.04.02-.17 0-.22 0-.06 0-.17-.02-.23 0-.05.02-.2-.03-.23 0-.02.02.03.2 0 .23-.05.03-.17 0-.23 0s-.17-.02-.22 0c-.03 0 .02.2 0 .23-.03.03-.2 0-.23 0-.07 0-.17 0-.23 0-.07 0-.17-.02-.23 0-.02 0 .02.2 0 .22-.02.02-.2 0-.23 0-.05 0-.15-.02-.2 0-.05.02-.2-.03-.24 0-.02.03.03.22 0 .23-.05.02-.17 0-.22 0-.06 0-.17-.03-.22 0-.05 0-.2-.03-.23 0-.04.02.02.2 0 .22-.06.02-.18 0-.23 0-.07 0-.18-.02-.23 0-.03 0 .02.2 0 .23-.03.02-.2-.02-.22 0-.07 0-.16 0-.23 0-.08 0-.18-.03-.23 0-.03 0 0 .2 0 .22-.03.02-.2 0-.23 0-.07 0-.16 0-.23 0-.04 0-.16-.02-.2 0-.04 0 0 .2 0 .22-.05.04-.2-.03-.24 0-.04.03-.2-.04-.22 0-.03.03.02.2 0 .23-.06.02-.17 0-.23 0-.05 0-.15-.02-.2 0-.06 0-.2-.03-.24 0-.02 0 .03.2 0 .22-.05.02-.17 0-.23 0-.05 0-.17-.02-.22 0-.02 0 .03.2 0 .22-.02.03-.17-.02-.22 0-.05.03-.16 0-.22 0-.02 0-.2-.02-.23 0-.02.03.03.2 0 .22-.05.03-.17 0-.22 0-.05 0-.17 0-.22 0-.03 0 .03.2 0 .23s-.18-.03-.22 0c-.05 0-.2-.04-.23 0-.02 0 .03.2 0 .2-.05.04-.17 0-.22 0-.05 0-.17 0-.22 0-.04.03-.2-.02-.22 0-.03.04.02.23 0 .24-.06.02-.18 0-.23 0-.05 0-.18-.02-.23 0-.03 0 .03.2 0 .22-.02.02-.2 0-.22 0-.06 0-.17-.02-.23 0-.04.02-.2-.03-.22 0-.03.02.02.22 0 .23-.05 0-.17 0-.23 0-.05 0-.18-.04-.22 0-.04 0 .02.18 0 .2-.04.05-.2-.02-.23 0-.05.04-.2-.03-.23 0-.02.04.03.22 0 .23-.04.03-.17 0-.22 0-.06 0-.17-.02-.22 0-.04.02.02.2 0 .23-.04.03-.2-.02-.23 0-.06.02-.17 0-.23 0-.02 0-.2-.02-.22 0-.02.02.02.2 0 .22-.05.02-.17 0-.23 0-.05 0-.17-.02-.22 0-.03.02.02.2 0 .22-.04.04-.18 0-.23 0-.04.02-.2-.03-.22 0-.03.03.02.22 0 .23-.05.02-.17 0-.23 0-.05 0-.18-.02-.22 0-.03 0 .02.2 0 .22-.03.03-.2 0-.23 0-.06.02-.16 0-.22 0s-.18-.02-.23 0c-.03.02.03.2 0 .23-.04.03-.18-.03-.23 0-.04.03-.2-.04-.22 0-.03.02.03.2 0 .22-.05.02-.17 0-.23 0s-.18-.02-.23 0c-.03 0 .02.2 0 .23-.04.03-.18-.03-.23 0-.04 0-.2-.04-.23 0 0 .02.05.2 0 .22-.03.02-.16 0-.2 0-.06 0-.2-.03-.23 0-.03.02.02.2 0 .22-.04.04-.2-.03-.23 0-.05.03-.2-.04-.23 0 0 .03.05.2 0 .23-.03.02-.16 0-.2 0-.04 0-.22-.02-.23 0-.03.02.02.2 0 .22-.05.02-.18 0-.23 0-.05 0-.18-.02-.23 0 0 0 .04.2 0 .22-.02.04-.17-.02-.2 0-.06.02-.2-.03-.24 0-.02.03.03.22 0 .23-.05.02-.17 0-.22 0-.06 0-.18-.03-.23 0-.02 0 .04.2 0 .22-.03.03-.17-.04-.2 0-.06.02-.2-.05-.24 0-.03.02.03.2 0 .2-.04.04-.18 0-.22 0-.03 0-.22 0-.23 0 0 .04.04.22 0 .24-.04.02-.17 0-.22 0-.05 0-.17-.02-.22 0-.03 0 .02.2 0 .22-.03.03-.18-.02-.23 0-.04.02-.2-.03-.22 0-.02.02.03.22 0 .23-.04 0-.16 0-.22 0-.05 0-.18-.04-.23 0-.02 0 .03.2 0 .2-.03.05-.17-.02-.22 0-.05.04-.2-.03-.23 0-.02.04.04.2 0 .24-.04.02-.17 0-.22 0-.03 0-.2-.03-.23 0-.02.02.04.2 0 .22-.04.02-.17 0-.22 0-.06 0-.18-.02-.23 0-.03 0 .03.2 0 .23-.03.02-.18-.03-.22 0-.05 0-.2-.05-.23 0-.02 0 .03.2 0 .2-.05.03-.17 0-.22 0-.05 0-.2 0-.23 0-.03.03.03.2 0 .23-.03.04-.2-.03-.22 0-.04.04.03.2 0 .22-.04.04-.18-.02-.23 0-.04.04-.2-.03-.22 0-.03.03.02.22 0 .23-.06.02-.18 0-.23 0-.05 0-.2-.03-.23 0-.03.02.03.2 0 .22-.03.04-.18-.03-.22 0-.05.03-.2-.03-.23 0-.02.03.04.2 0 .23-.04.02-.18 0-.22 0-.06 0-.18-.02-.23 0-.03 0 .03.2 0 .22-.03.04-.18-.03-.22 0-.04.02.02.2 0 .23-.04.03-.18-.03-.23 0-.04.03-.2-.04-.22 0-.03.02.03.2 0 .22-.05.02-.18 0-.23 0-.03 0-.2-.02-.22 0-.03.03.03.2 0 .22-.04.03-.2 0-.23 0-.06 0-.18-.02-.23 0-.03 0 .02.2 0 .22-.04.04-.2-.02-.23 0-.04.03.03.2 0 .23-.04.04-.18-.03-.23 0-.04.03-.18-.04-.22 0-.03.03.03.2 0 .22-.04.02-.18 0-.23 0-.06 0-.18-.03-.23 0-.03 0 .02.2 0 .22-.04.03-.18-.02-.23 0-.04.02-.2-.04-.22 0-.04.03.03.2 0 .22-.06.04-.18-.03-.23 0-.05.02.02.2 0 .23-.05.04-.2-.03-.24 0-.04.02-.18-.04-.22 0-.03.02.03.2 0 .22-.05.02-.2-.05-.23 0 0 0 .04.2 0 .2-.04.04-.16 0-.2 0-.06 0-.2 0-.24 0-.03.04.03.2 0 .24-.04.03-.18-.03-.22 0-.05.03-.2-.04-.23 0-.02.03.05.2 0 .23-.03.03-.18-.05-.2 0-.05.03.02.2-.02.22-.05.02-.17-.04-.22 0-.05 0-.2-.05-.22 0-.03 0 .02.2 0 .2-.05.03-.18 0-.23 0-.03 0-.18 0-.22 0-.03.03.03.2 0 .23-.03.04-.18-.03-.22 0-.04.04.04.2 0 .22-.04.05-.18-.02-.23 0-.04.04-.18-.03-.22 0-.03.05.05.2 0 .24-.03.02-.18-.05-.22 0-.03.02.04.18 0 .2-.03.03-.18 0-.22 0-.06 0-.18 0-.23 0-.03.02.02.2 0 .23-.03.04-.18-.03-.22 0-.03.03.04.2 0 .23-.03.03-.17-.03-.22 0-.05.02-.2-.04-.23 0-.03.02.04.2 0 .22-.04.03-.2-.03-.22 0-.02.03.03.2 0 .22-.05.02-.17 0-.23 0-.04 0-.2-.02-.22 0-.04.03.03.2 0 .23-.04.03-.2-.04-.23 0-.04.03.04.18 0 .22-.03.04-.18-.03-.23 0-.04.02-.18-.04-.22 0-.03.04.04.2 0 .23-.05.03-.17-.04-.22 0-.04.02.03.2 0 .22-.04.03-.18-.03-.23 0-.04.03-.2-.04-.23 0-.03.03.04.2 0 .23-.04.02-.2-.04-.22 0-.02.02.03.2 0 .22-.05.02-.17 0-.23 0-.04 0-.2-.02-.22 0-.04.02.03.2 0 .22-.04.04-.2-.04-.23 0s.04.2 0 .22c-.03.03-.18-.03-.22 0-.05.02-.2-.04-.23 0-.03.03.04.2 0 .22-.05.03-.17-.04-.22 0-.04.03.03.2 0 .22-.04.04-.2-.03-.23 0-.04.04.04.2 0 .23s-.18-.04-.22 0c-.05.03-.2-.04-.23 0-.04.03.04.18 0 .22-.04.03-.2-.05-.22 0-.04.03.03.2 0 .22-.04.02-.2 0-.23 0-.06 0-.18-.03-.23 0-.03 0 .02.2 0 .22-.05.04-.2-.04-.23 0-.04.04.03.18 0 .23-.04.03-.2-.04-.23 0-.02.03.04.2 0 .22-.03 0-.18 0-.22 0-.06 0-.18-.03-.23 0-.04 0 .02.2 0 .2-.05.05-.2-.02-.24 0-.03.04.04.2 0 .24-.03.03-.18-.04-.22 0-.04.03.04.18 0 .22-.04.04-.18-.03-.23 0-.03.04-.17-.04-.2 0-.05.04.02.2 0 .23-.05.02-.2-.05-.24 0-.03.02.04.18 0 .2-.04.04-.18-.03-.22 0-.02.03.03.22 0 .24-.05 0-.17 0-.23 0-.03 0-.18-.03-.22 0-.03.02.04.18 0 .22-.03.04-.18-.04-.22 0-.03.04.04.2 0 .22-.04.04-.18-.03-.23 0-.03.03.04.2 0 .23-.03.05-.17-.02-.22 0-.03.03-.18-.03-.2 0-.05.04.02.2 0 .23-.06.04-.2-.04-.24 0-.04.04.04.2 0 .22-.04.04-.2-.03-.23 0-.03.04.04.2 0 .23-.04.04-.18-.04-.22 0-.02.03.04.2 0 .22-.04.03-.17-.03-.22 0-.04.04-.18-.03-.22 0-.04.04.03.2 0 .23-.04.04-.2-.04-.23 0-.04.04.04.18 0 .22-.04.04-.2-.04-.22 0-.03.04.04.2 0 .23-.03.03-.18-.05-.22 0-.04.03.04.2 0 .22-.03.02-.2 0-.23 0-.05 0-.17-.02-.22 0-.03 0 .02.2 0 .22-.04.04-.2-.03-.23 0-.03.04.04.2 0 .23-.03.03-.2-.04-.22 0-.03.04.03.2 0 .22-.04.04-.2-.04-.23 0-.04.04.04.2 0 .22-.04.03-.2-.04-.22 0-.04.03.03.2 0 .22-.04.03-.2-.04-.23 0-.02.02.03.2 0 .22-.05.02-.17 0-.22 0-.04 0-.2-.02-.23 0-.04.04.04.2 0 .23-.04.04-.2-.04-.22 0-.04.04.03.18 0 .22-.04.03-.2-.05-.23 0-.04.03.04.17 0 .22-.03.03-.2-.04-.23 0-.02.03.04.2 0 .22-.04.04-.18-.04-.22 0-.04.04.03.2 0 .23-.04.03-.2-.04-.23 0-.03.03.04.2 0 .22-.03 0-.18 0-.22 0-.06 0-.18-.03-.23 0-.03 0 .03.2 0 .2-.04.05-.18-.02-.22 0-.04.04.03.2 0 .24-.04.04-.2-.04-.23 0-.04.04.04.18 0 .22-.04.04-.2-.04-.22 0-.04.04.03.18 0 .23-.04.02-.2-.06-.23 0-.04.02.04.17 0 .2-.04.05-.2-.02-.23 0-.03.04.04.2 0 .24-.03.03-.18-.04-.22 0-.04.03.04.18 0 .22-.04.04-.2-.04-.23 0-.04.04.03.18 0 .22-.05.04-.2-.04-.23 0-.04.04.03.2 0 .23-.04.04-.2-.03-.23 0-.04.04.04.2 0 .23-.04.04-.18-.03-.22 0-.05.03-.2-.04-.23 0-.04.03.03.2 0 .22-.05.04-.2-.03-.23 0-.04.04.03.2 0 .23-.05.03-.2-.04-.23 0-.04.03.03.18 0 .22-.04.04-.2-.04-.23 0-.02.04.05.2 0 .23-.02.03-.17-.04-.2 0-.05.03.02.18 0 .22-.05.04-.2-.04-.24 0-.04.04.04.2 0 .23s-.2-.04-.22 0c-.04.03.03.18 0 .22-.04.03-.2-.04-.23 0-.03.03.05.2 0 .22-.03.04-.18-.04-.2 0-.05.04.02.2 0 .23-.05.03-.22-.04-.24 0-.03.04.04.18 0 .22-.04.04-.2-.04-.22 0-.05.04.03.2 0 .22-.05.03-.2-.04-.23 0-.03.03.04.2 0 .22-.03.04-.18-.04-.22 0-.04.04.04.2 0 .22-.04.04-.2-.03-.22 0-.04.04.03.2 0 .23-.04.04-.2-.04-.23 0-.04.04.04.2 0 .23s-.2-.04-.22 0c-.03.03.05.18 0 .22-.04.04-.18-.04-.22 0-.03.03.04.2 0 .22-.04.03-.2-.04-.23 0s.04.2 0 .23c-.03.03-.18-.04-.22 0-.04.03.04.18 0 .22-.03.02-.2-.05-.22 0-.03.03.04.18 0 .2-.02.04-.2 0-.22 0-.02.06 0 .2 0 .24 0 .04.02.2 0 .22-.03.04-.2-.03-.23 0-.04.04.04.2 0 .23-.04.02-.2-.05-.22 0-.04.02.03.17 0 .2-.04.05-.2-.03-.23 0-.04.05.04.2 0 .23-.04.04-.2-.03-.22 0-.04.04.03.2 0 .23-.04.04-.2-.03-.23 0-.04.04.04.18 0 .22-.04.04-.2-.03-.23 0-.03.04.04.2 0 .23-.03.05-.2-.03-.22 0-.04.05.03.2 0 .23-.04.04-.2-.03-.23 0-.03.04.04.18 0 .23-.03.03-.2-.04-.22 0-.04.03.03.18 0 .22-.04.04-.2-.04-.23 0-.04.04.03.18 0 .23-.03.05.04.2 0 .23-.03.03-.2-.04-.22 0-.04.05.03.18 0 .22-.04.04-.2-.03-.23 0-.04.04.04.2 0 .23s-.2-.04-.23 0c-.03.03.04.18 0 .22-.03.04-.18-.04-.22 0-.04.04.04.2 0 .23s-.2-.04-.23 0c-.05.03.03.18 0 .22-.04.04-.2-.04-.23 0-.04.04.03.18 0 .23-.03.04.03.18 0 .22-.04.03-.2-.04-.23 0s.04.2 0 .22c-.03.03-.2-.03-.22 0-.03.05.03.18 0 .23-.03.04-.2-.04-.23 0-.05.04.03.18 0 .22-.05.04-.2-.04-.24 0-.03.04.04.18 0 .23-.03.03-.18-.04-.22 0-.04.03.03.18 0 .22-.03.05.04.2 0 .22-.04.04-.2-.03-.22 0-.04.05.03.2 0 .23-.04.04-.2-.04-.23 0-.05.04.02.2 0 .22-.05.03-.2-.04-.24 0-.03.03.04.18 0 .22-.03.03-.2-.04-.22 0-.04.05.03.17 0 .22-.04.04.03.2 0 .23-.04.03-.2-.04-.23 0-.03.03.05.18 0 .22-.02.02-.2-.05-.2 0-.05.03.03.17 0 .22-.04.02-.23-.04-.24 0-.02.04 0 .16 0 .22 0 .03.02.2 0 .22-.03.04-.2-.03-.22 0-.04.04.03.2 0 .23-.04.02-.2-.05-.23 0-.03.03.04.17 0 .2-.02.05-.18-.02-.22 0-.04.05.03.2 0 .23-.03.05.04.2 0 .23-.03.03-.2-.04-.22 0-.04.04.04.18 0 .22-.04.04-.2-.03-.23 0-.03.04.04.2 0 .23-.03.04-.2-.03-.22 0-.02.04 0 .2 0 .23 0 .06.03.18 0 .23 0 .02-.2-.03-.22 0-.04.03.03.18 0 .22-.03.04-.2-.03-.22 0-.04.04.02.18 0 .22-.04.05.03.2 0 .23-.04.03-.2-.04-.23 0s.04.2 0 .22c-.03.04-.2-.03-.23 0-.03.05.04.18 0 .23-.02.04-.2-.03-.22 0-.04.04.03.18 0 .22-.03.05.03.2 0 .23s-.2-.04-.23 0 .04.18 0 .22c-.02.02-.2-.03-.22 0-.03.05 0 .17 0 .23 0 .04.02.2 0 .22-.03.04-.2-.03-.23 0-.04.04.04.2 0 .23s-.2-.04-.23 0c-.03.03.03.17 0 .22-.02.05.04.2 0 .22-.03.03-.2-.03-.22 0-.04.05.03.18 0 .23-.03.03-.2-.04-.23 0-.03.03.03.18 0 .22-.03.05.04.2 0 .23-.03.03-.2-.04-.22 0-.03.04.03.18 0 .22-.03.02-.22-.03-.23 0-.02.05 0 .17 0 .22 0 .04.02.18 0 .22-.02.03-.2-.03-.22 0-.04.04.03.2 0 .22-.04.04-.2-.03-.23 0-.04.04.03.18 0 .22-.03.05.03.2 0 .23-.03.02-.2-.05-.23 0-.04.04.03.16 0 .2-.03.06.03.2 0 .24-.04.03-.2-.04-.23 0-.04.03.03.18 0 .22-.03.03-.2-.03-.23 0-.02.03 0 .18 0 .23 0 .04.03.16 0 .22 0 .02-.2-.03-.22 0-.04.03.02.17 0 .22-.03.04.03.18 0 .22-.04.04-.2-.04-.23 0-.05.04.03.2 0 .23-.04.02-.2-.05-.24 0-.02.02 0 .17 0 .2 0 .07.03.2 0 .23 0 .03-.2-.02-.22 0-.04.05.02.18 0 .23-.03.05.04.2 0 .22-.03.02-.2-.02-.23 0 0 .05 0 .17 0 .23 0 .05.04.2 0 .24 0 .03-.18-.04-.2 0-.05.03.03.18 0 .22-.05.03-.2-.04-.24 0-.03.03.03.18 0 .22-.02.04.04.2 0 .22-.02.03-.2-.02-.23 0-.02.05 0 .17 0 .23 0 .05.03.17 0 .22 0 .03-.2-.02-.22 0 0 .02 0 .2 0 .23 0 .05.03.18 0 .22 0 .03-.2-.03-.22 0-.03.04.04.18 0 .23-.03.04.04.18 0 .22-.02.03-.2-.03-.22 0-.02.04 0 .17 0 .23 0 .05.02.17 0 .22-.02.02-.2-.03-.23 0s.03.18 0 .23c-.02.04.04.18 0 .22-.02.02-.2-.03-.22 0 0 .05 0 .17 0 .22 0 .05.03.18 0 .23 0 .03-.2-.03-.22 0-.02.02 0 .2 0 .22 0 .05.03.18 0 .22-.02.04-.2-.02-.23 0-.03.04.03.2 0 .22-.03.05.04.2 0 .23-.03.02-.2-.04-.22 0-.02.04 0 .17 0 .2 0 .07.02.2 0 .24 0 .03-.2-.02-.23 0-.03.04.03.18 0 .23-.02.04.04.2 0 .22-.02.02-.2-.03-.22 0-.02.04 0 .16 0 .22 0 .05.02.17 0 .22-.02.03-.2-.02-.23 0-.02.02 0 .2 0 .22 0 .06.02.18 0 .23 0 .02-.2-.03-.23 0-.02.02.02.17 0 .2 0 .08 0 .17 0 .24 0 .05.03.17 0 .22 0 .03-.2-.02-.22 0-.04.04.03.18 0 .23-.03.03.04.18 0 .2-.02.03-.2-.02-.23 0-.02.06 0 .18 0 .23 0 .06.02.18 0 .23 0 .03-.2-.03-.22 0-.03.03 0 .18 0 .22-.02.05 0 .17 0 .23s.02.18 0 .23c0 .03-.2-.02-.23 0-.03.03.02.18 0 .23-.02.04.03.2 0 .22-.02.02-.2-.03-.22 0-.03.05 0 .17 0 .22 0 .06 0 .18 0 .23-.02.04.03.2 0 .22-.03.03-.22-.02-.23 0-.02.05 0 .17 0 .23s.02.17 0 .22c0 .03-.2-.02-.23 0-.02.03 0 .18 0 .23 0 .06 0 .15 0 .22 0 .06.02.17 0 .22 0 .03-.2 0-.22 0-.02.02 0 .2 0 .23 0 .06.02.17 0 .22 0 .03-.2-.02-.23 0-.04.03 0 .2 0 .23-.02.06 0 .16 0 .22 0 .07 0 .16 0 .23-.02.02-.22-.02-.23 0-.03.03 0 .18 0 .22-.02.06 0 .16 0 .23 0 .05 0 .16 0 .22 0 .02-.2-.02-.23 0-.03.03 0 .2 0 .22-.02.06 0 .15 0 .22 0 .06.02.17 0 .22 0 .03-.2-.02-.23 0 0 .03 0 .2 0 .22 0 .07.03.17 0 .23 0 .03.04.18 0 .2 0 .04-.2 0-.2 0-.03.06 0 .2 0 .24 0 .06 0 .17 0 .23-.03.04.02.2 0 .22-.04.02-.23-.04-.24 0-.02.04 0 .16 0 .22s.02.16 0 .22 0 .16 0 .22.02.18 0 .23c0 .02-.2-.03-.22 0-.04.02 0 .17 0 .2-.02.07 0 .18 0 .24 0 .03 0 .2 0 .22-.02.02-.23-.02-.23 0 0 .06 0 .16 0 .23v.44c0 .07.02.16 0 .22 0 .02-.2 0-.22 0-.03.03 0 .2 0 .23-.02.05 0 .15 0 .2 0 .07.02.17 0 .24 0 .02-.2-.02-.22 0-.03.02 0 .18 0 .22-.02.06 0 .16 0 .22 0 .07 0 .17 0 .23 0 .05.02.2 0 .23-.03.03-.22-.02-.23 0-.02.05 0 .17 0 .23 0 .07 0 .16 0 .22-.02.07 0 .16 0 .23s0 .17 0 .23c0 .04.03.2 0 .23-.02 0-.22-.03-.23 0 0 .06 0 .15 0 .22v.22c0 .08 0 .15 0 .23 0 .06.02.16 0 .22 0 .02-.2-.02-.22 0-.03.03 0 .18 0 .22-.02.07 0 .16 0 .23s0 .15 0 .22c-.02.07 0 .16 0 .23 0 .02.02.2 0 .22-.02.02-.23 0-.23 0-.02.07 0 .16 0 .23v.44c0 .08 0 .16 0 .23 0 .04.03.2 0 .22-.02.02-.2-.03-.23 0-.02.05 0 .17 0 .22 0 .07.02.16 0 .23 0 .06 0 .15 0 .22s0 .15 0 .22v.22c0 .07.02.16 0 .23 0 0-.2-.02-.23 0-.03 0 0 .18 0 .22 0 .07 0 .15 0 .22s0 .14 0 .22v.45c0 .06 0 .15 0 .22 0 .03.02.2 0 .22-.03.02-.22-.04-.23 0-.02.04 0 .16 0 .22 0 .07 0 .15 0 .22s0 .15 0 .23c0 .06 0 .14 0 .2v.23c0 .08 0 .16 0 .23s0 .15 0 .22c0 .03 0 .2 0 .23-.05.04-.18-.02-.23 0v.68c0 .15 0 .3 0 .45V90.76c0 .06 0 .15 0 .22 0 0-.2 0-.23 0 0 .15 0 .3 0 .45 0 .07 0 .15 0 .22v2.47c0 .15 0 .3 0 .45v.22c0 .14 0 .3 0 .44V97.25c0 .15 0 .3 0 .45v.23c0 .3 0 .6 0 .9v.91c0 .15 0 .3 0 .45 0 .08 0 .15 0 .22v.46c.05.02.2-.04.23 0 .02.02 0 .18 0 .22 0 .06 0 .15 0 .22s0 .15 0 .23c0 .07 0 .15 0 .22 0 .08 0 .15 0 .23v.22c0 .07 0 .16 0 .23s0 .15 0 .22v.45c0 .07-.02.16 0 .23 0 .03-.03.2 0 .22.03.03.2-.03.22 0 .02.04 0 .18 0 .23 0 .07 0 .15 0 .22s0 .15 0 .22v.9c0 .07 0 .16 0 .23 0 0 .2 0 .22 0 .03.02 0 .18 0 .22.02.07 0 .16 0 .23s0 .15 0 .22c0 .08 0 .15 0 .22v.23c0 .07 0 .15 0 .22 0 .03-.02.2 0 .22.02.02.2-.03.22 0 .02.05 0 .17 0 .22 0 .08-.02.16 0 .23 0 .07 0 .15 0 .23v.44c0 .08-.02.16 0 .23 0 0 .2-.02.22 0 .03.02 0 .18 0 .22 0 .05 0 .15 0 .2 0 .1 0 .17 0 .24 0 .07 0 .15 0 .23v.22c0 .06-.02.15 0 .2 0 .03.2 0 .22 0 .03.04 0 .2 0 .24.02.06 0 .15 0 .22s0 .16 0 .23c0 .06 0 .14 0 .2 0 .04-.02.22 0 .23.02.02.22 0 .23 0 0 .07 0 .16 0 .23 0 .08 0 .15 0 .22v.23c0 .07-.02.17 0 .24 0 .02.2-.02.22 0 0 .02 0 .2 0 .22 0 .07-.02.16 0 .22 0 .07 0 .16 0 .23s-.02.17 0 .24c0 .04-.04.2 0 .22 0 .02.2-.02.2 0 .03.07 0 .15 0 .23V113.42c0 .07 0 .17 0 .22.02.03.22 0 .24 0 .03.03 0 .2 0 .23 0 .06 0 .16 0 .23s-.02.17 0 .23c0 .04-.03.2 0 .22.03.03.2-.03.22 0 .03.05 0 .17 0 .23.02.06 0 .16 0 .22s-.02.18 0 .22c0 .03.2-.02.23 0 0 .03-.02.2 0 .23 0 .07 0 .16 0 .23v.22c0 .07-.03.17 0 .23 0 .02.2-.02.2 0 .04.03 0 .18 0 .22.03.07 0 .16 0 .23 0 .06 0 .16 0 .22.02.03.22-.02.24 0 .02.03 0 .2 0 .22 0 .07-.02.16 0 .23 0 .04-.03.2 0 .22.02.03.2-.02.22 0 .02.05 0 .18 0 .23 0 .06-.02.16 0 .22.02.07 0 .16 0 .23 0 .03-.02.2 0 .22.02.02.22-.02.23 0 0 .06-.02.17-.02.23s0 .16 0 .22c0 .04-.02.2 0 .23.02 0 .23-.02.23 0 .03.06 0 .16 0 .22v.23c0 .06 0 .17 0 .22.02.03.2-.02.24 0 .03.04-.04.18 0 .22.02.05-.04.2 0 .23 0 .02.2-.02.22 0 .02.06 0 .16 0 .23s0 .14 0 .22c0 .06-.02.17 0 .23 0 .02.2-.03.23 0 0 .02-.03.18 0 .22 0 .06 0 .16 0 .22-.02.06-.03.16-.02.22 0 .02.2-.02.23 0s0 .2 0 .22c0 .06 0 .17 0 .23.03.04-.02.2 0 .22.03.02.22-.03.24 0 .02.05 0 .16 0 .22s-.03.17 0 .22c0 .03.2-.02.22 0 .02.03 0 .2 0 .23 0 .06 0 .16 0 .22 0 .04-.03.17 0 .22 0 .03.2-.02.22 0 .04.03-.03.17 0 .22.03.04-.03.2 0 .23.03.02.2-.04.23 0 .03.03 0 .17 0 .22 0 .02 0 .2 0 .2.03.03.22 0 .23 0 .02.06 0 .2 0 .24 0 .07 0 .16 0 .22 0 .04-.03.2 0 .23.03 0 .2-.04.23 0 .02.03 0 .16 0 .2 0 .04-.02.22 0 .24.02.02.2-.03.22 0 .02.04 0 .17 0 .22 0 .06-.02.18 0 .23 0 0 .2-.04.22 0 .04.02-.02.16 0 .2.03.06-.03.2 0 .23.04.03.2-.03.23 0 .03.06-.03.18 0 .23.02.05 0 .17 0 .22 0 .06-.02.18 0 .23 0 .04.2 0 .22 0 .04.05 0 .2 0 .24.02.03-.03.18 0 .22.03.02.22-.03.23 0 .02.04 0 .17 0 .22 0 .05-.02.18 0 .23 0 .03.2-.02.23 0 .04.04-.03.2 0 .23.03.04-.03.2 0 .23s.2-.04.23 0c.02.04 0 .17 0 .22 0 .03-.02.2 0 .22.03.03.2-.02.22 0 .03.05 0 .18 0 .23 0 .06-.02.18 0 .23.02.02.2-.03.23 0s-.02.18 0 .22c.02.04-.04.2 0 .23.03.03.2-.03.22 0 .04.06-.03.17 0 .23.03.05-.03.2 0 .22.03.03.22-.03.23 0 .02.05 0 .18 0 .23 0 .04-.02.2 0 .23.02.04.2-.03.22 0 .03.04-.03.2 0 .23.03.02.2-.03.23 0 .02.04 0 .18 0 .22 0 .06-.02.18 0 .22 0 .04.2-.02.22 0 .03.04-.02.2 0 .23.02.05-.03.2 0 .23.02.02.22-.03.23 0 .02.05 0 .17 0 .22 0 .05-.03.18 0 .22.02.04.2-.02.22 0 .04.04-.03.2 0 .23.03.05-.04.2 0 .23s.2-.04.23 0-.04.18 0 .22c.03.03.2-.04.22 0 .04.05-.03.17 0 .22.03.05-.03.2 0 .23.02.02.2-.03.23 0 .02.05 0 .17 0 .23 0 .03-.02.2 0 .22.02.04.2-.03.22 0 .03.03-.03.2 0 .22.03.03.2-.03.23 0 .02.04 0 .18 0 .23 0 .05-.03.17 0 .22 0 .03.2-.02.22 0 .04.04-.02.18 0 .23.03.04-.03.2 0 .22.03.04.2-.03.23 0 .03.05-.04.17 0 .22.02.03.2-.03.22 0 .04.03-.03.18 0 .22.03.04-.04.2 0 .23.03.02.2-.04.23 0 .02.03 0 .17 0 .22 0 .03-.02.2 0 .22.03.02.2-.04.22 0 .03.04-.04.18 0 .22.04.04.2-.04.23 0s-.04.2 0 .23c.03.03.2-.04.22 0 .02.03 0 .18 0 .22 0 .03-.02.2 0 .22.03.02.2-.04.23 0 .02.03 0 .18 0 .22 0 .05-.03.17 0 .22 0 .03.2-.02.22 0 .04.04-.02.18 0 .23.02.03.2-.03.23 0 .02.02 0 .18 0 .22 0 .04-.03.18 0 .22.02.03.2-.03.22 0 .04.03-.04.2 0 .22.04.04.2-.03.23 0 .03.04-.03.18 0 .23.02.05-.04.18 0 .22.03.02.2-.05.22 0 .04.05-.03.16 0 .22.03.03.2-.04.23 0 .03.03-.04.18 0 .22.03.04.18-.04.22 0 .04.04-.03.18 0 .23.03.04-.04.18 0 .22.04.03.2-.05.22 0 .04.03-.03.18 0 .22.04.03.2-.04.23 0 .02.03 0 .18 0 .22 0 .05-.02.18 0 .22 0 .03.2-.02.23 0 .03.04-.04.2 0 .23.03.03.18-.05.22 0 .03.02-.04.2 0 .2.04.04.2-.02.23 0 .02.04 0 .2 0 .24 0 .05-.03.17 0 .22 0 .03.2-.02.22 0 .04.04-.04.2 0 .23.03.03.2-.05.23 0 .03.02-.04.2 0 .2.03.04.2-.02.22 0 .02.04 0 .2 0 .24 0 .05-.02.17 0 .22 0 .03.2-.02.23 0 .04.04-.04.2 0 .23.03.03.18-.05.22 0 .03.02-.04.2 0 .2.04.04.2-.02.22 0 .04.06-.03.2 0 .24.03.02.22-.03.23 0 .02.04 0 .17 0 .22 0 .04-.02.2 0 .23.02.02.2-.04.23 0 .03.02-.04.17 0 .2.03.05.18-.03.22 0 .04.05-.03.2 0 .23.03.04.2-.03.22 0 .04.04-.03.2 0 .23.03.05-.03.2 0 .22.04.04.2-.03.23 0 .03.05-.04.2 0 .23.03.04.2-.03.22 0 .04.06-.03.2 0 .23.04.04.2-.03.23 0 .04.04-.04.2 0 .23.04.04.2-.04.22 0 .04.04-.02.18 0 .22.03.04.2-.03.23 0 .02.02 0 .2 0 .23 0 .05-.02.2 0 .23.03.04.2-.03.23 0 .03.04-.04.2 0 .23.03.04.18-.04.22 0 .04.04-.04.18 0 .22.04.04.2-.04.23 0 .03.03-.04.2 0 .23s.2-.03.22 0c.04.05-.04.2 0 .23.04.04.2-.04.23 0s-.04.2 0 .22c.03.04.2-.03.22 0 .02.04 0 .2 0 .23 0 .06-.02.18 0 .23 0 .04.2-.02.22 0 .04.05-.03.2 0 .23.04.04.2-.03.23 0 .04.04-.04.2 0 .23s.2-.04.23 0c.03.03-.04.2 0 .23.03.02.18-.06.22 0 .03 0-.03.18 0 .2.04.03.2-.03.22 0 .04.04-.03.2 0 .23.04.03.2-.03.23 0 .04.03-.04.2 0 .22.04.04.2-.03.22 0 .04.05-.03.2 0 .23.04.03.2-.04.23 0 .03.05-.04.2 0 .23.04.04.2-.03.23 0 .03.04-.04.2 0 .22.03.05.18-.03.22 0 .04.05-.04.2 0 .24.04.03.2-.04.23 0 .03.02-.04.2 0 .22.04.03.2-.04.22 0 .02.02 0 .2 0 .22 0 .06-.02.18 0 .23 0 .03.2-.03.23 0s-.04.18 0 .22c.03.04.18-.04.22 0 .03.03-.04.2 0 .23.04.02.2-.04.23 0s-.04.18 0 .22c.03.04.18-.04.22 0 .04.04-.04.2 0 .23s.2-.04.23 0-.04.18 0 .22c.03.03.2-.04.22 0 .03.05-.04.2 0 .23s.2-.04.23 0c.03.03-.04.18 0 .22.03.04.18-.04.22 0 .04.04-.04.2 0 .23s.2-.04.23 0c.03.03-.04.2 0 .22.04.03.18-.04.22 0 .04.04-.04.2 0 .22.04.04.2-.03.23 0 .03.04-.04.2 0 .23.03.04.2-.04.22 0 .04.04-.04.2 0 .22.03.04.2-.03.22 0 .03.05-.03.2 0 .23.05.04.2-.04.23 0 .04.04-.04.2 0 .22.04.04.2-.03.23 0s-.04.2 0 .23c.03.02.18 0 .22 0 .06 0 .18-.02.23 0 .02 0-.03.2 0 .22.03.04.18-.03.22 0 .04.04-.03.2 0 .23.04.04.2-.04.23 0s-.04.2 0 .22c.03.04.2-.03.22 0 .04.04-.04.2 0 .23.03.03.2-.04.23 0 .02.04-.04.2 0 .22.03.04.18-.04.22 0 .04.04-.04.2 0 .23.04.04.2-.04.23 0s-.04.2 0 .22c.04.04.18-.04.22 0 .03.03-.03.2 0 .23.05.03.2-.04.23 0s-.04.18 0 .22c.03.04.18-.04.22 0 .04.04-.04.2 0 .23s.2-.04.23 0-.04.2 0 .22c.03.03.2-.03.22 0 .03.04-.04.2 0 .23.03.02.2 0 .23 0 .05 0 .17-.02.22 0 .03 0-.02.2 0 .22.04.04.2-.04.23 0s-.04.2 0 .22c.03.04.2-.03.22 0 .03.05-.03.2 0 .23.04.04.2-.03.23 0 .04.04-.04.2 0 .23s.2-.04.22 0c.04.03-.03.2 0 .22.04.04.2-.03.23 0s-.04.2 0 .23.18-.04.22 0c.04.03.2-.04.23 0s-.04.18 0 .22c.03.04.2-.04.22 0 .04.04-.03.2 0 .23.04.03.2-.04.23 0 .03.03-.04.2 0 .22.05.03.18-.03.22 0 .04.04-.03.2 0 .23.04.04.2-.04.23 0s-.04.18 0 .22c.03.04.18-.03.23 0 .03.03-.04.2 0 .22.02.02.2 0 .22 0 .04 0 .2-.03.22 0 .04.02-.03.18 0 .22.04.04.2-.04.23 0 .04.04-.04.2 0 .23s.2-.04.22 0c.04.04-.03.18 0 .22.04.04.2-.04.23 0 .04.04-.04.2 0 .22.04.03.18-.04.22 0 .05.03.2-.04.23 0 .04.03-.04.18 0 .22.04.04.2-.04.23 0s-.04.2 0 .22c.03.04.18-.03.22 0 .03.04-.04.2 0 .23.05.03.18-.03.22 0 .04.03-.03.2 0 .22.04.03.18-.03.23 0 .05.02.2-.04.22 0 .04.03-.03.2 0 .22.05.03.2-.04.23 0 .03.03-.04.2 0 .22.05.04.18-.03.22 0 .04.04-.03.2 0 .23.04.03.2-.04.23 0 .03.03-.04.2 0 .22.03.03.18-.03.22 0 .05.02.2-.04.23 0 .03.02-.04.2 0 .22.05.03.18-.04.23 0 .04.03-.03.2 0 .22.04.04.2-.03.23 0 .04.04-.04.2 0 .23s.18-.03.23 0c.04.03.18-.04.22 0 .03.03-.04.2 0 .22.05.03.18-.04.23 0 .04.02-.03.2 0 .22.04.04.2-.04.23 0 .04.04-.04.18 0 .23.04.03.18-.04.23 0 .04.02.2-.05.22 0 .03.02-.03.2 0 .2.05.05.18-.02.23 0 .04.04-.03.2 0 .24.04.03.2-.04.23 0 .04.03-.04.18 0 .22.04.03.18-.04.23 0 .04.02.18-.04.22 0 .03.03-.03.2 0 .22.05.03.17-.03.23 0 .05.03.2-.03.23 0s-.03.2 0 .23c.05.02.17 0 .23 0 .05 0 .17-.02.23 0 0 0-.04.2-.02.22.02 0 .2 0 .23 0 .08 0 .16 0 .23 0h.68v-.9c-.04-.03-.18.03-.22 0"/><path d="M290.78 100.34c0-.52 0-.6 0-.67 0-.53 0-.6 0-.68-.24-.52-.23-.62-.23-.68 0-.2 0-.43 0-.68 0-.52 0-.6 0-.68-.23-.52-.22-.6-.22-.67 0-.54 0-.62 0-.7-.22-.5-.2-.6-.22-.66 0-.53.02-.6 0-.68-.22-.52-.2-.6-.22-.67 0-.06 0-.3 0-.7-.24-.5-.22-.6-.22-.66 0-.5.02-.66 0-.68-.16-.04-.24-.27-.23-.67-.24-.52-.22-.63-.22-.7 0-.5.03-.62 0-.67-.15-.2-.22-.42-.2-.67-.25-.52-.23-.62-.23-.68-.25-.5-.23-.62-.23-.67 0-.5.02-.62 0-.67-.23-.5-.2-.63-.23-.68-.2-.5-.18-.63-.2-.67-.23-.52-.2-.6-.23-.68-.23-.52-.2-.6-.23-.68-.16-.18-.23-.4-.22-.67-.24-.52-.22-.6-.22-.68-.24-.5-.23-.6-.23-.68-.24-.52-.22-.6-.22-.68-.23-.5-.2-.62-.23-.68-.22-.5-.2-.62-.22-.67-.22-.5-.2-.63-.22-.68-.25-.48-.44-.43-.45-.45 0-.52 0-.62 0-.68-.25-.48-.44-.43-.45-.45 0-.5.03-.65 0-.68-.24-.48-.43-.43-.45-.45-.25-.52-.23-.64-.23-.7-.24-.5-.22-.6-.22-.66-.25-.5-.2-.65-.22-.68-.24-.48-.43-.43-.45-.46-.25-.48-.2-.62-.22-.67-.22-.5-.2-.63-.22-.67-.25-.48-.43-.42-.45-.46-.25-.48-.2-.62-.2-.67-.24-.5-.22-.63-.24-.68-.25-.48-.43-.42-.45-.45-.25-.5-.2-.63-.2-.68-.27-.47-.44-.4-.46-.45-.25-.5-.23-.62-.23-.67-.23-.5-.18-.64-.2-.68-.26-.48-.43-.42-.46-.45-.25-.5-.2-.64-.22-.67-.25-.5-.42-.42-.45-.45-.26-.5-.2-.64-.23-.68-.25-.5-.42-.42-.45-.46-.27-.48-.2-.6-.23-.66-.5-.26-.42-.4-.45-.45-.25-.5-.43-.43-.45-.46-.26-.5-.2-.64-.22-.67-.25-.5-.42-.43-.45-.45-.26-.5-.2-.65-.23-.68-.47-.28-.45-.4-.45-.46-.26-.48-.4-.4-.44-.44-.27-.5-.2-.64-.23-.68-.5-.26-.42-.4-.45-.45-.26-.47-.42-.4-.45-.44-.22-.5-.2-.65-.22-.68-.5-.26-.42-.4-.46-.45-.25-.48-.4-.4-.44-.45-.26-.48-.43-.42-.45-.45-.27-.5-.2-.63-.22-.68-.5-.26-.42-.4-.46-.45-.25-.5-.4-.4-.45-.45-.26-.48-.4-.4-.44-.45-.25-.5-.4-.4-.44-.45-.26-.5-.2-.64-.23-.67-.48-.27-.4-.42-.45-.46-.48-.27-.4-.4-.45-.45-.25-.48-.4-.42-.45-.45-.26-.5-.4-.42-.45-.45-.26-.5-.4-.4-.45-.45-.26-.5-.4-.42-.44-.45-.27-.5-.42-.4-.45-.46-.24-.5-.22-.6-.24-.66-.5-.26-.4-.4-.45-.45-.47-.27-.4-.42-.44-.46-.48-.25-.42-.42-.45-.45-.47-.27-.4-.42-.43-.46-.5-.26-.42-.4-.45-.46-.5-.25-.42-.4-.45-.44-.5-.27-.42-.42-.46-.46-.47-.26-.4-.4-.43-.45-.5-.26-.42-.4-.45-.45-.5-.26-.42-.4-.45-.45-.5-.25-.64-.2-.68-.22-.27-.48-.42-.4-.46-.45-.26-.5-.4-.4-.44-.45-.27-.48-.42-.4-.46-.45-.26-.48-.4-.4-.44-.45-.26-.47-.42-.45-.45-.45-.5-.25-.42-.42-.46-.45-.5-.26-.43-.4-.45-.45-.5-.26-.4-.4-.45-.45-.5-.23-.63-.2-.67-.23-.27-.5-.42-.4-.46-.45-.26-.5-.4-.42-.44-.45-.5-.26-.42-.4-.45-.46-.5-.25-.42-.4-.45-.43-.5-.23-.63-.2-.68-.23-.25-.5-.42-.42-.45-.45-.48-.25-.42-.44-.45-.46-.5-.26-.4-.4-.45-.45-.5-.27-.63-.2-.67-.24-.26-.48-.4-.4-.45-.45-.48-.22-.43-.42-.45-.44-.5-.24-.62-.22-.68-.22-.5-.24-.6-.23-.67-.23-.52 0-.6 0-.67 0 0 .4 0 .54 0 .7.23.47.2.63.23.66.5.26.42.4.45.45.25.5.4.43.45.46.26.5.2.62.22.68.5.26.4.4.45.45.25.47.42.4.45.44.26.5.4.4.45.45.26.48.4.4.45.44.26.5.4.42.45.45.26.48.4.4.45.44.26.5.4.43.45.45.25.47.43.42.45.45.26.47.2.64.22.67.5.27.4.42.45.45.5.27.4.4.45.45.5.27.42.4.45.45.25.5.42.42.45.45.26.5.4.43.45.46.26.48.4.4.44.44.23.5.2.66.23.68.48.26.4.42.44.46.5.26.42.4.45.45.25.5.4.42.44.46.25.48.42.4.45.45.25.5.18.63.2.68.5.27.43.4.46.45.25.5.42.42.45.46.27.48.2.62.24.66.48.26.4.4.45.45.24.5.4.43.43.46.25.5.42.42.46.45.24.5.17.64.2.7.27.48.42.4.46.44.22.5.2.66.22.68.5.26.4.4.45.45.26.48.43.42.45.45.23.5.2.64.23.67.26.48.42.4.46.44.25.5.18.63.22.68.5.26.42.4.45.45.25.5.4.42.44.45.25.5.23.62.23.68.26.48.42.4.45.45.27.5.2.63.22.68.26.48.42.4.46.45.24.5.22.62.22.68.22.5.2.62.22.67.47.24.45.42.45.45.26.5.2.64.23.68.25.47.43.42.45.45.26.5.2.63.22.68.24.5.42.42.45.45.25.5.22.63.22.68.22.5.2.63.22.7.24.47.4.4.45.44.24.5.22.6.22.67.2.52.2.63.2.7.24.5.22.62.24.66.25.5.42.43.45.45.24.52.2.63.2.7.24.5.22.6.24.67.22.48.2.65.22.67.24.48.43.43.45.45 0 .48 0 .65 0 .67.25.48.44.43.46.45 0 .48-.02.65 0 .67.23.47.42.42.45.45 0 .48 0 .65 0 .67.24.5.2.65.23.68.24.47.44.42.45.45 0 .5-.03.65 0 .67.22.52.2.62.22.68.23.5.2.62.23.68.25.5.2.64.22.68.25.5.22.6.23.67.22.52.2.62.22.68.16.2.24.42.23.68.24.52.22.6.22.68.25.48.2.63.22.67 0 .5-.02.65 0 .68.23.53.22.6.23.68.22.52.2.6.22.68.24.52.23.6.23.68 0 .52-.02.6 0 .67.23.53.22.62.22.7 0 .5 0 .6 0 .66.24.52.22.6.22.68.23.52.2.6.2.68.02.52 0 .6 0 .67.25.52.24.6.24.67v.9c.24.47.22.65.22.68 0 .2 0 .42 0 .67 0 .53 0 .6 0 .68.16.2.24.4.23.67 0 .53 0 .6 0 .68-.02.3-.02.6-.02.9 0 .5-.02.63 0 .67.23.53.23.6.23.68 0 .53 0 .6 0 .68 0 .3 0 .6 0 .9v.67c0 .75 0 1.05 0 1.35 0 .53 0 .83 0 1.13v1.58c0 .53 0 .6 0 .68 0 .53 0 .6 0 .68-.23.53-.23.6-.23.68v.9c0 .52 0 .6 0 .67-.25.5-.22.65-.23.7 0 .5 0 .6 0 .66 0 .53 0 .6 0 .68-.23.53-.22.6-.22.67 0 .54 0 .62 0 .7-.25.46-.23.63-.23.67 0 .52 0 .6 0 .67-.26.48-.23.64-.24.68 0 .5 0 .6 0 .67-.23.5-.2.6-.23.67 0 .52.02.6 0 .68-.26.36-.18.53-.22.67-.23.5-.2.6-.2.67-.26.5-.24.6-.24.67 0 .5.02.65 0 .67-.24.53-.22.6-.23.7-.22.5-.2.6-.22.66-.15.2-.23.4-.22.67-.24.52-.22.6-.22.68-.26.48-.2.63-.23.68-.26.48-.2.63-.23.67-.24.5-.22.62-.22.67-.25.5-.23.62-.23.68-.22.52-.2.62-.22.67-.17.2-.24.42-.23.68-.26.5-.2.64-.22.68-.23.5-.2.62-.23.67-.25.47-.44.43-.45.45 0 .52.02.62 0 .68-.25.47-.44.42-.45.45-.25.5-.23.62-.23.67-.25.5-.22.62-.23.68-.23.5-.2.63-.23.67-.25.5-.42.42-.45.46-.25.5-.23.63-.23.68-.23.5-.2.64-.23.67-.26.48-.44.42-.45.46-.25.5-.23.63-.23.68-.27.5-.2.63-.23.68-.27.5-.42.4-.46.45-.2.5-.2.67-.2.68-.25.48-.44.43-.46.45-.27.5-.2.63-.23.68-.24.5-.42.42-.44.46-.25.5-.2.64-.22.67-.25.5-.42.42-.45.45-.28.5-.2.64-.24.68-.25.48-.42.42-.45.45-.25.5-.18.65-.22.68-.48.26-.43.4-.45.46-.22.5-.2.63-.22.67-.47.26-.44.42-.44.46-.25.48-.42.43-.45.45-.26.5-.18.65-.22.7-.47.22-.45.42-.45.43-.26.5-.4.42-.45.46-.26.47-.2.62-.23.66-.48.26-.4.4-.45.45-.26.5-.4.42-.45.46-.26.5-.2.63-.22.68-.5.26-.4.4-.45.44-.25.5-.42.42-.45.45-.27.5-.42.42-.45.45-.23.5-.2.65-.23.68-.5.26-.42.4-.45.45-.47.27-.45.42-.45.46-.26.5-.4.42-.45.45-.26.5-.4.42-.45.46-.23.48-.2.66-.23.67-.48.27-.4.42-.45.46-.5.25-.4.4-.45.44-.5.26-.42.4-.45.45-.25.47-.42.4-.45.44-.26.5-.4.42-.45.45-.26.47-.4.4-.45.44-.25.48-.42.42-.45.44-.26.5-.42.42-.45.46-.26.48-.42.4-.45.44-.23.5-.2.66-.23.68-.5.26-.4.4-.45.45-.5.28-.43.42-.46.46-.5.26-.4.4-.45.45-.5.26-.43.43-.46.46-.5.26-.4.4-.45.45-.5.27-.42.42-.46.46-.5.26-.42.4-.45.45-.5.27-.43.42-.46.46-.5.26-.63.2-.68.23-.26.47-.4.4-.45.44-.24.48-.4.4-.44.45-.26.47-.4.4-.45.43-.25.5-.4.42-.44.46-.26.48-.4.4-.45.44-.26.48-.4.4-.44.45-.5.24-.42.4-.45.43-.48.27-.4.42-.44.45-.5.26-.42.42-.45.45-.48.27-.4.42-.44.45-.5.27-.64.2-.68.23-.26.5-.4.42-.45.46-.26.5-.4.4-.45.45-.5.26-.42.42-.45.46-.5.26-.4.4-.45.45-.5.26-.42.43-.45.46-.5.26-.64.2-.68.22-.26.5-.4.42-.45.46-.26.48-.4.4-.45.45-.5.24-.4.4-.45.44-.48.24-.42.4-.45.45-.48.24-.64.17-.67.2-.25.5-.42.43-.45.46-.48.23-.43.43-.45.45-.5.27-.42.42-.45.46-.5.22-.65.2-.68.22-.26.5-.4.4-.45.45-.48.25-.43.42-.45.45-.47.25-.42.44-.45.45-.5.26-.64.2-.68.23-.5.26-.4.4-.45.45-.48.23-.65.2-.67.23-.26.5-.4.4-.45.45-.48.26-.42.43-.45.45-.5.23-.64.2-.68.23-.25.47-.4.45-.45.45-.5.26-.62.2-.67.23-.27.5-.4.42-.45.45-.5.25-.43.42-.46.45-.5.26-.64.2-.68.22-.47.25-.42.44-.45.46-.5.27-.63.2-.68.23-.5.24-.43.42-.46.45-.5.26-.62.2-.67.22-.48.25-.42.44-.45.45-.47.24-.65.23-.68.23-.48.26-.4.4-.45.45-.5.26-.64.2-.68.22-.5.22-.64.2-.68.22-.25.48-.4.46-.45.46-.5.25-.63.2-.68.22-.48.25-.42.44-.46.45-.46.24-.64.22-.67.22-.5.27-.42.4-.46.46-.48.25-.63.2-.67.22-.5.22-.64.2-.68.22-.5.25-.43.42-.46.45-.5.25-.63.22-.68.22-.5.22-.62.2-.67.22-.5.25-.43.42-.46.45-.58.28-.77.17-.9.22-.5.23-.64.2-.68.22-.48.24-.43.43-.45.45-.48.26-.62.2-.66.22-.5.22-.66.2-.68.22-.48.23-.42.42-.45.45-.47.25-.62.2-.66.22-.5.25-.63.2-.68.22-.5.24-.64.2-.68.22-.5.25-.62.2-.67.22-.46.25-.4.45-.44.46-.47.23-.65.22-.67.22-.5.25-.64.22-.7.22-.5.23-.62.2-.67.23-.5.2-.62.2-.67.2-.48.26-.43.44-.45.46-.5 0-.6-.02-.67 0-.47.24-.42.43-.44.45-.53 0-.64 0-.7 0-.5.25-.64.2-.67.24-.47.23-.43.42-.45.44-.5.02-.64-.03-.67 0-.5.25-.62.2-.67.23-.47.26-.42.45-.45.46-.5.02-.62-.03-.67 0-.5.22-.62.2-.67.22-.48.23-.65.2-.67.23-.48.24-.43.43-.46.46-.48 0-.65-.03-.67 0-.5.23-.65.2-.67.22-.52.22-.6.2-.68.22-.5.23-.62.2-.68.23-.5.24-.64.2-.67.23-.5.23-.6.2-.68.22-.5.22-.6.2-.67.22-.2.16-.4.24-.68.23-.5.24-.6.22-.67.22-.5.22-.6.2-.68.22-.48.26-.63.22-.67.23-.5.24-.6.22-.68.22-.5 0-.6-.02-.67 0-.5.24-.65.2-.68.23-.5.24-.6.22-.67.22-.52.23-.6.2-.68.23-.52.22-.6.22-.67.22-.5.25-.63.22-.68.22-.48 0-.65 0-.67 0-.05.17-.27.24-.68.23-.5.22-.6.2-.67.22-.48.25-.64.2-.68.2-.52 0-.6 0-.67 0-.52.24-.6.23-.68.24-.5.24-.6.23-.67.23-.52 0-.6-.02-.68 0-.5.24-.6.22-.67.22-.52.22-.6.2-.68.2-.5.02-.65 0-.67 0-.52.25-.6.23-.68.23-.2.17-.4.24-.67.24-.5 0-.64-.04-.68 0-.52.22-.6.22-.67.22-.47.23-.66.2-.68.2-.2 0-.42 0-.67 0-.47.25-.65.23-.68.23-.5 0-.6 0-.68 0-.2.16-.42.24-.67.22-.52 0-.6 0-.67 0-.2.16-.43.24-.68.23-.52 0-.6 0-.68 0-.2.16-.42.23-.67.22-.52 0-.6 0-.68 0-.74.23-1.04.22-1.34.22-.47.25-.65.23-.68.23-.2 0-.42 0-.68 0-.46.24-.65.23-.67.23-.52 0-.6 0-.68 0-.52 0-.6 0-.67 0-.2.15-.42.23-.67.22-.52 0-.6 0-.68 0-.5 0-.65-.03-.68 0-.52.23-.6.22-.67.22-.3 0-.6 0-.9 0-.46.24-.65.22-.68.22-.2 0-.42 0-.67 0-.52 0-.6 0-.68 0-.48 0-.64-.02-.67 0-.53.23-.6.23-.67.23-.06 0-.43 0-1.13 0-.5 0-.64-.03-.68 0-.2.15-.42.23-.67.22-.53 0-.6 0-.67 0-.3 0-.6 0-.9-.02-.5 0-.64-.02-.68 0-.2.17-.42.24-.68.23-.52 0-.6 0-.67 0h-.9c-.52 0-.6 0-.68 0-.52 0-.6 0-.67 0-.52.24-.6.23-.68.23h-.9c-.52 0-.6 0-.67 0-.75 0-1.05 0-1.35 0h-.68c-.3 0-.6 0-.9 0-.37 0-.52 0-.67 0h-4.05c-.38 0-.53 0-.67 0-.3 0-.6 0-.9-.02h-.68c-.3 0-.6 0-.9 0h-1.13c-.05 0-.27 0-.67 0h-1.58c-.52 0-.6 0-.67 0-.53-.22-.6-.22-.68-.22-.75 0-1.04 0-1.35 0h-1.12c-.52 0-.6 0-.68 0-.52 0-.6 0-.67 0-.52-.23-.6-.23-.67-.23h-.9c-.53 0-.6 0-.68 0-.2 0-.43 0-.67 0-.53-.23-.6-.22-.68-.22h-.9c-.52 0-.6 0-.67 0-.53-.02-.6 0-.68 0-.52-.24-.6-.24-.67-.24h-.9c-.53 0-.6 0-.68 0-.2-.17-.4-.24-.67-.23-.52-.02-.6 0-.68 0-.52 0-.6 0-.68 0-.52-.24-.6-.23-.67-.23h-.9c-.5 0-.64.03-.67 0-.2-.16-.42-.24-.68-.23-.52 0-.6 0-.67 0-.48-.24-.64-.2-.68-.2-.52-.03-.6 0-.67 0-.5-.02-.65 0-.68 0-.52-.25-.6-.25-.67-.25-.2 0-.43 0-.68 0-.52-.23-.6-.22-.67-.22-.52 0-.6 0-.68 0-.47-.25-.64-.22-.67-.22-.05 0-.27 0-.68 0-.5 0-.65.03-.67 0-.53-.22-.6-.22-.67-.22-.5 0-.64.02-.67 0-.53-.23-.6-.23-.68-.23-.48 0-.64.02-.67 0-.52-.23-.6-.22-.68-.23-.48 0-.64.03-.67 0-.52-.22-.6-.22-.67-.22-.48-.25-.64-.22-.68-.23-.52 0-.6 0-.67 0-.47-.25-.63-.22-.67-.23-.52 0-.6 0-.67 0-.52-.23-.6-.2-.68-.23-.52 0-.6.03-.67 0-.5-.2-.6-.2-.67-.2-.5-.25-.6-.23-.67-.23-.52 0-.6 0-.68 0-.5-.25-.6-.23-.67-.23-.5 0-.6 0-.67 0-.5-.25-.6-.23-.67-.23-.5-.23-.6-.22-.67-.22-.5 0-.66.03-.7 0-.5-.24-.6-.22-.66-.22-.2-.16-.42-.24-.68-.23-.5 0-.63.03-.67 0-.53-.22-.63-.2-.7-.22-.18-.16-.4-.23-.66-.22-.5-.25-.62-.23-.68-.23-.48 0-.65.03-.67 0-.2-.15-.44-.22-.7-.23-.47-.25-.62-.2-.66-.22-.48-.25-.64-.22-.68-.23-.5 0-.6.02-.67 0-.53-.23-.62-.2-.68-.23-.5-.24-.62-.22-.68-.22-.5-.25-.6-.22-.68-.22-.48 0-.64.02-.67 0-.53-.25-.6-.23-.68-.23-.52-.23-.62-.2-.68-.23-.2-.16-.42-.24-.67-.22-.5-.25-.62-.23-.68-.23-.5 0-.66 0-.68 0-.5-.25-.65-.2-.68-.24-.52-.22-.6-.2-.67-.22-.52-.23-.62-.2-.68-.23-.5-.24-.62-.22-.68-.22-.5-.24-.6-.22-.68-.22-.47-.26-.63-.2-.67-.23-.46-.24-.65-.22-.67-.22-.5 0-.63.02-.68 0-.48-.22-.65-.2-.67-.22-.5-.24-.65-.2-.68-.23-.52-.22-.6-.2-.67-.22-.52-.23-.62-.2-.68-.23-.5-.25-.62-.22-.67-.22-.52-.25-.6-.23-.68-.23-.5-.23-.6-.2-.67-.23-.5-.22-.63-.24-.68-.22-.2.16-.42.23-.67.22l-.45.68c.47.26.64.2.67.22.48.24.43.43.45.45.5.25.62.23.68.23.5.25.62.22.67.22.5.23.64.2.67.23.48.26.42.44.46.45.48.26.63.2.67.23.5.23.63.2.67.23.5.24.43.42.46.44.5.25.62.23.67.23.5.25.6.23.67.23.5.24.64.2.68.22.48.25.42.42.45.46.5.24.62.22.67.22.5.25.62.22.68.22.5.26.62.2.67.23.5.24.6.22.66.24.48.25.42.44.46.45.47.24.63.2.67.22.45.24.63.23.66.23.5.25.64.18.68.22.5.23.65.2.67.22.5.23.44.42.46.45.48 0 .65-.03.68 0 .5.23.65.2.67.22.5.24.44.42.46.45.5 0 .63-.02.68 0 .47.25.42.44.45.46.48 0 .63-.03.66 0 .5.24.64.2.67.22.48.24.43.43.45.45.5 0 .62-.02.68 0 .5.25.64.2.67.23.5.24.64.2.67.23.48.24.43.43.46.46.5 0 .62-.03.67 0 .5.24.65.2.68.23.5.22.65.18.68.2.5.25.65.2.68.24.5.24.62.2.67.22.5.23.63.2.67.23.5.2.63.2.68.2.52.24.6.22.68.24.5.23.6.2.67.23.5.22.6.2.67.22.52.22.6.2.68.22.2.16.42.23.67.22.46.24.65.23.67.23.5.25.63.23.68.23.5 0 .63-.03.68 0 .5.22.62.2.67.22.52.23.6.2.67.23.2.16.42.24.68.23.48.25.63.2.68.22.47.25.63.2.67.23.5 0 .6 0 .67 0 .52.22.6.2.68.22.2.17.4.24.68.23.48 0 .64-.03.67 0 .5.24.6.23.67.23.5.25.62.23.68.23.5.24.6.23.67.23.52 0 .6-.02.68 0 .5.23.6.2.67.23.52.22.6.2.67.2.5 0 .6 0 .67 0 .52.24.6.22.68.24.5 0 .64-.03.67 0 .52.22.6.22.68.22.47.26.63.23.67.23.05 0 .27 0 .68 0 .5.24.6.22.67.22.48 0 .66-.02.67 0 .04.16.26.23.67.22.5 0 .62-.02.67 0 .2.16.42.24.68.23.5 0 .65-.02.67 0 .52.24.6.23.67.23.52 0 .6 0 .67 0 .53.22.6.22.68.23.5 0 .64-.03.67 0 .04.15.4.23 1.12.22.48.26.63.22.67.23.52 0 .6 0 .67 0 .52 0 .6 0 .67 0 .52.22.6.22.68.22.2 0 .42 0 .67 0 .5 0 .6-.02.67 0 .2.17.42.24.67.23.53 0 .6 0 .68 0 .47.26.63.22.67.23.5 0 .6 0 .67 0 .52 0 .6 0 .67 0 .5.02.65-.02.68 0 .75.23 1.05.23 1.35.23.52 0 .6 0 .67 0 .52 0 .6-.02.68 0 .52.2.6.2.67.2.04.02.4.02 1.12 0 .52.02.6.02.67.02.5 0 .6 0 .66 0 .53.23.6.22.68.23.05 0 .28 0 .67 0h.9c.3 0 .62 0 .9 0 .54 0 .6 0 .7 0 .47.25.62.22.67.23.04 0 .26 0 .67 0 .53 0 .6 0 .67 0 .32 0 .62 0 .92 0 .2 0 .42 0 .67 0h1.57c.6 0 1.2 0 1.8 0h.67c.3 0 .6 0 .9 0 .6 0 1.2 0 1.8 0 .6 0 1.2 0 1.8 0h.9c.53 0 .6 0 .68.02.2 0 .5 0 .9 0h1.8c.1 0 .32 0 .67 0 .5-.24.6-.23.66-.23.2 0 .43 0 .68 0 .05 0 .27 0 .67 0h1.81c.5 0 .66.03.7 0 .5-.23.6-.22.67-.22.04 0 .42 0 1.12 0 .5 0 .6 0 .66 0 .53 0 .6 0 .68 0 .52-.23.6-.22.67-.22h1.14c.52 0 .6 0 .67 0 .2-.16.43-.23.7-.22.5 0 .6 0 .66 0 .53 0 .6.02.68 0 .5 0 .65.04.67 0 .2-.14.66-.2 1.37-.2.48 0 .65 0 .67 0 .52-.25.6-.24.67-.24.54 0 .62 0 .7 0 .5-.24.6-.22.66-.22.53 0 .6 0 .68 0 .52 0 .6 0 .67 0 .52-.24.64-.22.7-.22.2 0 .4 0 .67 0 .5-.25.6-.22.67-.22.2 0 .42 0 .67 0 .5 0 .66.02.7 0 .5-.24.6-.23.67-.23.52 0 .6 0 .67 0 .52-.23.6-.22.68-.22.52 0 .6 0 .67 0 .5-.23.6-.2.67-.22.04 0 .27 0 .67 0 .5-.25.6-.23.68-.23.5 0 .6.02.67 0 .2-.16.4-.23.66-.22.5 0 .64.03.68 0 .53-.23.6-.23.67-.23.5-.25.65-.2.7-.22.5 0 .6 0 .67 0 .52-.24.6-.23.67-.23.5 0 .65.03.67 0 .53-.23.62-.22.7-.22.5-.24.6-.22.67-.22.5 0 .6 0 .67 0 .5-.24.6-.22.68-.22.5-.25.6-.23.67-.23.5 0 .6.02.67 0 .5-.2.6-.2.67-.2.48-.27.64-.23.68-.24.5 0 .65.03.67 0 .04-.16.26-.23.67-.22.5-.24.6-.23.67-.23.5 0 .66.04.68 0 .5-.22.64-.18.67-.2.03-.17.26-.25.66-.23.52-.25.62-.23.68-.23.5-.25.62-.22.68-.22.5 0 .62.02.67 0 .5-.23.62-.2.67-.23.52-.23.6-.2.68-.23.2-.17.4-.24.67-.23.5-.24.62-.22.67-.22.5-.25.6-.23.67-.23.5-.25.62-.23.68-.23.5 0 .62.02.67 0 .5-.22.62-.2.67-.22.5-.22.62-.2.67-.22.5-.23.63-.2.67-.23.5-.23.66-.2.68-.23.5-.23.65-.2.68-.22.48-.24.64-.2.67-.22.2-.15.43-.23.68-.23.5-.23.63-.2.67-.23.5-.22.62-.2.68-.22.5-.22.62-.2.67-.22.5-.23.62-.2.68-.23.5-.24.64-.2.67-.22.5-.24.64-.2.68-.23.5-.23.64-.2.67-.22.48-.23.43-.43.45-.45.5 0 .62.02.68 0 .5-.23.62-.2.67-.23.48-.24.43-.43.45-.44.5 0 .65.03.68 0 .47-.24.42-.44.45-.45.5 0 .65.03.67 0 .48-.23.43-.42.45-.44.5.02.63.03.68.02.48-.26.42-.45.45-.46.5-.02.64.03.68 0 .47-.24.42-.42.44-.45.5-.23.62-.2.68-.2.5-.26.62-.23.67-.24.5-.22.63-.2.68-.22.5-.23.63-.2.68-.23.47-.23.42-.43.45-.44.5-.26.63-.2.67-.22.52-.23.6-.2.68-.23.5-.2.62-.2.67-.2.48-.26.42-.45.45-.46.47-.24.65-.23.68-.23.5-.24.63-.17.67-.2.48-.25.43-.43.45-.46.5-.25.63-.22.68-.22.5-.23.63-.2.67-.23.48-.26.42-.45.45-.46.5-.26.64-.2.68-.22.5-.23.63-.2.68-.23.5-.25.43-.43.45-.45.5-.25.63-.23.68-.23.5-.24.64-.2.67-.23.5-.25.43-.43.46-.45.5-.25.62-.23.67-.23.5-.25.64-.2.68-.23.26-.48.42-.45.45-.45.5-.26.63-.2.68-.23.48-.25.42-.43.45-.45.5-.26.64-.18.68-.22.47-.25.42-.44.45-.45.5-.27.65-.2.68-.23.48-.24.43-.43.46-.45.48-.26.62-.2.67-.22.48-.25.43-.44.46-.45.46-.24.65-.22.68-.22.48-.27.4-.42.45-.46.47-.26.62-.18.66-.22.48-.24.43-.42.45-.45.5-.26.65-.2.7-.22.46-.24.4-.43.44-.45.5-.26.64-.2.67-.23.3-.47.4-.45.46-.45.5-.25.42-.42.45-.45.5-.26.64-.2.7-.22.47-.26.4-.43.44-.45.5-.23.64-.2.67-.23.27-.47.43-.45.46-.45.5-.25.42-.4.46-.45.5-.26.63-.18.67-.22.25-.48.4-.45.44-.45.47-.25.42-.44.45-.45.48-.26.63-.18.66-.23.27-.48.4-.4.46-.44.48-.26.4-.4.45-.44.5-.23.62-.2.68-.23.26-.5.4-.4.44-.45.48-.26.4-.4.44-.45.5-.24.42-.42.45-.45.5-.25.63-.18.67-.22.27-.5.4-.4.45-.45.28-.46.4-.44.45-.44.5-.27.42-.4.45-.45.5-.25.4-.4.45-.44.5-.26.64-.2.67-.22.27-.5.42-.42.46-.46.26-.48.4-.4.45-.44.5-.26.4-.42.45-.46.48-.26.4-.4.45-.44.5-.26.42-.42.45-.46.5-.25.42-.4.45-.44.5-.27.64-.2.67-.23.27-.48.42-.4.45-.44.27-.48.4-.42.46-.45.26-.48.4-.4.45-.44.26-.5.4-.4.45-.45.26-.48.4-.4.45-.44.25-.5.42-.42.45-.45.26-.48.4-.4.45-.44.26-.5.4-.4.45-.45.26-.48.4-.4.45-.44.26-.5.4-.42.45-.45.26-.48.4-.4.45-.44.26-.5.42-.42.45-.45.26-.48.4-.4.45-.44.26-.5.4-.4.45-.45.26-.48.42-.4.45-.44.26-.48.42-.4.46-.45.22-.47.2-.64.22-.67.5-.26.4-.4.45-.45.5-.26.42-.4.46-.45.48-.26.4-.4.45-.44.27-.5.43-.43.46-.46.26-.5.4-.42.45-.46.27-.48.43-.4.46-.45.27-.5.2-.63.23-.67.47-.27.4-.4.44-.45.5-.25.42-.4.45-.45.25-.48.4-.4.44-.44.23-.5.2-.62.23-.66.48-.27.4-.42.45-.46.26-.48.4-.4.45-.44.24-.48.43-.43.45-.46.26-.48.18-.63.22-.67.47-.23.45-.4.45-.44.26-.5.4-.4.45-.45.26-.48.18-.63.22-.67.24-.47.42-.42.45-.44.22-.5.2-.66.22-.7.5-.26.42-.4.45-.44.25-.48.42-.42.45-.45.26-.48.2-.62.22-.67.25-.48.42-.42.45-.45.26-.5.2-.64.23-.67.25-.48.42-.4.45-.44.25-.5.2-.64.23-.68.25-.48.4-.4.44-.45.25-.5.2-.64.23-.67.24-.48.42-.43.45-.45.25-.5.22-.62.23-.67.25-.48.44-.42.45-.45.26-.5.2-.63.23-.67.22-.5.2-.62.22-.67.25-.48.44-.42.45-.45.26-.5.2-.63.23-.68.22-.5.2-.62.22-.67.25-.48.44-.43.45-.45.03-.5-.03-.63 0-.68.25-.47.44-.42.45-.44.27-.5.2-.64.23-.68.23-.5.2-.63.23-.68.23-.5.2-.62.23-.67.25-.48.44-.42.45-.46.03-.5-.02-.63 0-.66.25-.48.44-.43.46-.45 0-.5-.02-.62 0-.67.25-.5.2-.65.23-.68.23-.47.42-.43.44-.45 0-.5-.02-.62 0-.68.22-.5.2-.62.22-.67.25-.5.2-.64.23-.67.23-.5.2-.65.22-.68.24-.5.2-.65.23-.68.24-.5.2-.6.22-.67.22-.52.2-.6.22-.68.16-.2.23-.4.22-.67.25-.48.22-.64.23-.68 0-.5-.03-.65 0-.68.24-.5.23-.62.23-.68.23-.52.22-.6.22-.68 0-.5-.02-.6 0-.67.23-.52.2-.6.23-.68.24-.52.22-.62.22-.68 0-.52 0-.6 0-.67.23-.53.22-.62.23-.7 0-.47-.03-.63 0-.66.16-.06.23-.28.23-.68 0-.52 0-.62 0-.68.16-.2.24-.43.23-.68v-.9c.25-.47.23-.65.23-.68 0-.2 0-.42 0-.67 0-.5 0-.6 0-.66 0-.53 0-.6 0-.68.22-.53.22-.6.22-.68 0-.05 0-.35 0-.9 0-.3 0-.6 0-.9 0-.3 0-.6 0-.9 0-.3 0-.6 0-.9v-1.58c0-.6 0-1.2 0-1.8 0-.37 0-.52 0-.68 0-.3 0-.6.02-.9 0-.3 0-.6 0-.9v-.68c-.24-.74-.22-.82-.22-.9z"/></g><g><path d="M68.7 93.56c-2 .85-5.2 1.4-8.16 1.4-4.14 0-7.55-1.3-9.9-3.73-2.3-2.42-3.52-5.94-3.5-10.18 0-8.85 5-14.14 13.37-14.14 3.7 0 6.48.9 8.15 1.62l.83.36 2.52-9.5-.55-.28c-1.84-.96-5.9-2.1-11.37-2.1C45.1 57 35.02 66.87 35 81.57 34.98 96 44.2 104.97 59.07 105h.06c5.2 0 9.6-1 11.65-2l.53-.25-1.7-9.56-.9.36z"/><path d="M97.1 104.2zm.4-37.56v-.78l.02.78c3.04 0 5.6 1.43 7.4 4.14 1.7 2.56 2.65 6.15 2.65 10.1 0 8.8-3.97 14.48-10.16 14.48-3 0-5.54-1.4-7.36-4.03-1.77-2.57-2.75-6.22-2.74-10.28 0-7.17 3.17-14.4 10.2-14.4zM97.1 105c13.9 0 22.88-9.6 22.9-24.44 0-6.47-2-12.35-5.7-16.55-4-4.57-9.7-7-16.54-7C84.38 57 75.02 67 75 81.3 74.98 95.25 84.03 105 97.07 105h.03z"/><path d="M138.9 104.2v.02zM158 90.3c0-6.74-3.78-11.12-12.27-14.23-5.96-2.28-7.95-3.42-7.94-5.68 0-1.78 1.8-3.56 5.83-3.56 4.3 0 7.56 1.3 9.12 2.06l.86.43 2.76-9.7-.6-.27C152.44 57.8 148.4 57 143.74 57c-10.6 0-18.03 5.86-18.04 14.24 0 6.4 4.28 11.05 13.1 14.17 5.93 2.03 7.12 3.63 7.12 5.55 0 2.63-2.35 4.14-6.45 4.14-4.3 0-8.54-1.42-11.07-2.73l-.9-.47-2.5 9.9.53.3c2.57 1.4 7.82 2.9 13.3 2.9h.06c14.08 0 19.1-7.92 19.1-14.7z"/><path d="M202.53 72.24c.07 4.82.2 9.35.34 13l.74 17.75H215l-2.42-45.95H198l-4.9 15.3c-1.2 3.92-2.47 8.58-3.6 13.1-.9-4.32-1.98-8.76-3.2-12.98l-4.5-15.45L167 57l-3 45.94h10.92l.92-17.58c.18-3.6.37-7.94.54-12.44.88 4.03 1.86 8.07 2.84 11.62l4.92 17.7h9.06l5.62-17.84c1.25-3.75 2.54-8 3.7-12.16"/><path d="M254 93.2h-18.36v-9l16.45.02V74.5l-16.43-.03V66.8l17.43.02.02-9.8-29.06-.02-.06 45.96 30 .04z"/><path d="M103.68 142.8h2.7c3.12 0 8.36.72 8.36 5.52 0 5.15-5.52 5.7-7.9 5.7-1.32 0-2.34 0-3.17-.1V142.8zm3.53-18.67l.06.78c2.94.02 6.43.78 6.43 4.4 0 3-2.72 4.72-7.45 4.72h-2.55v-8.92c.83-.13 2-.2 3.5-.2v-.77zM103.8 163h.12c8.6 0 14.5-1.37 18.1-4.2 3.25-2.52 4.97-6 4.98-10.07 0-5.12-2.9-9.27-7.73-11.17 3.93-2.05 6.15-5.4 6.15-9.43 0-4.1-2.1-7.57-5.72-9.5-3.26-1.9-6.97-2.62-13.8-2.63-4.82 0-10.25.4-13.2 1l-.64.12-.06 45.1.67.1c1.73.25 5.47.68 11.14.68z"/><path d="M135 163h11.94l.06-46h-11.94z"/><path d="M176.1 163.2v.02zm.4-37.56v-.78l.02.78c6.95 0 10.06 7.16 10.05 14.24 0 8.8-3.97 14.48-10.16 14.48-6.05 0-10.1-5.76-10.1-14.3 0-7.18 3.17-14.42 10.2-14.42zm-.43 38.36h.03c13.9 0 22.88-9.6 22.9-24.44 0-11.7-6.85-23.54-22.24-23.56-13.38 0-22.74 10-22.76 24.3 0 6.58 2.05 12.53 5.8 16.78 3.98 4.52 9.6 6.9 16.27 6.92z"/></g><g><path d="M278.3 4.72c4.1 0 5.43 1.45 5.43 4.3 0 1.85-1.44 3.4-3.5 4.02l4.35 7.06h-3.48l-3.77-6.4h-1.07v6.4h-3.13V4.7h5.18zm-2.04 7.4h1.3c1.94 0 2.88-1.13 2.9-2.82 0-1.83-.5-2.86-2.56-2.86h-1.64v5.67z"/><path d="M277.94 25.87c-7.14 0-12.94-5.8-12.94-12.93S270.8 0 277.94 0c7.13 0 12.93 5.8 12.93 12.94 0 7.13-5.8 12.93-12.93 12.93m0-23.35c-5.75 0-10.42 4.67-10.42 10.42 0 5.74 4.67 10.4 10.42 10.4 5.74 0 10.42-4.66 10.42-10.4 0-5.75-4.68-10.42-10.42-10.42"/></g></g></g></g></svg>