<?xml version="1.0" encoding="utf-8"?>
<!-- Generator: Adobe Illustrator 16.0.0, SVG Export Plug-In . SVG Version: 6.00 Build 0)  -->
<!DOCTYPE svg PUBLIC "-//W3C//DTD SVG 1.1//EN" "http://www.w3.org/Graphics/SVG/1.1/DTD/svg11.dtd">
<svg version="1.1" id="Calque_1" xmlns="http://www.w3.org/2000/svg" xmlns:xlink="http://www.w3.org/1999/xlink" x="0px" y="0px"
	 width="40px" height="40px" viewBox="0 0 40 40" enable-background="new 0 0 40 40" xml:space="preserve">
<g>
	<path fill-rule="evenodd" clip-rule="evenodd" fill="#FFFFFF" d="M20.95,36.883c-0.073,0.018-0.146,0.036-0.22,0.055
		c-0.483-0.04-0.985,0.015-1.418-0.28c-0.128-0.114-0.147-0.271-0.185-0.429c-0.136-0.564-0.004-1.141-0.084-1.706
		c0-0.826,0-1.652,0-2.48c0.036-0.795,0.037-1.592,0-2.388c0-0.826,0-1.654,0-2.48c0.036-0.796,0.036-1.592-0.001-2.388
		c0-0.797,0-1.594,0-2.392c0.039-0.826,0.038-1.651,0-2.477c0-0.797,0-1.594,0.001-2.392c0.037-0.796,0.037-1.592,0-2.388
		c0.006-0.653,0.019-1.306,0.018-1.958c0-0.488-0.104-0.655-0.49-0.239c-0.727,0.784-1.534,1.486-2.247,2.284
		c-0.811,0.906-1.762,1.716-2.623,2.576c-0.837,0.836-1.684,1.667-2.494,2.528c-0.471,0.501-0.998,1.31-1.795,1.049
		c-0.686-0.224-1.542-1.374-0.954-2.067c0.311-0.366,0.716-0.635,1.06-0.966c0.345-0.333,0.658-0.7,0.99-1.046
		c0.747-0.78,1.518-1.536,2.289-2.292c0.44-0.432,0.88-0.863,1.315-1.3c0.506-0.508,1.009-1.021,1.493-1.55
		c0.322-0.353,0.744-0.639,1.08-0.987c1.04-1.08,2.097-2.143,3.157-3.203c0.537-0.226,0.979-0.066,1.372,0.326
		c1.401,1.399,2.905,2.713,4.202,4.213c0.871,1.007,1.952,1.888,2.873,2.864c0.643,0.683,1.305,1.349,2.002,1.978
		c0.554,0.57,1.107,1.142,1.662,1.71c0.726,0.742,0.74,1.041,0.08,1.827c-0.283,0.143-0.417,0.488-0.777,0.539
		c-0.47,0.066-0.82-0.126-1.123-0.453c-1.721-1.86-3.466-3.701-5.32-5.429c-0.521-0.485-0.854-0.931-1.35-1.441
		c-0.31-0.318-0.71-0.759-1.014-1.084c-0.291-0.311-0.768-0.672-0.768,0.006c0.002,5.603,0.007,11.205,0.009,16.808
		c0,2.094-0.012,4.187-0.017,6.28C21.575,36.502,21.346,36.769,20.95,36.883z"/>
	<path fill-rule="evenodd" clip-rule="evenodd" fill="#FFFFFF" d="M33.211,2.978c0.087,0,0.174,0,0.261-0.001
		c0.178,0.002,0.356,0.002,0.535,0.004c0.063,0.008,0.126,0.018,0.189,0.027c0.364,0.099,0.571,0.355,0.699,0.692
		c0,0.338,0,0.676,0,1.014c-0.201,0.594-0.669,0.716-1.228,0.715c-6.043-0.004-12.087-0.003-18.132-0.002
		c-2.801,0-5.602,0-8.403,0.003c-0.469,0-0.969-0.002-1.176-0.504c-0.212-0.514-0.217-1.07,0.086-1.571
		C6.244,3.022,6.598,3,6.942,2.999c1.371-0.003,2.742-0.001,4.113-0.001c7.223,0,14.447,0.001,21.669,0.001
		C32.887,2.999,33.049,2.985,33.211,2.978z"/>
</g>
</svg>
