<?xml version="1.0" encoding="utf-8"?>
<!-- Generator: Adobe Illustrator 16.0.0, SVG Export Plug-In . SVG Version: 6.00 Build 0)  -->
<!DOCTYPE svg PUBLIC "-//W3C//DTD SVG 1.1//EN" "http://www.w3.org/Graphics/SVG/1.1/DTD/svg11.dtd">
<svg version="1.1" id="Calque_1" xmlns="http://www.w3.org/2000/svg" xmlns:xlink="http://www.w3.org/1999/xlink" x="0px" y="0px"
	 width="65.139px" height="40px" viewBox="0 0 65.139 40" enable-background="new 0 0 65.139 40" xml:space="preserve">
<g>
	<polygon fill="#FFFFFF" points="4.715,4.219 51.491,4.219 51.491,0 0,0 0,31.018 4.715,31.018 	"/>
	<g>
		<path fill="#FFFFFF" d="M30.182,24.289c0.211,0.672,0.541,1.182,0.986,1.527c0.446,0.35,1.024,0.523,1.742,0.523
			c0.191,0,0.405-0.02,0.634-0.053c0.228-0.035,0.461-0.084,0.691-0.146c0.233-0.063,0.461-0.137,0.688-0.22
			c0.225-0.086,0.436-0.178,0.63-0.271v2.088c-0.501,0.221-0.995,0.383-1.479,0.486c-0.482,0.104-0.983,0.154-1.506,0.154
			c-1.346,0-2.442-0.345-3.285-1.035c-0.846-0.691-1.408-1.71-1.69-3.058h-1.29v-1.45h1.12c-0.011-0.117-0.017-0.229-0.017-0.324
			c0-0.098,0-0.199,0-0.306c0-0.144,0.001-0.293,0.009-0.44c0.005-0.15,0.017-0.307,0.027-0.463h-1.139v-1.449h1.384
			c0.165-0.66,0.401-1.248,0.711-1.77c0.31-0.521,0.683-0.961,1.109-1.317c0.431-0.357,0.915-0.633,1.455-0.824
			c0.541-0.19,1.125-0.286,1.758-0.286c0.271,0,0.525,0.006,0.763,0.019c0.241,0.013,0.474,0.035,0.698,0.07
			c0.226,0.035,0.45,0.082,0.672,0.138c0.223,0.055,0.457,0.126,0.701,0.214v2.261c-0.487-0.241-0.959-0.408-1.417-0.509
			c-0.455-0.1-0.868-0.15-1.245-0.15c-0.698,0-1.271,0.192-1.718,0.578c-0.449,0.387-0.78,0.911-0.992,1.577h3.404v1.448H29.87
			c-0.015,0.127-0.018,0.246-0.018,0.364c0,0.116,0,0.231,0,0.353c0,0.127,0,0.254,0,0.385c0,0.133,0.003,0.277,0.018,0.434h3.716
			v1.45L30.182,24.289L30.182,24.289z"/>
	</g>
	<path fill="#FFFFFF" d="M45.169,18.736c0-2.808,4.904-5.094,11.034-5.202V7.815H8.313v27.419h36.855L45.169,18.736L45.169,18.736z
		 M32.23,31.23c-5.087,0-9.211-4.123-9.211-9.211c0-5.085,4.124-9.21,9.211-9.21s9.21,4.125,9.21,9.21
		C41.44,27.107,37.317,31.23,32.23,31.23z"/>
	<ellipse fill="#FFFFFF" cx="56.453" cy="20.161" rx="8.686" ry="4.219"/>
	<path fill="#FFFFFF" d="M65.139,35.843c0,2.331-3.888,4.22-8.685,4.22s-8.688-1.889-8.688-4.22v-3.22
		c0,2.331,3.891,4.219,8.688,4.219s8.685-1.888,8.685-4.219V35.843z"/>
	<path fill="#FFFFFF" d="M65.139,30.732c0,2.332-3.888,4.219-8.685,4.219s-8.688-1.887-8.688-4.219v-3.219
		c0,2.33,3.891,4.219,8.688,4.219s8.685-1.889,8.685-4.219V30.732z"/>
	<path fill="#FFFFFF" d="M65.139,25.625c0,2.329-3.888,4.217-8.685,4.217s-8.688-1.888-8.688-4.217v-3.221
		c0,2.33,3.891,4.218,8.688,4.218s8.685-1.888,8.685-4.218V25.625z"/>
</g>
</svg>
