<svg xmlns="http://www.w3.org/2000/svg" width="500" height="500" xmlns:xlink="http://www.w3.org/1999/xlink" xmlns:sodipodi="http://inkscape.sourceforge.net/DTD/sodipodi-0.dtd" sodipodi:version=".32" sodipodi:docbase="D:\wiki_svg" sodipodi:docname="USDA_organic_seal.jpg.svg" version="1"><defs><linearGradient id="a"><stop offset="0" stop-color="#fff" stop-opacity=".337"/><stop offset="1" stop-color="#fff" stop-opacity=".103"/></linearGradient><linearGradient><stop offset="0" stop-color="#fff"/><stop offset="1" stop-color="#fff" stop-opacity="0"/></linearGradient><linearGradient id="b" x1="341" x2="444" y1="396.688" y2="264.5" xlink:href="#a" gradientUnits="userSpaceOnUse"/><linearGradient id="c" x1="364.693" x2="474.217" y1="367.857" y2="228.335" xlink:href="#a" gradientUnits="userSpaceOnUse" gradientTransform="matrix(.965 .261 -.261 .965 39.377 -86.063)"/><linearGradient id="d" x1="398.475" x2="503.341" y1="327.779" y2="202.034" xlink:href="#a" gradientUnits="userSpaceOnUse" gradientTransform="matrix(.886 .464 -.464 .886 75.605 -152.294)"/><linearGradient id="e" x1="416.695" x2="519.456" y1="301.334" y2="188.671" xlink:href="#a" gradientUnits="userSpaceOnUse" gradientTransform="matrix(.773 .634 -.634 .773 144.304 -217.959)"/></defs><sodipodi:namedview borderopacity="1" bordercolor="#666666" pagecolor="#ffffff"/><g><g><path fill="#723904" fill-rule="evenodd" d="M500 250a250 250 0 1 1-500 0 250 250 0 1 1 500 0z" sodipodi:type="arc" sodipodi:cx="29" sodipodi:cy="110" sodipodi:rx="53" sodipodi:ry="50"/><g fill-rule="evenodd"><path fill="#fff" d="M473 250a223 223 0 1 1-446 0 223 223 0 1 1 446 0z" sodipodi:ry="50" sodipodi:rx="53" sodipodi:cy="110" sodipodi:cx="29" sodipodi:type="arc"/><g><path fill="#008356" d="M473 250c0 123.1-99.9 223-223 223S27 373.1 27 250c104 0 331.73 0 446 0z" sodipodi:nodetypes="cscc"/><g><path fill="url(#b)" d="M286 470.88L444 264.5 270 471" sodipodi:nodetypes="ccc"/><path fill="url(#c)" d="M176.13 455.37l261.3-197.1-272.35 190.1" sodipodi:nodetypes="ccc"/><path fill="url(#d)" d="M91.9 405.9l335.78-145.63-345.06 136.4" sodipodi:nodetypes="ccc"/><path fill="url(#e)" d="M46.93 331.92l379.3-74.54L39.73 321" sodipodi:nodetypes="ccc"/></g></g></g><path fill="none" stroke="#fff" stroke-width="3.232" stroke-dashoffset="10.5" d="M82 110a53 50 0 1 1-106 0 53 50 0 1 1 106 0z" sodipodi:cx="29" transform="matrix(4.208 0 0 4.46 127.981 -240.6)" sodipodi:ry="50" sodipodi:rx="53" stroke-linejoin="round" sodipodi:cy="110" sodipodi:type="arc"/></g><g fill-rule="evenodd"><g fill="#008356"><path d="M121 129h22.5v71.86s.06 6.84 6.88 6.84c6.8 0 7.8-6.78 7.8-6.78v-71.86h21.94v71.92s.08 24.02-29.3 24.02c-29.22 0-29.8-23.98-29.8-23.98L121 129z" sodipodi:nodetypes="ccczcccczcc"/><path d="M223.62 158.76h20.33s1.77-29.76-28.1-29.76c-8.13 0-16.22 3.52-20.5 8.16-4.6 5.03-6.9 10.05-6.9 18.68 0 6.76.7 17 18.2 26.84 10.7 6.02 16.97 10.5 16.97 16.86 0 6.36-3.53 8.6-8.48 8.6-6.64 0-7.47-7.08-7.47-7.9 0-.96-.13-7.93-.13-7.93H186.5s-3.9 32.7 28.1 32.7c31.14 0 29.35-23.9 29.35-28.9 0-16-7.78-21.27-20.15-28.22-10.15-5.7-15.2-9.12-15.2-14.8 0-5.67 3.84-7.22 6.9-7.22 8.27 0 8.18 7.75 8.18 8.56 0 .72.12 4.52-.06 4.34z" sodipodi:nodetypes="ccsssssssccssssssc"/><path d="M253.32 129s22.45 0 30.94 0c8.48 0 26.7 2.92 26.7 21 0 22.44 0 30.15 0 54.2 0 13.45-12.08 20.8-24.94 20.8-10.6 0-32.7 0-32.7 0v-96zm22.12 17.62s5.22 0 7.2 0c3.98 0 6.2 1.85 6.2 13.28 0 14.22 0 19.1 0 34.3 0 8.53-.3 13.18-5.8 13.18-2.47 0-7.6 0-7.6 0v-60.76z"/><path d="M339.5 225h-21.38l20.25-96h25.75l20.75 95.74h-22.62l-2.63-17.56H343L339.5 225zm5.88-34.86h11.75l-5.5-43.32-6.25 43.32z"/></g><g fill="#fff"><path d="M254.9 349.12h-16.05l15.2-72h19.35l15.58 71.8h-17l-1.96-13.16h-12.5l-2.62 13.36zm4.42-26.15h8.82L264 290.5l-4.68 32.47z"/><path d="M104.03 277.12h8.5c9.93 0 17.93 7.9 17.93 17.7v36.6c0 9.8-8 17.7-17.93 17.7h-8.5c-9.94 0-17.94-7.9-17.94-17.7v-36.6c0-9.8 8-17.7 17.93-17.7zm4.25 12.03c3.13 0 5.65 2.6 5.65 5.84v36.25c0 3.24-2.52 5.84-5.65 5.84-3.14 0-5.66-2.6-5.66-5.85V295c0-3.25 2.52-5.85 5.66-5.85z"/><path d="M154.86 320.72v28.4h-16.8v-72s15.9 0 26 0c10.07 0 18.37 4.33 18.37 19.54 0 15.2-7.6 14.74-7.6 16.55 0 2.6 7.43-2.05 7.43 18.37 0 16.42 2.47 14.84 2.47 16.15 0 1.3-.1 1.36-.1 1.36h-19s0-14.6 0-20.5c0-6.6-3.85-7.86-10.77-7.86zm-.27-13.75s0-13.63 0-16.9c3.64 0 11.04-1.42 11.04 8.3 0 9.6-5.24 8.6-11.05 8.6z"/><path d="M217.44 322.3h-5.84v-11.95h22.45v37.56H222.2v-6.22s-3.17 7.44-14.84 7.44-18.2-7.96-18.2-17.48 0-29.6 0-38.77c0-9.17 10.07-15.75 22.26-15.75 12.2 0 21.97 6.75 21.97 15.4 0 8.66-.05 9.87-.05 9.87h-16.27s0-4.86 0-7.97c0-3.12-3.53-5.37-5.48-5.37-1.94 0-6.1 1.4-6.1 5.97 0 4.6 0 30.38 0 34.53 0 4.16 1.68 7.1 5.75 7.1 4.06 0 6.36-3.46 6.36-6.58 0-3.1 0-8.3-.16-7.8z" sodipodi:nodetypes="cccccccsssssccssssssc"/><path d="M309 312.6v36.34h-15.55v-71.82h17.32l12.2 39.74V277.3h15.38v71.82H320.5L309 312.6z"/><path d="M346.48 277.12h16.27v72h-16.27v-72z"/><path d="M399.16 302.74h16.27s0-4.33 0-10.56-6.02-15.06-23.52-15.06-20.67 12.3-20.67 17.83c0 5.54 0 29.07 0 35.82s3 18.35 21.2 18.35c18.22 0 23.88-11.42 23.88-15.58 0-4.15 0-12.63 0-12.63h-16.96s0 7.6 0 10.57c0 2.7-2.63 5.2-5.66 5.2-2.93 0-5.66-1.74-5.66-5.2s0-33.23 0-36.52c0-3.3 1.6-4.93 5.66-4.93 3.5 0 5.57 3.1 5.57 5.45 0 2.33.1 7.44-.1 7.27z" sodipodi:nodetypes="ccssssssccszsszzc"/></g></g></g></svg>