<?xml version="1.0" encoding="utf-8"?>
<!-- Generator: Adobe Illustrator 16.0.0, SVG Export Plug-In . SVG Version: 6.00 Build 0)  -->
<!DOCTYPE svg PUBLIC "-//W3C//DTD SVG 1.1//EN" "http://www.w3.org/Graphics/SVG/1.1/DTD/svg11.dtd">
<svg version="1.1" id="Calque_1" xmlns="http://www.w3.org/2000/svg" xmlns:xlink="http://www.w3.org/1999/xlink" x="0px" y="0px"
	 width="50px" height="50px" viewBox="0 0 50 50" enable-background="new 0 0 50 50" xml:space="preserve">
<g>
	<path fill-rule="evenodd" clip-rule="evenodd" fill="#036735" d="M26.065,45.149c-0.087,0.021-0.175,0.044-0.263,0.065
		c-0.576-0.048-1.175,0.018-1.692-0.334c-0.152-0.137-0.175-0.324-0.22-0.512c-0.162-0.673-0.005-1.36-0.1-2.035
		c0-0.986,0-1.972,0-2.959c0.042-0.949,0.043-1.899,0-2.849c0-0.986,0-1.974,0-2.959c0.042-0.95,0.043-1.899-0.002-2.849
		c0-0.951,0-1.902,0-2.854c0.047-0.985,0.045-1.97,0-2.955c0-0.951,0.001-1.902,0.001-2.854c0.043-0.95,0.043-1.899,0-2.849
		c0.007-0.779,0.022-1.558,0.021-2.336c0-0.583-0.124-0.782-0.584-0.285c-0.867,0.935-1.83,1.772-2.681,2.724
		c-0.967,1.081-2.103,2.047-3.129,3.073c-0.998,0.998-2.008,1.988-2.976,3.016c-0.562,0.598-1.19,1.563-2.142,1.252
		c-0.818-0.267-1.84-1.639-1.138-2.467c0.37-0.437,0.854-0.758,1.264-1.153c0.412-0.397,0.785-0.835,1.181-1.248
		c0.891-0.93,1.811-1.833,2.73-2.735c0.525-0.515,1.049-1.03,1.569-1.551c0.604-0.606,1.204-1.217,1.781-1.849
		c0.384-0.421,0.888-0.762,1.288-1.178c1.241-1.288,2.501-2.557,3.767-3.821c0.64-0.269,1.167-0.079,1.636,0.389
		c1.672,1.669,3.467,3.237,5.014,5.026c1.039,1.201,2.329,2.252,3.428,3.417c0.767,0.815,1.557,1.609,2.389,2.359
		c0.66,0.68,1.32,1.362,1.982,2.04c0.865,0.885,0.883,1.242,0.096,2.18c-0.338,0.17-0.498,0.582-0.928,0.643
		c-0.561,0.079-0.979-0.15-1.34-0.541c-2.053-2.219-4.135-4.415-6.347-6.477c-0.621-0.579-1.019-1.111-1.61-1.719
		c-0.369-0.379-0.848-0.905-1.21-1.293c-0.347-0.371-0.915-0.802-0.915,0.007c0.002,6.684,0.008,13.368,0.01,20.052
		c0,2.498-0.014,4.995-0.02,7.493C26.812,44.695,26.537,45.014,26.065,45.149z"/>
	<path fill-rule="evenodd" clip-rule="evenodd" fill="#036735" d="M40.693,4.7c0.104,0,0.207,0,0.311-0.001
		c0.213,0.002,0.426,0.003,0.639,0.005c0.076,0.01,0.15,0.021,0.227,0.032c0.434,0.118,0.682,0.424,0.834,0.826
		c0,0.404,0,0.807,0,1.21c-0.24,0.708-0.799,0.854-1.465,0.853c-7.209-0.004-14.42-0.003-21.631-0.003
		c-3.341,0-6.684,0-10.025,0.003c-0.559,0-1.156-0.003-1.403-0.602C7.927,6.411,7.921,5.748,8.282,5.15
		c0.239-0.396,0.662-0.423,1.071-0.424c1.636-0.004,3.271-0.001,4.907-0.001c8.618,0,17.235,0.001,25.853,0.001
		C40.307,4.725,40.5,4.709,40.693,4.7z"/>
</g>
</svg>
