<?xml version="1.0" encoding="utf-8"?>
<!-- Generator: Adobe Illustrator 16.0.0, SVG Export Plug-In . SVG Version: 6.00 Build 0)  -->
<!DOCTYPE svg PUBLIC "-//W3C//DTD SVG 1.1//EN" "http://www.w3.org/Graphics/SVG/1.1/DTD/svg11.dtd">
<svg version="1.1" id="Calque_1" xmlns="http://www.w3.org/2000/svg" xmlns:xlink="http://www.w3.org/1999/xlink" x="0px" y="0px"
	 width="52.155px" height="39.996px" viewBox="0 0 52.155 39.996" enable-background="new 0 0 52.155 39.996" xml:space="preserve">
<g>
	<path fill-rule="evenodd" clip-rule="evenodd" d="M26.078,39.996c-7.399,0-14.799-0.004-22.201,0.002
		c-1.399,0-2.503-0.541-3.282-1.708c-0.379-0.569-0.573-1.207-0.589-1.89C0,36.109,0.003,35.822,0.003,35.534
		C0.003,24.981,0.005,14.429,0,3.877c0-1.364,0.517-2.455,1.634-3.24C2.22,0.227,2.88,0.021,3.598,0.001C3.681,0,3.764,0,3.849,0
		c14.818,0,29.638,0,44.459-0.001c1.391-0.002,2.484,0.548,3.254,1.707c0.4,0.603,0.594,1.276,0.594,2.001
		c-0.003,1.405,0.001,2.808,0.001,4.212c0,9.409-0.004,18.819,0,28.226c0,1.363-0.53,2.452-1.658,3.227
		c-0.604,0.416-1.285,0.621-2.021,0.621c-4.044,0-8.088,0.003-12.133,0.003C32.923,39.996,29.5,39.996,26.078,39.996z M26.078,1.726
		c-7.42,0-14.841,0-22.262,0.002c-1.226,0-2.076,0.84-2.076,2.064C1.737,14.597,1.736,25.4,1.748,36.206
		c0,0.332,0.077,0.695,0.228,0.99c0.378,0.753,1.04,1.069,1.873,1.069c14.812-0.001,29.625-0.001,44.437-0.001
		c1.305,0,2.134-0.821,2.134-2.117c0-3.265,0-6.527,0-9.793c0-7.502,0.001-15.006-0.01-22.511c0-0.325-0.059-0.677-0.19-0.97
		c-0.363-0.804-1.042-1.147-1.908-1.147C40.9,1.728,33.488,1.728,26.078,1.726z"/>
	<path fill-rule="evenodd" clip-rule="evenodd" d="M27.597,15.943c-3.908,0-7.791,0-11.694,0c0,0.178,0,0.33,0,0.518
		c3.888,0,7.774,0,11.733,0c-0.033,0.655-0.016,1.276-0.1,1.886c-0.354,2.537-1.637,4.487-3.815,5.836
		c-1.195,0.739-2.513,1.117-3.915,1.129c-2.612,0.021-5.226,0.031-7.837,0c-3.462-0.044-6.563-2.444-7.464-5.781
		c-0.197-0.727-0.295-1.498-0.313-2.253c-0.026-1.131-0.064-2.284,0.122-3.39c0.501-2.949,2.214-4.987,4.977-6.132
		c0.965-0.4,1.984-0.541,3.026-0.539c2.39,0.003,4.779-0.003,7.167,0.001c3.485,0.007,6.349,1.952,7.612,5.176
		C27.536,13.521,27.662,14.698,27.597,15.943z"/>
	<path fill-rule="evenodd" clip-rule="evenodd" d="M27.912,25.246c0-0.121,0-0.229,0-0.336c0-2.707,0.003-5.411-0.006-8.118
		c-0.002-0.256,0.067-0.326,0.324-0.325c5.179,0.008,10.356-0.005,15.533,0.01c1.909,0.006,3.341,0.872,4.119,2.624
		c1.101,2.479-0.214,5.228-2.826,5.983c-0.424,0.123-0.88,0.166-1.321,0.168c-5.18,0.012-10.358,0.007-15.536,0.007
		C28.116,25.26,28.035,25.253,27.912,25.246z"/>
	<path fill-rule="evenodd" clip-rule="evenodd" d="M27.934,15.932c0-2.92,0-5.826,0-8.765c0.098-0.006,0.194-0.016,0.292-0.016
		c5.189,0,10.376-0.003,15.563,0.003c1.896,0.002,3.447,1.044,4.172,2.775c0.963,2.3-0.371,5.115-2.771,5.795
		c-0.466,0.132-0.969,0.208-1.454,0.209c-5.178,0.015-10.357,0.009-15.536,0.008C28.116,15.943,28.035,15.937,27.934,15.932z"/>
	<path fill-rule="evenodd" clip-rule="evenodd" d="M28.172,30.212c0.562-0.73,1.249-0.979,2.058-0.919
		c0.647,0.047,1.198,0.316,1.645,0.787c0.894,0.938,0.888,2.397-0.002,3.36c-0.981,1.062-2.331,1.053-3.722-0.054
		c0,0.251,0,0.478,0,0.717c-0.213,0-0.385,0-0.581,0c0-1.827,0-3.652,0-5.496c0.188,0,0.376,0,0.602,0
		C28.172,29.113,28.172,29.614,28.172,30.212z M28.134,31.755c-0.019,1.055,0.824,1.917,1.89,1.934
		c1.04,0.016,1.899-0.835,1.925-1.903c0.021-1.051-0.813-1.937-1.838-1.955C28.981,29.811,28.155,30.617,28.134,31.755z"/>
	<path fill-rule="evenodd" clip-rule="evenodd" d="M34.436,31.976c0.074,0.764,0.45,1.254,1.071,1.543
		c0.666,0.308,1.306,0.214,1.881-0.249c0.143-0.113,0.298-0.249,0.37-0.408c0.121-0.261,0.301-0.318,0.552-0.284
		c0.071,0.01,0.146,0.007,0.221,0.011c-0.131,0.931-1.439,1.774-2.519,1.636c-1.422-0.184-2.368-1.384-2.197-2.79
		c0.159-1.318,1.37-2.274,2.705-2.136c1.304,0.135,2.295,1.337,2.177,2.678C37.293,31.976,35.886,31.976,34.436,31.976z
		 M38.046,31.428c-0.113-0.958-1.005-1.671-1.954-1.589c-0.827,0.07-1.632,0.864-1.593,1.589
		C35.674,31.428,36.849,31.428,38.046,31.428z"/>
	<path fill-rule="evenodd" clip-rule="evenodd" d="M23.504,31.994c-1.422,0-2.83,0-4.238,0c-0.02,0.981,1.046,1.841,2.041,1.678
		c0.534-0.088,0.973-0.347,1.25-0.804c0.149-0.247,0.311-0.332,0.574-0.291c0.071,0.011,0.142,0.011,0.214,0.016
		c-0.233,1.048-1.562,1.821-2.73,1.603c-1.324-0.249-2.185-1.489-1.979-2.854c0.193-1.279,1.419-2.198,2.727-2.041
		C22.651,29.456,23.628,30.661,23.504,31.994z M19.287,31.419c1.201,0,2.382,0,3.567,0c-0.135-0.928-0.949-1.618-1.844-1.587
		C20.145,29.861,19.362,30.569,19.287,31.419z"/>
	<path fill-rule="evenodd" clip-rule="evenodd" d="M48.303,31.991c-1.421,0-2.826,0-4.233,0c-0.019,1.212,1.461,2.085,2.546,1.518
		c0.278-0.147,0.56-0.367,0.725-0.628c0.17-0.271,0.354-0.332,0.63-0.304c0.053,0.006,0.109,0.001,0.166,0.001
		c-0.097,0.892-1.396,1.763-2.448,1.654c-1.387-0.142-2.396-1.313-2.28-2.648c0.12-1.397,1.273-2.391,2.657-2.291
		C47.39,29.386,48.389,30.563,48.303,31.991z M47.664,31.423c-0.171-0.963-0.962-1.625-1.864-1.591
		c-0.864,0.034-1.637,0.744-1.711,1.591C45.275,31.423,46.457,31.423,47.664,31.423z"/>
	<path fill-rule="evenodd" clip-rule="evenodd" d="M9.544,30.852c-0.116,0-0.299,0-0.479,0c-0.081-0.504,0.256-1.077,0.793-1.313
		c0.745-0.326,1.516-0.345,2.281-0.083c0.58,0.2,0.848,0.643,0.857,1.239c0.01,0.79,0.003,1.578,0.003,2.368
		c0,0.505,0.042,0.552,0.544,0.584c0.103,0.405,0.052,0.476-0.356,0.473c-0.534-0.002-0.674-0.137-0.783-0.784
		c-0.066,0.074-0.123,0.13-0.171,0.191c-0.708,0.938-2.193,0.854-2.848,0.453c-0.463-0.281-0.618-0.713-0.582-1.236
		c0.033-0.492,0.286-0.846,0.737-0.986c0.518-0.159,1.062-0.24,1.597-0.346c0.19-0.036,0.388-0.038,0.581-0.059
		c0.275-0.03,0.541-0.077,0.634-0.401c0.086-0.307-0.031-0.722-0.271-0.914c-0.489-0.393-1.68-0.369-2.115,0.078
		C9.792,30.296,9.706,30.565,9.544,30.852z M12.378,31.638c-0.279,0.056-0.529,0.109-0.78,0.161
		c-0.554,0.11-1.113,0.193-1.656,0.341c-0.327,0.088-0.521,0.354-0.515,0.714c0.008,0.358,0.2,0.609,0.51,0.771
		c0.327,0.171,0.676,0.179,1.031,0.122c0.805-0.127,1.366-0.662,1.406-1.352C12.389,32.138,12.378,31.877,12.378,31.638z"/>
	<path fill-rule="evenodd" clip-rule="evenodd" d="M39.008,29.421c0.189,0,0.362,0,0.568,0c0.005,0.104,0.014,0.204,0.014,0.3
		c0,0.753-0.023,1.51,0.012,2.262c0.018,0.359,0.085,0.745,0.242,1.065c0.29,0.589,0.852,0.71,1.455,0.633
		c0.577-0.075,0.942-0.427,1.091-0.977c0.074-0.266,0.096-0.551,0.1-0.827c0.014-0.79,0.009-1.581,0.01-2.372
		c0-0.018,0.01-0.035,0.021-0.074c0.174,0,0.354,0,0.534,0c0.012,0.017,0.029,0.033,0.026,0.047
		c-0.002,1.013,0.029,2.028-0.03,3.038c-0.056,0.896-0.597,1.515-1.388,1.676c-0.972,0.195-1.863,0.009-2.298-0.713
		c-0.175-0.296-0.327-0.652-0.341-0.987C38.979,31.48,39.008,30.467,39.008,29.421z"/>
	<path fill-rule="evenodd" clip-rule="evenodd" d="M8.365,32.763c-0.465,1.412-2.165,1.932-3.363,1.032
		c-0.764-0.573-1.062-1.373-0.965-2.305c0.101-0.972,0.587-1.698,1.514-2.062c1.3-0.509,2.539,0.362,2.817,1.354
		c-0.381,0.126-0.536,0.08-0.761-0.226c-0.397-0.537-0.918-0.826-1.59-0.7c-0.738,0.138-1.19,0.626-1.383,1.335
		c-0.175,0.64-0.078,1.256,0.322,1.802c0.659,0.905,1.886,0.949,2.565,0.065C7.762,32.745,8.009,32.682,8.365,32.763z"/>
	<path fill-rule="evenodd" clip-rule="evenodd" d="M18.789,33.579c0,0.179,0,0.323,0,0.481c-0.554,0-1.1,0.027-1.641-0.01
		c-0.33-0.021-0.521-0.271-0.576-0.594c-0.036-0.201-0.045-0.407-0.045-0.611c-0.006-0.78,0.003-1.562-0.006-2.341
		c-0.003-0.224,0.079-0.459-0.137-0.669c-0.064-0.061,0.043-0.303,0.076-0.463c0.016-0.075,0.059-0.149,0.062-0.225
		c0.009-0.174,0.003-0.35,0.003-0.542c0.229,0,0.426,0,0.647,0c0,0.26,0,0.498,0,0.771c0.545,0,1.07,0,1.614,0
		c0,0.186,0,0.34,0,0.528c-0.526,0-1.049,0-1.549,0c-0.034,0.049-0.052,0.064-0.052,0.078c-0.003,1.041-0.011,2.082-0.001,3.122
		c0.003,0.317,0.174,0.464,0.502,0.471C18.045,33.585,18.405,33.579,18.789,33.579z"/>
	<path fill-rule="evenodd" clip-rule="evenodd" d="M14.069,29.406c0.196,0,0.37,0,0.568,0c0.009,0.188,0.019,0.368,0.03,0.6
		c0.371-0.43,0.814-0.596,1.373-0.629c0,0.135,0.022,0.257-0.008,0.363c-0.022,0.081-0.106,0.188-0.18,0.202
		c-0.748,0.155-1.152,0.62-1.164,1.406c-0.013,0.809-0.003,1.618-0.004,2.425c0,0.102,0,0.203,0,0.326c-0.212,0-0.402,0-0.615,0
		C14.069,32.542,14.069,30.985,14.069,29.406z"/>
	<path fill-rule="evenodd" clip-rule="evenodd" d="M32.85,28.585c0.144,0,0.263-0.001,0.382,0.001
		c0.054,0.002,0.107,0.012,0.174,0.021c0,1.836,0,3.658,0,5.499c-0.188,0-0.36,0-0.556,0C32.85,32.273,32.85,30.449,32.85,28.585z"
		/>
</g>
</svg>
