<?xml version="1.0" encoding="utf-8"?>
<!-- Generator: Adobe Illustrator 16.0.0, SVG Export Plug-In . SVG Version: 6.00 Build 0)  -->
<!DOCTYPE svg PUBLIC "-//W3C//DTD SVG 1.1//EN" "http://www.w3.org/Graphics/SVG/1.1/DTD/svg11.dtd">
<svg version="1.1" id="Calque_1" xmlns="http://www.w3.org/2000/svg" xmlns:xlink="http://www.w3.org/1999/xlink" x="0px" y="0px"
	 width="52.154px" height="39.996px" viewBox="0 0 52.154 39.996" enable-background="new 0 0 52.154 39.996" xml:space="preserve">
<g>
	<path fill="#FFFFFF" d="M26.078,39.996c-7.399,0-14.8-0.004-22.201,0.002c-1.399,0-2.503-0.541-3.282-1.708
		c-0.379-0.569-0.573-1.207-0.589-1.89C0,36.109,0.003,35.822,0.003,35.534C0.003,24.98,0.005,14.429,0,3.877
		c0-1.364,0.517-2.455,1.634-3.24C2.22,0.227,2.88,0.021,3.598,0.001C3.681,0,3.764,0,3.849,0c14.818,0,29.638,0,44.459-0.001
		c1.392-0.002,2.484,0.548,3.254,1.707c0.4,0.603,0.595,1.276,0.595,2.001c-0.004,1.405,0.001,2.808,0.001,4.212
		c0,9.409-0.005,18.819,0,28.226c0,1.363-0.53,2.453-1.658,3.228c-0.604,0.416-1.285,0.621-2.021,0.621
		c-4.044,0-8.088,0.003-12.133,0.003C32.923,39.996,29.5,39.996,26.078,39.996z M26.078,1.726c-7.42,0-14.842,0-22.263,0.002
		c-1.226,0-2.075,0.84-2.075,2.064C1.737,14.597,1.736,25.4,1.748,36.206c0,0.332,0.077,0.694,0.228,0.989
		c0.378,0.754,1.04,1.07,1.873,1.07c14.813-0.002,29.625-0.002,44.438-0.002c1.305,0,2.134-0.82,2.134-2.117
		c0-3.265,0-6.526,0-9.793c0-7.501,0.001-15.005-0.01-22.51c0-0.325-0.06-0.677-0.19-0.97c-0.363-0.804-1.042-1.147-1.908-1.147
		C40.9,1.728,33.488,1.728,26.078,1.726z"/>
	<path fill="#FFFFFF" d="M27.597,15.943c-3.908,0-7.791,0-11.694,0c0,0.178,0,0.33,0,0.518c3.889,0,7.774,0,11.733,0
		c-0.033,0.655-0.016,1.276-0.1,1.886c-0.354,2.537-1.638,4.487-3.815,5.836c-1.195,0.738-2.513,1.116-3.915,1.129
		c-2.612,0.021-5.226,0.03-7.837,0c-3.462-0.045-6.563-2.444-7.464-5.782c-0.197-0.727-0.295-1.498-0.313-2.253
		c-0.025-1.131-0.063-2.284,0.122-3.39c0.501-2.949,2.214-4.987,4.978-6.132c0.965-0.4,1.983-0.541,3.025-0.539
		c2.391,0.003,4.779-0.003,7.167,0.001c3.485,0.007,6.35,1.952,7.612,5.176C27.536,13.521,27.662,14.698,27.597,15.943z"/>
	<path fill="#FFFFFF" d="M27.912,25.246c0-0.121,0-0.229,0-0.336c0-2.707,0.003-5.411-0.006-8.118
		c-0.003-0.256,0.066-0.326,0.323-0.325c5.18,0.008,10.356-0.005,15.533,0.01c1.909,0.006,3.341,0.872,4.119,2.624
		c1.101,2.479-0.214,5.228-2.826,5.983c-0.424,0.123-0.88,0.166-1.321,0.168c-5.18,0.012-10.357,0.007-15.535,0.007
		C28.116,25.26,28.035,25.253,27.912,25.246z"/>
	<path fill="#FFFFFF" d="M27.934,15.932c0-2.92,0-5.826,0-8.765c0.099-0.006,0.194-0.016,0.292-0.016
		c5.189,0,10.376-0.003,15.563,0.003c1.896,0.002,3.446,1.044,4.172,2.775c0.963,2.3-0.371,5.115-2.771,5.795
		c-0.466,0.132-0.969,0.208-1.454,0.209c-5.178,0.015-10.356,0.009-15.535,0.008C28.116,15.943,28.035,15.937,27.934,15.932z"/>
	<path fill="#FFFFFF" d="M28.172,30.212c0.562-0.729,1.249-0.979,2.058-0.919c0.647,0.047,1.198,0.316,1.646,0.787
		c0.894,0.938,0.888,2.396-0.002,3.359c-0.981,1.063-2.331,1.054-3.723-0.053c0,0.25,0,0.477,0,0.717c-0.213,0-0.385,0-0.581,0
		c0-1.828,0-3.652,0-5.496c0.188,0,0.376,0,0.603,0C28.172,29.113,28.172,29.613,28.172,30.212z M28.134,31.755
		c-0.019,1.056,0.824,1.917,1.89,1.935c1.04,0.016,1.899-0.836,1.926-1.903c0.021-1.052-0.813-1.937-1.839-1.955
		C28.981,29.811,28.155,30.617,28.134,31.755z"/>
	<path fill="#FFFFFF" d="M34.436,31.977c0.074,0.764,0.45,1.254,1.071,1.543c0.666,0.308,1.306,0.213,1.881-0.25
		c0.144-0.112,0.298-0.248,0.37-0.408c0.121-0.26,0.301-0.317,0.552-0.283c0.071,0.01,0.146,0.007,0.222,0.011
		c-0.132,0.931-1.439,1.774-2.52,1.636c-1.422-0.184-2.368-1.384-2.197-2.789c0.159-1.318,1.37-2.274,2.705-2.137
		c1.305,0.135,2.295,1.338,2.177,2.678C37.293,31.977,35.886,31.977,34.436,31.977z M38.046,31.428
		c-0.113-0.957-1.005-1.671-1.954-1.589c-0.827,0.07-1.632,0.864-1.593,1.589C35.674,31.428,36.849,31.428,38.046,31.428z"/>
	<path fill="#FFFFFF" d="M23.504,31.994c-1.422,0-2.83,0-4.238,0c-0.02,0.98,1.046,1.841,2.041,1.678
		c0.534-0.088,0.973-0.347,1.25-0.804c0.149-0.247,0.312-0.332,0.574-0.291c0.071,0.011,0.142,0.011,0.214,0.016
		c-0.233,1.048-1.562,1.821-2.729,1.603c-1.324-0.248-2.186-1.488-1.979-2.854c0.193-1.279,1.419-2.197,2.727-2.041
		C22.651,29.456,23.628,30.661,23.504,31.994z M19.287,31.419c1.2,0,2.382,0,3.566,0c-0.135-0.928-0.949-1.618-1.844-1.587
		C20.145,29.861,19.362,30.568,19.287,31.419z"/>
	<path fill="#FFFFFF" d="M48.303,31.991c-1.421,0-2.826,0-4.233,0c-0.019,1.212,1.462,2.085,2.547,1.518
		c0.277-0.147,0.56-0.366,0.725-0.628c0.17-0.271,0.354-0.332,0.63-0.304c0.053,0.006,0.109,0.001,0.166,0.001
		c-0.097,0.893-1.396,1.763-2.448,1.654c-1.387-0.143-2.396-1.313-2.279-2.648c0.119-1.396,1.272-2.391,2.656-2.291
		C47.39,29.387,48.389,30.563,48.303,31.991z M47.664,31.423c-0.171-0.963-0.962-1.625-1.864-1.591
		c-0.864,0.034-1.637,0.744-1.711,1.591C45.275,31.423,46.457,31.423,47.664,31.423z"/>
	<path fill="#FFFFFF" d="M9.544,30.852c-0.116,0-0.299,0-0.479,0c-0.081-0.504,0.256-1.076,0.793-1.313
		c0.745-0.326,1.517-0.346,2.281-0.083c0.58,0.2,0.848,0.644,0.857,1.239c0.01,0.789,0.003,1.578,0.003,2.367
		c0,0.506,0.042,0.553,0.544,0.584c0.103,0.406,0.052,0.477-0.356,0.474c-0.534-0.002-0.674-0.138-0.783-0.784
		c-0.065,0.074-0.122,0.13-0.171,0.191c-0.708,0.938-2.192,0.854-2.848,0.453c-0.463-0.281-0.618-0.713-0.582-1.236
		c0.033-0.492,0.286-0.846,0.737-0.986c0.518-0.158,1.062-0.24,1.597-0.346c0.19-0.036,0.388-0.038,0.581-0.059
		c0.275-0.031,0.541-0.078,0.634-0.401c0.086-0.308-0.031-0.722-0.271-0.914c-0.489-0.394-1.681-0.369-2.115,0.078
		C9.792,30.296,9.706,30.564,9.544,30.852z M12.378,31.639c-0.279,0.055-0.529,0.108-0.78,0.16c-0.554,0.11-1.113,0.193-1.656,0.342
		c-0.326,0.088-0.521,0.354-0.515,0.713c0.008,0.358,0.2,0.609,0.51,0.771c0.327,0.171,0.676,0.18,1.031,0.122
		c0.805-0.127,1.366-0.662,1.406-1.353C12.389,32.139,12.378,31.877,12.378,31.639z"/>
	<path fill="#FFFFFF" d="M39.008,29.421c0.188,0,0.362,0,0.568,0c0.005,0.104,0.014,0.204,0.014,0.3c0,0.754-0.023,1.51,0.012,2.262
		c0.019,0.359,0.085,0.746,0.242,1.065c0.29,0.589,0.852,0.71,1.455,0.634c0.577-0.076,0.942-0.428,1.091-0.978
		c0.074-0.267,0.096-0.552,0.101-0.827c0.014-0.79,0.009-1.581,0.01-2.372c0-0.019,0.01-0.034,0.021-0.073c0.174,0,0.354,0,0.534,0
		c0.012,0.016,0.029,0.032,0.026,0.047c-0.002,1.013,0.028,2.027-0.03,3.037c-0.056,0.896-0.597,1.516-1.388,1.676
		c-0.973,0.195-1.863,0.01-2.298-0.713c-0.176-0.295-0.327-0.651-0.342-0.986C38.979,31.48,39.008,30.467,39.008,29.421z"/>
	<path fill="#FFFFFF" d="M8.365,32.764C7.9,34.175,6.2,34.695,5.002,33.795c-0.765-0.572-1.063-1.373-0.965-2.305
		c0.101-0.973,0.587-1.698,1.514-2.063c1.3-0.509,2.539,0.362,2.817,1.354c-0.382,0.126-0.536,0.079-0.762-0.226
		c-0.396-0.537-0.918-0.826-1.59-0.701c-0.738,0.139-1.189,0.627-1.383,1.336c-0.175,0.64-0.078,1.256,0.322,1.802
		c0.659,0.905,1.886,0.948,2.564,0.065C7.762,32.745,8.009,32.682,8.365,32.764z"/>
	<path fill="#FFFFFF" d="M18.789,33.579c0,0.179,0,0.323,0,0.481c-0.555,0-1.101,0.026-1.642-0.011
		c-0.33-0.021-0.521-0.271-0.576-0.594c-0.035-0.201-0.045-0.407-0.045-0.61c-0.006-0.781,0.003-1.563-0.006-2.342
		c-0.003-0.225,0.079-0.459-0.137-0.669c-0.064-0.062,0.043-0.304,0.076-0.463c0.016-0.075,0.059-0.149,0.062-0.226
		c0.01-0.174,0.003-0.35,0.003-0.541c0.229,0,0.427,0,0.647,0c0,0.26,0,0.498,0,0.771c0.545,0,1.07,0,1.614,0
		c0,0.187,0,0.34,0,0.528c-0.526,0-1.05,0-1.55,0c-0.033,0.049-0.052,0.063-0.052,0.078c-0.003,1.041-0.011,2.082-0.001,3.121
		c0.003,0.317,0.174,0.465,0.502,0.472C18.045,33.585,18.405,33.579,18.789,33.579z"/>
	<path fill="#FFFFFF" d="M14.069,29.406c0.196,0,0.37,0,0.568,0c0.009,0.188,0.02,0.367,0.03,0.6
		c0.371-0.43,0.813-0.596,1.373-0.629c0,0.135,0.021,0.257-0.008,0.363c-0.022,0.08-0.106,0.188-0.181,0.201
		c-0.748,0.156-1.151,0.621-1.164,1.406c-0.013,0.81-0.003,1.618-0.004,2.426c0,0.102,0,0.203,0,0.326c-0.212,0-0.401,0-0.615,0
		C14.069,32.542,14.069,30.984,14.069,29.406z"/>
	<path fill="#FFFFFF" d="M32.85,28.585c0.145,0,0.263-0.001,0.382,0.001c0.055,0.002,0.107,0.012,0.175,0.021
		c0,1.836,0,3.658,0,5.498c-0.188,0-0.36,0-0.557,0C32.85,32.273,32.85,30.449,32.85,28.585z"/>
</g>
</svg>
