<?xml version="1.0" encoding="utf-8"?>
<!-- Generator: Adobe Illustrator 16.0.0, SVG Export Plug-In . SVG Version: 6.00 Build 0)  -->
<!DOCTYPE svg PUBLIC "-//W3C//DTD SVG 1.1//EN" "http://www.w3.org/Graphics/SVG/1.1/DTD/svg11.dtd">
<svg version="1.1" id="Calque_1" xmlns="http://www.w3.org/2000/svg" xmlns:xlink="http://www.w3.org/1999/xlink" x="0px" y="0px"
	 width="65.139px" height="40px" viewBox="0 0 65.139 40" enable-background="new 0 0 65.139 40" xml:space="preserve">
<g>
	<polygon fill-rule="evenodd" clip-rule="evenodd" fill="#1E1E1C" points="4.715,4.219 51.491,4.219 51.491,0 0,0 0,31.018 
		4.715,31.018 	"/>
	<g>
		<path fill="#1E1E1C" d="M30.182,24.289c0.211,0.672,0.541,1.181,0.986,1.528c0.446,0.349,1.025,0.523,1.742,0.523
			c0.192,0,0.406-0.019,0.634-0.053c0.228-0.035,0.461-0.084,0.692-0.146c0.233-0.063,0.461-0.137,0.687-0.22
			c0.225-0.086,0.436-0.178,0.63-0.271v2.089c-0.501,0.22-0.995,0.382-1.479,0.485c-0.482,0.104-0.983,0.155-1.505,0.155
			c-1.346,0-2.443-0.345-3.286-1.035c-0.845-0.691-1.408-1.71-1.69-3.058h-1.29v-1.45h1.12c-0.011-0.118-0.017-0.228-0.017-0.324
			c0-0.098,0-0.2,0-0.306c0-0.144,0.001-0.293,0.009-0.441c0.005-0.15,0.017-0.306,0.028-0.463h-1.139v-1.448h1.384
			c0.165-0.66,0.401-1.248,0.711-1.77c0.309-0.521,0.682-0.961,1.109-1.317c0.431-0.357,0.915-0.633,1.455-0.824
			c0.541-0.19,1.125-0.286,1.758-0.286c0.271,0,0.525,0.006,0.763,0.019c0.241,0.013,0.473,0.035,0.698,0.07s0.45,0.082,0.672,0.138
			c0.222,0.055,0.457,0.126,0.701,0.214v2.261c-0.487-0.241-0.959-0.408-1.417-0.509c-0.455-0.1-0.868-0.15-1.245-0.15
			c-0.698,0-1.271,0.192-1.718,0.578c-0.449,0.387-0.78,0.911-0.992,1.577h3.404v1.448H29.87c-0.014,0.126-0.017,0.246-0.017,0.364
			c0,0.116,0,0.232,0,0.352c0,0.127,0,0.255,0,0.386c0,0.132,0.003,0.277,0.017,0.433h3.716v1.45H30.182z"/>
	</g>
	<path fill-rule="evenodd" clip-rule="evenodd" fill="#1E1E1C" d="M45.169,18.736c0-2.808,4.904-5.094,11.034-5.202V7.815H8.313
		v27.42h36.855V18.736z M32.23,31.231c-5.087,0-9.211-4.123-9.211-9.211c0-5.086,4.124-9.211,9.211-9.211s9.21,4.125,9.21,9.211
		C41.44,27.108,37.317,31.231,32.23,31.231z"/>
	<ellipse fill-rule="evenodd" clip-rule="evenodd" fill="#1E1E1C" cx="56.453" cy="20.161" rx="8.686" ry="4.219"/>
	<path fill-rule="evenodd" clip-rule="evenodd" fill="#1E1E1C" d="M65.139,35.843c0,2.331-3.888,4.219-8.685,4.219
		s-8.687-1.888-8.687-4.219v-3.22c0,2.331,3.89,4.219,8.687,4.219s8.685-1.888,8.685-4.219V35.843z"/>
	<path fill-rule="evenodd" clip-rule="evenodd" fill="#1E1E1C" d="M65.139,30.733c0,2.331-3.888,4.218-8.685,4.218
		s-8.687-1.887-8.687-4.218v-3.219c0,2.33,3.89,4.219,8.687,4.219s8.685-1.889,8.685-4.219V30.733z"/>
	<path fill-rule="evenodd" clip-rule="evenodd" fill="#1E1E1C" d="M65.139,25.625c0,2.329-3.888,4.217-8.685,4.217
		s-8.687-1.888-8.687-4.217v-3.221c0,2.331,3.89,4.218,8.687,4.218s8.685-1.887,8.685-4.218V25.625z"/>
</g>
</svg>
