<svg xmlns="http://www.w3.org/2000/svg" width="187.087" height="130.748"><path d="M181.95 44.13C168.07 16.06 133.68.2 92.28 0c-21.1-.1-40.15 5.07-56.62 14.05C12.68 26.58 0 45.5 0 66.3c0 35.72 40.74 64.47 91.25 64.47 21.3 0 42.43-3.78 59.03-12.95 22.77-12.6 35.5-32.56 36.75-53.16.45-7.3-1.82-13.94-5.08-20.53zm1.88 25.14h-.6c-2.08 17.9-15.85 34.32-37.47 44.65-14.96 7.15-33.73 10.86-53.68 10.86-51.16 0-88.5-25.97-88.5-57.5 0-1.16.05-2.34.15-3.52H1.87l1.16-4.14H4.3c3.4-18.36 18.73-36.7 42.4-44.8 14.07-4.8 30.47-7.92 48.05-7.92 51.02 0 88.8 26.25 88.77 57.66h1.27l-.97 4.7zM3.03 59.62l-1.16 4.14h1.86c.12-1.38.3-2.76.56-4.14H3.02zM31.46 59.62H4.3c-.26 1.38-.45 2.76-.57 4.14H30.2l1.26-4.14zM64.9 59H41.5l5.78-17.5h20.9l.83-3.2H48.4l4.95-16.68h21.12l1.44-4.02H49.66l-14.1 46.03h28.4zM108.55 57.56c4.33 6.6 13.7 5.76 13.7 5.76 12.25-.1 18.33-9.88 18.33-9.78 0 0 5.86-8.03 6.8-16.78 1.03-9.85-.94-14.83-7.63-18.95s-17.6-.7-20.18 1.55c0 0-3.1 1.44-7.52 6.7s-6.18 16.16-6.18 16.16-1.64 8.77 2.68 15.36zm3.2-17.3s1.8-7.65 4.83-11.95c3.7-5.24 7.1-8.23 14.63-8.33 0 0 10.5-.82 11.13 9.78.6 10.6-4.84 19.77-4.84 19.77s-4.85 9.8-15.66 10.1c-9.58.27-10.6-6.7-10.6-6.7s-1.35-4.94.5-12.66zM79.15 89.27H100l1.2-4H80.5l5.14-15.72h20.75l1.43-4.06-26.16-.02-14.1 46.04H96.3l1.54-4.84h-23.8zM183.52 64.8c0 1.5-.1 3-.28 4.47h.6l.95-4.7h-1.28c0 .08 0 .16 0 .24zM183.5 64.56h-7.77l-1.27 4.7h8.78c.17-1.47.27-2.95.28-4.45 0-.07 0-.16 0-.24zM138.1 69.14h14.18l-12.73 42.27 4.94-.1 12.45-42.13H169l1.47-4.6h-30.8zM129.35 65.48h-16.47l-14 46.04h4.58l6.53-22.2s7.25-.2 12.6 0c5.36.2 3.78 6.03 3.78 6.03l-1.15 15.86h5.36s-.42-3.5.4-13.6c.82-10.08-3.7-10.5-3.7-10.5s11.26-4.12 10.9-12.14c-.4-9.27-8.85-9.47-8.85-9.47zm3.68 13c-1.4 3.37-6.77 6.73-10.25 6.73h-11.55l4.8-15.65h12.5s8.03.47 4.5 8.92zM62.3 100.8s-2.25 7.52-11.93 7.42c-9.68-.1-10.2-5.76-10.3-9.78-.1-4.53.82-9.06.82-9.06 2.16-8.24 4.83-10.92 4.83-10.92 2.07-3.7 4.6-6.2 7.58-8.13 3.35-2.17 7.06-1.76 7.06-1.76 11.43-.3 8.96 9.8 8.96 9.8h5.04c1.14-11.14-8.13-13-13.7-13-5.55 0-11 3.1-11 3.1-7 3.6-11.85 15.14-11.85 15.14s-4 9.28-1.85 19.57c1.94 9.22 14.42 9.17 14.42 9.17 14.62 0 17.7-11.54 17.7-11.54h-5.76zM70.55 54.57c1.94 9.2 14.42 9.16 14.42 9.16 14.62 0 17.7-11.53 17.7-11.53h-5.75s-2.27 7.52-11.95 7.42c-9.68-.1-10.2-5.77-10.3-9.8-.1-4.52.83-9.05.83-9.05 2.16-8.24 4.84-10.92 4.84-10.92 2.05-3.7 4.58-6.18 7.57-8.12 3.35-2.17 7.06-1.76 7.06-1.76 11.43-.3 8.96 9.78 8.96 9.78h5.04c1.14-11.12-8.13-12.97-13.7-12.97-5.55 0-11 3.1-11 3.1C77.25 23.47 72.4 35 72.4 35s-4 9.27-1.85 19.57z"/><path fill-rule="evenodd" d="M172.93 118.83v-5.18h.52c.74 0 1.6-.03 2.28.3.9.4 1.35 1.34 1.35 2.28 0 .76-.3 1.52-.9 2-.64.57-1.43.6-2.22.6h-1.03zm1.3.77c2.13.03 3.66-1.12 3.66-3.33 0-1.08-.38-2.1-1.3-2.74-.85-.62-1.86-.64-2.9-.64h-1.58v12.72h.8v-6.03h.4l4.17 6.02h.92l-4.17-6.03z" clip-rule="evenodd"/><path d="M174.56 128.74c-5.28 0-9.58-4.3-9.58-9.6s4.3-9.58 9.58-9.58 9.6 4.3 9.6 9.6-4.3 9.58-9.6 9.58zm0-18.36c-4.83 0-8.76 3.94-8.76 8.77s3.93 8.76 8.76 8.76 8.76-3.92 8.76-8.75-3.93-8.77-8.76-8.77z"/></svg>